<?xml version="1.0" encoding="UTF-8" standalone="no"?>
<!-- Creator: CorelDRAW 2018 (64 Bit Versão de avaliação) -->

<svg
   xml:space="preserve"
   width="80mm"
   height="80mm"
   version="1.1"
   style="clip-rule:evenodd;fill-rule:evenodd;image-rendering:optimizeQuality;shape-rendering:geometricPrecision;text-rendering:geometricPrecision"
   viewBox="0 0 8000.0001 7999.9998"
   id="svg241"
   sodipodi:docname="logo.svg"
   inkscape:export-filename="logo.svg"
   inkscape:export-xdpi="96"
   inkscape:export-ydpi="96"
   inkscape:version="1.2.1 (9c6d41e410, 2022-07-14)"
   xmlns:inkscape="http://www.inkscape.org/namespaces/inkscape"
   xmlns:sodipodi="http://sodipodi.sourceforge.net/DTD/sodipodi-0.dtd"
   xmlns="http://www.w3.org/2000/svg"
   xmlns:svg="http://www.w3.org/2000/svg"><sodipodi:namedview
   id="namedview243"
   pagecolor="#ffffff"
   bordercolor="#000000"
   borderopacity="0.25"
   inkscape:showpageshadow="2"
   inkscape:pageopacity="0.0"
   inkscape:pagecheckerboard="0"
   inkscape:deskcolor="#d1d1d1"
   inkscape:document-units="mm"
   showgrid="false"
   inkscape:zoom="1.2083333"
   inkscape:cx="117.10345"
   inkscape:cy="110.89655"
   inkscape:window-width="1366"
   inkscape:window-height="703"
   inkscape:window-x="0"
   inkscape:window-y="0"
   inkscape:window-maximized="1"
   inkscape:current-layer="Camada_x0020_1" />
 <defs
   id="defs4">
  <style
   type="text/css"
   id="style2">
   <![CDATA[
    .str0 {stroke:black;stroke-width:7.62;stroke-miterlimit:22.9256}
    .fil0 {fill:#020100}
    .fil6 {fill:#030303}
    .fil1 {fill:#060606}
    .fil31 {fill:#090A06}
    .fil57 {fill:#0A1902}
    .fil22 {fill:#0B0101}
    .fil19 {fill:#0C0C0E}
    .fil3 {fill:#121212}
    .fil20 {fill:#19191B}
    .fil33 {fill:#1A3602}
    .fil36 {fill:#233807}
    .fil70 {fill:#3C3C3C}
    .fil50 {fill:#464648}
    .fil59 {fill:#477817}
    .fil27 {fill:#497726}
    .fil66 {fill:#4B4B4C}
    .fil54 {fill:#4E4C51}
    .fil29 {fill:#502C0B}
    .fil32 {fill:#56565A}
    .fil28 {fill:#588727}
    .fil34 {fill:#588D2E}
    .fil10 {fill:#669828}
    .fil48 {fill:#689033}
    .fil69 {fill:#6B6B6C}
    .fil15 {fill:#6BA436}
    .fil30 {fill:#704B10}
    .fil47 {fill:#74C21C}
    .fil16 {fill:#74C223}
    .fil9 {fill:#75AA29}
    .fil38 {fill:#76767A}
    .fil37 {fill:#76A751}
    .fil12 {fill:#77BA28}
    .fil23 {fill:#78C135}
    .fil56 {fill:#7ABA37}
    .fil53 {fill:#7B7B7C}
    .fil18 {fill:#7E7E82}
    .fil49 {fill:#838384}
    .fil44 {fill:#87868A}
    .fil46 {fill:#8B8B8C}
    .fil17 {fill:#8E8E91}
    .fil52 {fill:#939394}
    .fil11 {fill:#95C958}
    .fil45 {fill:#96959A}
    .fil26 {fill:#9B9B9C}
    .fil42 {fill:#9E9DA1}
    .fil62 {fill:#A6A6AA}
    .fil55 {fill:#ABABAC}
    .fil25 {fill:#AFD18F}
    .fil60 {fill:#B24C32}
    .fil41 {fill:#B3B3B4}
    .fil39 {fill:#BBBBBC}
    .fil68 {fill:#BDBDC1}
    .fil21 {fill:#CDCDD1}
    .fil63 {fill:#D5D5DA}
    .fil13 {fill:#E95431}
    .fil65 {fill:#E9DEE1}
    .fil64 {fill:#F3EBE7}
    .fil58 {fill:#FAD5D0}
    .fil43 {fill:#FBAC8F}
    .fil35 {fill:#FC6939}
    .fil14 {fill:#FC7767}
    .fil7 {fill:#FC7857}
    .fil40 {fill:#FC8B4F}
    .fil24 {fill:#FCB556}
    .fil67 {fill:#FCB8A7}
    .fil5 {fill:#FDB548}
    .fil61 {fill:#FDC7B7}
    .fil51 {fill:#FDD5C9}
    .fil8 {fill:#FF5D33}
    .fil2 {fill:#FF6236}
    .fil4 {fill:#FFBC4C}
    .fil71 {fill:black;fill-rule:nonzero}
   ]]>
  </style>
 </defs>
 <g
   id="Camada_x0020_1"
   inkscape:label="Camada 1"
   inkscape:groupmode="layer">
  <metadata
   id="CorelCorpID_0Corel-Layer" />
  <g
   id="_1741268780512"
   transform="matrix(1.3693934,0,0,1.7483184,-2956.5168,-999.16886)">
   <g
   id="g235">
    <path
   class="fil0"
   d="m 4538.37,3470.99 c -6.52,16.87 -3.31,20.82 -23.48,28.69 -9.77,3.81 -34.68,3.97 -46.36,4.77 4.13,-34 33.06,-66.28 58.02,-85.7 10.18,-16.34 25.61,-29.05 40.68,-48.12 14.96,-18.92 24.42,-34.28 36.33,-58.05 32.38,-64.62 51.63,-48.96 79.72,-104.98 77.79,-6.71 175.77,-16.58 216.8,29.87 26.71,1.25 12.38,-5.33 20.78,14.1 1.56,0.56 3.97,-0.03 4.59,1.9 l 72.65,35.67 c 56.98,34.11 87.92,78.26 85.04,149.95 -4.89,121.48 23.66,164.75 -115.7,238.05 -15.07,7.92 -69.95,84.13 -184.99,50.04 -37.34,-7.09 -49.6,-19.22 -79.39,-33.43 l -4.06,-27.96 c -29.35,-10.35 -48.76,-24.1 -66.59,-48.28 -11.37,-15.44 -28.11,-48.49 -32.49,-70.29 -12.98,-64.56 34.34,-101.33 67.63,-126.47 6.25,-11.53 -10.64,-21.14 63.05,-28.95 -8.84,7.23 17,18.29 -15.58,1.82 -32.92,-16.66 4.66,7.34 -15.94,-16.72 -42.36,-5.65 -48.73,23.51 -74.16,51.17 -5.41,5.89 -30.6,30.19 -36.96,33.44 -15.3,7.8 -27.93,5.42 -49.59,9.48 z M 4187.02,3129.5 c 123.86,-67.91 304.13,371.92 149.78,375.24 -63.6,1.37 -158.01,-88.58 -188.62,-146.17 -46.22,-86.97 -37.11,-187.44 38.84,-229.07 z m -809.51,34.38 c 19.39,0.93 29.09,5.92 35.6,24.56 18.38,7.86 15.99,3.3 33.01,20.24 5.28,5.26 15.96,21.93 19,30.18 14.1,38.11 1.11,38.93 -0.54,73.42 65.75,53.95 202.88,125.97 221.03,140.32 11.54,9.13 4.5,2.12 12.95,13.74 13.58,0.64 40.54,4.84 55.17,12.91 l 22.79,16.34 c 10.49,7.04 4.13,-0.14 17.1,10.07 32.93,6.33 44.05,22.3 88.33,30.37 l -5.58,-36.5 c -18.92,-7.17 -12.93,-175.51 -7.76,-200.79 5.24,-25.57 11.57,-29.88 37.16,-6.29 19.9,18.35 13.46,15.1 28.6,36.15 18.05,25.12 34.99,41.7 51.08,68.08 11.84,19.41 92.21,162.51 29.02,165.78 l -0.53,31.85 c 45.02,5.91 75.13,19.06 117.49,28.64 80.3,18.17 227.89,49.34 307.52,52.53 75.99,3.04 55.91,1.27 68.06,18.27 -15.42,11.34 -27.54,12.24 -52.18,11.48 l -164.35,-19.31 c 7.09,79.8 -13.16,120.37 -110.02,143.07 -63.07,14.76 -144.68,30.06 -225.04,18.54 -3.13,-32.94 12.1,-39.51 28.12,-56.33 15.19,-15.92 26.73,-29.73 48.81,-46.58 17.99,-13.72 36.37,-24.54 59.3,-35.45 27.27,-12.96 46.57,-18.64 68.11,-39.26 l -44.75,-22.49 c -17.94,-6.09 -36.97,-8.55 -58.84,-14.44 -24.85,-6.69 -79.87,-18.77 -94.85,-39.02 l -10.97,1.54 c -62.98,-7.71 -89.14,-35.06 -149.7,-49.21 -1.38,2.08 -2.34,5.1 -3.26,6.74 -0.9,1.6 -2.22,4.61 -3.34,6.45 -5.54,9.12 -1.86,4.76 -6.89,11.31 -14.32,18.66 17.34,-2.3 -14.36,10.81 -24.89,90.29 -274.92,50.96 -380.03,8.83 -1.33,-44.94 3.03,-29.15 41.3,-51.97 30.3,-18.07 29.45,-23.28 59.37,-24.41 41.56,-44.4 123.75,-15.91 171.46,-34.88 -9.37,-20.76 -95.75,-60.65 -133.79,-85.75 -146.33,-96.57 -53.28,-51.02 -156.72,-52.79 -75.46,-1.29 -132.04,-122.84 -156.95,-185.7 -10.77,-27.16 -15.96,-29.36 -12.99,-69.61 39.91,-6.26 101.01,26.07 136.55,45.81 33.01,18.33 22.21,5.16 36.51,32.75 z m 1419.78,-223.69 c 59.19,-35.49 47.88,-40.12 138.12,-44.8 52.65,-2.73 128.74,-1.75 174.74,10.86 58.52,16.05 212.83,68.02 208.63,141.28 -86.91,31.92 -399.44,22.13 -496.49,-41.01 -32.3,-21.01 -27.18,-22.33 -25,-66.33 z m -1976.48,-61.31 c 25.64,13.28 34.04,42.21 32.58,74.46 -25.38,-3.9 -27.17,-4.11 -40.54,-26.21 l -2.84,-0.67 c -24.83,-13.13 -33.71,-26.7 -32.63,-56.9 28.05,-3.23 24.27,-8.06 43.43,9.32 z m -74.2,-41.69 c -30.86,-8.06 -47.23,-28.44 -51.38,-60.62 l 52.11,-6.46 z m 362.82,-35.47 c -3.24,-32.28 10.96,-53.79 26.21,-81.33 16.89,-30.5 23.79,-29.86 43.8,-51.88 17.46,-47.21 104.15,-104.36 160.17,-83.25 118.15,44.51 -35.81,269.23 -80.63,315.95 -52.1,54.3 -74.26,77.83 -168.88,69.8 -5.73,-33.69 -7.9,-108.37 2.19,-142.9 z m 910.33,241.9 c -29.79,37.96 -30.92,15.59 -66.4,38.1 l -4.18,70.44 c -26.94,-33.38 -7.03,-57.77 -26.88,-90.72 -8.79,-14.6 -15.66,-24.45 -19.83,-44 -5.93,-27.82 -4.11,-38.54 4.35,-60.62 35.15,-245.42 342.37,-345.13 408.02,-304.16 -4.22,33.26 -14.14,32.2 -41.24,48.31 -305.38,181.51 -166.32,314.1 -253.84,342.65 z m -268.64,-208.46 c -62.8,72.19 -157.63,-40.57 -167.17,173.42 l -37.71,-3.57 c -7.91,-127.12 43.16,-98.03 25.92,-186.96 -94.59,-105.85 97.72,-285.89 164.27,-333.79 61.03,-43.93 106.63,-66.93 182.42,-91.84 52.94,-17.39 193.91,-23.01 242.16,1.02 l 43.17,26.6 c 21.71,12.53 26.78,14.82 43.05,28.8 26.52,22.81 42.44,70.24 10.58,91.7 -28.77,19.38 -84.12,-6.36 -117.9,-9.04 -318.58,-25.24 -333.43,274.32 -388.79,303.66 z m 1195.36,-383.55 c -27.02,-31.06 8.76,-85.39 23.87,-105.18 l 33.81,-37.44 c 101.2,-87.18 420.48,-20.83 403.39,200.85 -3.59,46.67 -22.6,74.98 -47.86,101.07 -53.03,54.76 -93.89,-5.21 -101.03,-11.83 9.57,-34.71 35.31,-15.74 24.24,-81.14 -64.16,-9.16 -49.21,27.23 -83.95,74.03 -20.34,27.41 -45.61,72.28 -88.2,66.44 -48.86,-6.7 -57.68,-60.62 -53.33,-109.33 l 29.15,-122.63 c -29.52,-9.74 -24,-18.16 -56.58,-12.66 l -8.62,24.29 c 8.19,18.83 11.97,16.47 12.58,37.31 -30.32,11.19 -81.56,16 -87.47,-23.78 z m 738.84,196.68 c -30.13,-12.47 -41.78,-27.23 -64.71,-42.38 -9.84,89.81 -4.72,197.25 -28.28,307.04 -6.71,31.25 -17.48,51.9 -21.83,93.36 30.58,9.06 40.32,12.08 55.94,44.12 18.8,35.24 23.77,61.17 24.6,110.79 0.72,42.1 1,83.73 -22.09,113.9 -41.69,-5.08 -91.15,-88.5 -95.25,-109.43 l -21.38,-25.83 c -12.35,12.74 -70.99,128.44 -115.63,160.07 -4.26,61.61 14.14,71.45 -16.01,90.77 -5.11,50.38 -125.99,143.1 -204.23,132.33 -8.8,-37.07 -4.28,-80.99 12.65,-106.44 17.32,-26.03 29.03,-55.5 52.1,-68.03 12.17,-19.61 -0.91,-2.66 12.59,-16.41 1.72,-1.76 7.1,-6.35 9,-7.82 71.41,-55.27 67.09,22.83 143.83,-85.2 l 89.08,-148.56 c 13.27,-17.59 -1.21,-6.01 22.88,-20.02 -7.65,-20.56 7.41,-32.87 11.85,-60.7 9.95,-60.57 31.76,-93.07 30.35,-161.63 -67.44,29.58 16.71,8.75 -92.68,31.21 -21.19,6.36 -28.2,16.48 -65.81,16.71 -8.67,-60.76 74.22,-247.48 175.78,-192.09 18.66,-114.83 -21.52,-215.37 -27.47,-308.23 l 7.42,-38.73 c 23.24,17.67 32.82,84.82 40.43,111.43 124.73,-6.16 140.15,62.97 132.29,192.15 -23.51,1.24 -29.81,7.08 -45.42,-12.38 z m 306.14,-189.32 c -14.77,19.82 -1.77,3.25 -8.05,18.91 l -32.45,78.31 c -29.03,57.59 -34.67,112.07 -87.63,213.62 l -68.89,97.42 c 0,-43.16 8.43,-44.24 13.6,-73.71 5.61,-32 4.52,-53.95 10.95,-84.31 l 19.9,-75.3 c 8.64,-30.44 14.21,-36.26 23.28,-71.9 l 62.1,-223.5 c 9.12,-38.51 21.36,-38.36 4.18,-83.22 0.08,-42.72 -2.95,-90.71 10.71,-131.01 30.84,-4.33 45.22,2.19 62.27,16.58 12.65,22.12 20.87,262.26 -0.6,308.04 -0.69,1.45 -3.83,6.32 -4.39,5.07 -0.6,-1.3 -3.22,3.45 -4.98,5 z M 5556.84,2246.3 c -10.52,30.57 -10.37,22.23 -43.77,34.57 -21.22,7.83 -40.7,13.22 -60.34,18.85 l -22.96,5.54 -29.36,14.8 c -75.18,-40.91 -51.95,-42.74 -77.5,-80.66 7.7,-14 0.92,-2.42 9.21,-13.23 l 26.64,-33.58 c 10.01,-21.86 11.23,-20.16 32.03,-34.85 l 34.93,-24.46 c 1.05,-3.16 4.06,-2.67 6.18,-3.86 l 11.38,-10.94 c 1.73,-1.5 3.83,-3.54 5.18,-4.52 l 36.03,-17.58 63.61,-20.34 c 12.56,-11.97 41.58,-10.94 65.27,-9.88 49.71,2.23 29.12,7.24 66.5,19.93 l 2.77,24.63 c -0.83,26.69 -7.25,25.63 -22.98,39.93 -16.22,14.76 -18.42,19.25 -27.73,35.3 -20.9,36.02 -32.25,47.97 -75.09,60.35 z m 1465.25,-840.32 c -9.67,26.99 11.12,23.41 -24.44,31.26 -28.44,6.28 -18.79,-7 -23.66,-16.42 25.52,-17.36 14.7,-11.58 48.1,-14.84 z m 283.27,-557.36 c -17.11,31.24 -14.55,16.78 -37.3,39.59 -20.22,20.26 -14.15,20.69 -39.36,38.89 -27.98,2.89 -38.71,22.28 -62.93,40.84 l -122.96,82.63 c -59.31,38.3 -105.05,57.78 -166,86.91 -71.43,34.13 0.88,43.66 -153.48,99.53 l -242.11,121.42 c -21.89,11.62 -43.68,20.8 -64.44,30.38 -247.3,114.22 -118.77,85.1 -226.15,232.88 -35.05,48.23 -37.59,86.42 -108.09,121.46 l -793.2,170.41 c -6.57,12.47 12.14,18.21 -17.87,18.04 85.5,30.79 57.57,16.12 65.03,39.86 l -38.54,12.81 c -51.92,-18.26 -71.05,8.76 -126.09,8.76 -19.31,-72.95 -103.43,-29.51 -127.24,-25.01 -27.76,5.25 -48.7,5.08 -76.5,10.28 -25.05,4.68 -13.1,4.6 -36.66,10.7 l -193.22,31.28 c -40.4,2.15 -95.82,28.13 -141.45,36.54 l -147.6,33.94 c -44.11,13.87 -24.98,16.75 -105.51,36.64 -56.14,13.87 -25.51,20.12 -109.41,24.78 -44.45,2.46 -128.92,28.6 -168.96,44.18 -50.24,19.56 -227.56,48.9 -280.38,66.93 -27.11,9.25 -45.52,10.79 -77.94,16.76 l -292.32,78.72 c -23.14,6.55 -47.96,8.75 -71.1,15.73 l -300.14,70.84 c -32.46,7.99 -43.49,10.55 -74.04,20.71 -51.61,17.16 -96.23,25.4 -135.42,51.5 -26.18,34 -229.75,66.18 -302.1,88.39 l -4.16,11.13 c -22.1,64.17 -14.74,23.84 -58.64,67.62 -14.86,14.82 -22.46,21.89 -24.77,48.06 -6.13,69.3 24.46,49.08 24.53,49.09 l 24.83,14.29 0.32,70.16 c 30.35,22.97 28.85,31.41 45.74,72.47 0.37,15.38 91.01,148.23 106.88,170.4 l 20.32,27.19 c 1.01,1.32 2.45,3.15 3.47,4.45 l 41.18,61.79 c 23.84,45.03 19.04,64.34 56.14,74.14 18.41,4.87 5,-16.22 51.14,32.14 l 80.51,77.94 c 19.83,35.82 -17.44,34.68 37.15,73.89 28.05,20.14 19.56,23.08 44.56,20.36 84.3,20 32.65,-6.96 100.12,39.84 l 65.55,53.59 19,55.72 c 25.32,17.41 48.72,48.14 83.96,51.51 60.58,5.78 58.29,9.01 97.64,39.05 2.35,37.17 -7.97,-0.5 2.81,44.51 10.69,14.54 13.89,-4.45 71.97,32.04 54.29,34.11 38.56,39.11 71.18,32.05 l 181.23,86.59 c 11.43,4.96 25.23,8.45 33.65,13.16 36.47,20.43 14.44,0.4 21.74,26.89 -26.79,10.78 -124.49,-23.88 -166.81,-25.14 50.38,34.37 68.19,11.39 95.57,48.98 26.32,11.71 38.09,12.88 71.04,0.04 l 38.64,-2.06 c 12.44,-11.54 5.34,-14.94 55.72,-10.23 l 167.71,38.69 c 5.54,1.24 18.43,5.31 20.14,6.24 42.24,22.96 -9.38,-14.39 17.21,15.01 63.72,28.58 137.17,12.15 208.32,28.42 56.79,12.98 39.9,19.34 94.9,-1.61 57.47,-21.89 24.53,25.18 90.85,-7.12 92.08,24.97 60.71,2.58 94.57,39.96 28.68,-0.27 59.96,-1.34 85.92,-5.79 59.03,-10.08 32.59,-17.45 71.69,-36.07 l 7.91,6.05 c 14.26,-19.71 -10.4,-5.15 23.34,-18.18 0.24,-0.09 28.81,-5.44 33.24,-6.29 25.06,-4.85 35.71,-9.06 61.6,-12.22 16.99,2.85 10.36,4.88 22.02,-3.05 -31.62,-17.34 -55.74,4.36 -85.55,-1.17 -24.65,-4.57 -16.61,-3.5 -30,-14.72 l 66.02,-22.77 c 19.38,-4.99 38.49,-11.33 63.09,-16.93 39.59,-12.15 88.24,-30.62 129.91,-25.36 9.33,38.48 5.36,18.4 15.76,31.29 l 63.04,-28.91 c 44.54,13.01 4.42,7.94 35.11,-4.72 l 74.25,-36.9 c 66.13,-49.83 113.02,-44.52 151.78,-85.16 15.53,-16.27 6.59,-5.06 10.79,-17.17 11.93,-23.11 -1.48,-5.81 19.07,-24.38 9.74,-8.8 16.69,-13.63 32.11,-20.23 l 55.12,5.69 0.66,-32.61 7.21,-47.57 c 30.25,-25.65 63.64,-59.63 110.38,-78.28 21.74,4.17 4.92,7.87 22.93,-2.06 15.38,-8.48 8.09,-2.04 10.6,-15.14 15.01,-23.2 39.98,-44.77 68.92,-55.59 22.02,6.15 8.85,18.27 15.76,-7.99 24.62,-6.63 18.91,-0.51 20.39,-23.84 l 25.76,-25.18 c 22.45,-30.13 56.08,-56.93 85.18,-88.63 32.47,-35.36 60.96,-82.3 81.45,-96.11 23.69,-9.58 100.2,-96.07 100.56,-123.44 0.39,-29.08 -9.97,-6.91 -3.56,-45.58 l 50.64,-123.84 c 37.04,-96.67 -13.68,-39.4 70.66,-159.21 171.89,-244.16 99.77,-262.76 159.74,-530.81 21.51,-96.19 -36.96,-42.33 2.45,-179.79 9.17,-31.97 5.46,-61.56 16.09,-95.08 8.14,-25.67 27.76,-58.65 13.24,-97.95 l 34.62,-140.57 c 48.81,-22.21 74.38,-28.64 112.59,-60.29 22.74,-18.84 89.45,-39.25 128.57,-53.41 11.73,1.27 5.26,4.88 23.64,-0.04 -2.73,-33.21 -3.41,-20.77 -23.59,-47.69 15.63,-29.48 19.54,-36.1 55.12,-40.33 15.77,3.84 13.49,34.11 19.71,20.75 0.66,-1.41 2.51,3.6 4.24,6.73 l 39.09,-9.3 191.78,-38.75 c 25.23,-9.83 26.1,-22.09 36.76,-42.41 18.21,0.41 31.57,4.29 39.41,3.72 l 191.78,-56.67 198.99,-109.27 c 43.31,-27.27 167.76,-71.08 263.38,-139.7 42.7,-30.65 74.92,-53.14 123.57,-82.02 28.72,-17.06 35.44,-22.71 60.03,-42.77 l 56.11,-46.74 c 1.44,-1.39 11.56,-10.68 12.36,-11.38 l 94.64,-79.42 c 15.66,-33.89 -1.52,0.13 15.7,-24.39 10.21,-14.56 -3.19,10.48 11.25,-18.59 l -74.27,9.8 c -17.67,2.4 -44.43,25.72 -61.34,42.84 l -29.09,34.25 c -37.73,50.53 -12.51,-0.89 -100.96,65.07 -25.01,18.65 -46.74,31.06 -69.03,49.96 -30.25,30.44 -77.58,39.46 -116.04,65.28 -84.98,57.06 -26.65,23.06 -119.02,63.26 -63.25,27.52 -175.91,114.63 -247.91,111.86 28.26,-53.77 69.12,-57.95 121.81,-88.3 41.28,-23.78 92.25,-49.18 136.93,-69.23 50.27,-22.56 89.47,-45.71 135.97,-68.53 75.95,-37.25 98.03,-67.87 128.03,-80.1 26.9,-9.93 16.05,2.85 21.72,-21.66 10.69,-21.39 5.49,-16.08 25.56,-25.14 40.89,-7.69 21.2,-24.35 79.15,-61.94 38.6,-25.03 109.98,-103.09 109.98,-127.5 0,-22.91 -66.53,-92.77 -91.03,-130.72 -0.92,-1.43 -2.19,-3.37 -3.12,-4.8 -101.27,-157.44 -106.7,-115.62 -257.07,11.8 -29.66,25.13 -48.47,39.48 -87.91,54.39 -40.76,15.41 -161.03,64.3 -169.82,109.07 z"
   id="path7" />
    <path
   class="fil1"
   d="m 4853.15,1774.51 c 20.17,-12.73 41.71,-23.09 70.99,-32.2 12.36,-3.85 34.03,-7.16 50.76,-8.31 12.07,-0.84 19.21,-2.31 31.36,0.73 19.08,4.78 7.73,3.05 18.2,11.93 -7.93,8.18 1.62,7.22 -19.77,13.66 l -61.98,7.53 c -37.65,6.63 -48.07,10.81 -89.56,6.66 z m 42.9,-51.73 c -35.86,-15.49 -51.59,0.16 -79.31,7.45 L 4583,1780.64 c -47.02,9.73 -108.39,23.32 -153.58,35.86 -126.54,35.09 -113.97,38.33 -215.52,76.7 -146.33,55.3 -167.41,32.63 -277.13,62.26 l -486.94,136.77 c -70.28,22.69 -156.55,40.21 -224.46,67.69 l -145.38,52.07 c -7.11,1.89 -13.17,2.79 -19.2,4.49 l -272.62,90.64 c -4.78,2.06 -11.34,5.2 -16.45,7.25 -47.43,18.97 -241.29,92.75 -247.72,115.76 2.81,33.99 -0.94,11.87 10.81,28.84 l 17.05,22.58 c 13.26,31.96 -6.89,47.81 35.19,48.16 62.89,20.13 64.56,8.15 126.89,0.15 64.64,-8.29 68.48,-17.28 117.4,-38.88 44.86,-4.43 -2.35,-13.1 55.44,-28.76 l 201.25,-67.28 c 25.63,-8.81 34.23,-18.52 55.95,-30.99 25.67,-14.74 40.84,-19.68 67.22,-27.58 l 146.87,-34.67 c 31.18,-5.19 168.52,-24.74 184.67,-37.37 27.59,-21.57 6.85,-24.79 6.69,-26.34 -3.55,-33.06 -25.87,2.35 42.93,-33.69 93.52,-49.01 34.03,-21.96 140.9,-40.82 29.29,-5.17 44.28,-11.65 70.49,-16.32 l 582.62,-143.61 c 46.28,-20.46 21.7,-25.06 100.71,-33.54 28.58,-3.07 17.52,-0.33 39.84,-7.51 l 228.41,-47.81 c 36.53,-5.63 267.56,-58.71 285.06,-72.66 l 20.83,-16.45 c 4.81,-2.87 7.36,-2.26 16.81,-7.94 -26.18,-8.08 -22.34,-4.93 -35.55,-23.29 17.99,-21.91 23.16,-12.98 43.81,-34.67 l -37.9,-7.41 c 6.5,-30.18 -10.92,-13.57 15.69,-29.41 35.69,-18.36 42.25,-0.75 45.84,-39.78 -22.83,-10.94 -6.43,-8.45 -50.81,3.13 -18.12,4.72 -38.39,8.43 -54.55,12.09 -36.85,8.32 -71.1,17.44 -108.51,24.48 z"
   id="path9" />
    <path
   class="fil2"
   d="m 3572.16,2818.05 c 52.02,-3.5 37.46,0.82 87.97,25.07 1.79,0.85 3.62,2.07 5.45,2.88 34.39,14.89 49.92,4.64 85.54,-10.84 55.36,-29.34 70.21,-328.9 388.79,-303.66 33.78,2.68 89.13,28.42 117.9,9.04 31.86,-21.46 15.94,-68.89 -10.58,-91.7 -16.27,-13.98 -21.34,-16.27 -43.05,-28.8 l -43.17,-26.6 c -48.25,-24.03 -189.22,-18.41 -242.16,-1.02 -75.79,24.91 -121.39,47.91 -182.42,91.84 -66.55,47.9 -258.86,227.94 -164.27,333.79 z"
   id="path11" />
    <path
   class="fil3"
   d="m 3459.77,3981.91 3.28,19.37 c 38.42,13.67 116.09,49.96 143.71,73.94 l 22.6,21.52 c 11.39,6.63 20.02,9.1 31.9,15.73 25.35,14.14 39.57,24.93 68.08,34.67 l 114.46,27.62 c 19.33,4.83 29.24,2.98 49.26,5.95 27.19,4.05 41.65,10.29 80.48,14.22 27.64,2.79 168.5,52.27 239.89,26.35 14.01,-5.08 -8.69,-0.24 20.65,-10.95 11.88,17.89 26.12,27.34 43.42,31.78 h 78.42 c 28.03,-2.98 60.73,-7 99,-7.76 54.92,-1.08 53.82,-16.84 117.79,-16.32 67.99,0.55 64.15,0 114.41,-15.65 8.83,-7.35 -0.88,-4.16 22.08,-14.91 0.29,-0.14 15.64,-5.09 15.97,-5.19 22.95,-6.66 29.03,-7.6 52.67,-9.19 40.35,10.83 45.56,-3.45 76.95,-12.31 38.76,-10.94 49.62,5.23 76.67,-21.98 43.98,-45.36 175.08,-15.45 180.09,-95.37 -11.62,-8.06 -0.41,-19.66 -56.48,0.83 -90.79,33.18 -63.39,-47.85 -174.78,-9.88 -17.07,1.92 -0.9,-4.15 -22.44,9.75 -11.26,7.26 -17.53,12.56 -28.46,23.14 -27.16,54.51 10.71,-1.87 -3.07,42.99 -14.14,46.07 -99.98,40.81 -135.16,37.73 -1.2,-1.74 -1.97,-4.53 -2.61,-5.78 -0.64,-1.23 -1.84,-4.19 -2.67,-5.65 -22.38,-39.36 -62.33,-27.81 -128.69,-14.86 l -23.28,-8.12 -0.36,25.22 c 36.59,3.07 13.78,-8.52 31.52,15.89 -27.79,6.53 -25.89,7.95 -63.05,7.95 -15.16,-57.26 -52.03,-11.2 -152.55,-28.56 l -264.23,-20.02 c -20.99,-2.38 -45.27,-13.15 -64.42,-13.66 -37.7,-1.02 -32.19,21.28 -117.76,-9.23 -44.66,-15.93 -15.58,-17.43 -106.86,-43.25 -39.87,-11.28 -194.78,-65.92 -231.96,-53.14 -81.88,-10.78 -35.25,-1.33 -94.61,-35.41 -24.57,10.96 -23.06,-14.25 -21.05,12.71 z"
   id="path13" />
    <path
   class="fil4"
   d="m 4946.48,2451.61 c 31.05,15.91 26.39,21.62 69.59,18.33 -3.58,-19.62 -8.01,-24.27 -7.74,-50.33 l 21.66,-5.82 c 32.58,-5.5 27.06,2.92 56.58,12.66 l -29.15,122.63 c -4.35,48.71 4.47,102.63 53.33,109.33 42.59,5.84 67.86,-39.03 88.2,-66.44 34.74,-46.8 19.79,-83.19 83.95,-74.03 11.07,65.4 -14.67,46.43 -24.24,81.14 7.14,6.62 48,66.59 101.03,11.83 25.26,-26.09 44.27,-54.4 47.86,-101.07 17.09,-221.68 -302.19,-288.03 -403.39,-200.85 l -33.81,37.44 c -15.11,19.79 -50.89,74.12 -23.87,105.18 z"
   id="path15" />
    <path
   class="fil5"
   d="m 4800.75,3357.17 c 4.48,13.3 6.1,16.9 11.06,27.47 24.02,17 8.99,31.76 41.67,58.14 90.17,36.95 129.31,-3.68 178.49,28.44 -13.59,27.78 15.55,10.07 -28.52,21.24 -9.89,2.51 -33.55,3.26 -44.1,2.79 -33.65,-1.5 -52.03,-11.41 -91.8,-13.25 0.36,67.16 20.41,123.31 42.07,175.17 l -19.41,7.23 c -42.8,10.41 -35.34,2.15 -44.66,-28.17 -54.12,15.91 -53.32,-4.01 -99.71,17.78 8.62,28.84 18.4,1.11 23.67,28.56 l 0.33,7.96 c 0.03,-1.08 -0.52,3.18 0.12,4.55 41.5,10.65 7.72,3.15 29.62,-3.58 6.34,-1.95 29.9,-33.62 48.15,18.14 -5.5,1.61 -21.04,1.53 -30.72,3.72 l -28.07,10.18 c -1.33,-1.94 -4.42,2.27 -6.49,3.64 115.04,34.09 169.92,-42.12 184.99,-50.04 139.36,-73.3 110.81,-116.57 115.7,-238.05 2.88,-71.69 -28.06,-115.84 -85.04,-149.95 l -72.65,-35.67 c -0.62,-1.93 -3.03,-1.34 -4.59,-1.9 l -111.55,14.73 c 12.83,1.75 44.39,0.18 50.73,11.99 0.66,1.22 2.44,3.99 3.18,5.45 0.69,1.39 2.02,3.9 2.7,5.34 l 6.49,18.95 c 34.95,8.37 44.41,3.85 51.16,37.38 l -114.2,-11.43 c -10.46,10.4 -8.9,-17.71 -8.62,23.19 z"
   id="path17" />
    <path
   class="fil6"
   d="m 5903.03,1365.19 c 19.3,16.91 209.51,69.97 322.67,-26.03 l 48.5,-54.62 c 9.36,-22.37 12.39,12.17 3.23,-30.61 13.48,-83.68 -25.2,-85.43 -96.84,-74.54 l -9.67,-4.93 c -25.95,24.86 -35.42,15.44 -99.1,34.46 -33.5,10.01 -68.25,22.59 -96.6,30.46 -35.49,9.84 -63.03,13.16 -101.53,24.72 -15.18,4.55 -30.97,9.04 -47.45,13.96 -40.01,11.94 -31,13.21 -37.46,23.56 40.15,45.35 83.86,20.56 114.25,63.57 z"
   id="path19" />
    <path
   class="fil7"
   d="m 2539.53,1780.2 c 55.69,25.28 146.8,83.44 185.61,127.87 35.48,27.72 64.22,79.83 59.27,132.22 -32.65,-3.58 -90.15,-34.02 -115.16,-50.27 l -30.01,-28.78 c -5.14,-26.13 -79.18,-78.12 -101.83,-100.94 l -32.92,-38.51 c -1.08,-1.28 -2.57,-3.11 -3.64,-4.39 -22.68,-27.15 -10.98,-25.46 -32.01,-25.79 -19.59,-13.8 -10.6,-2.51 -22.16,-21.18 -12.99,-20.96 -7.07,-12.53 -11.79,-34.49 37.23,3.13 81.4,23.83 104.64,44.26 z m 118.44,252.61 c 66.49,36.24 117.7,77.65 155.83,57.04 l 9.01,-9.44 c 33.63,-28.92 -1.66,36.9 10.07,-15.71 11.13,-49.9 -32.27,-128.14 -48.78,-167.04 12.43,-23.12 12.55,-3.7 -4.76,-26.73 -19.09,-25.4 -103.75,-74.11 -132.53,-89.17 l -225.8,-121.97 c -27.75,-13.18 -35.51,-16.44 -78.26,-16.44 -12.31,53.27 13.13,73.96 53.41,144.82 l 147.65,176.93 c 8.75,8.47 5.58,4.57 13.23,10.5 l 30.19,25.19 c 1.22,1.09 2.92,2.69 4.16,3.75 1.24,1.07 2.98,2.62 4.25,3.66 30.93,25.3 20.5,7.48 38.69,32.51 z"
   id="path21" />
    <path
   class="fil8"
   d="m 3906.82,2956.82 5.3,59.43 c 16.97,28.78 36.66,5.14 71.19,18.28 21.31,8.12 -2.32,9.65 36.45,9.09 87.52,-28.55 -51.54,-161.14 253.84,-342.65 27.1,-16.11 37.02,-15.05 41.24,-48.31 -65.65,-40.97 -372.87,58.74 -408.02,304.16 z"
   id="path23" />
    <path
   class="fil9"
   d="m 3961.32,3593.96 c 14.98,20.25 70,32.33 94.85,39.02 21.87,5.89 40.9,8.35 58.84,14.44 l 44.75,22.49 c -21.54,20.62 -40.84,26.3 -68.11,39.26 -22.93,10.91 -41.31,21.73 -59.3,35.45 -22.08,16.85 -33.62,30.66 -48.81,46.58 -16.02,16.82 -31.25,23.39 -28.12,56.33 80.36,11.52 161.97,-3.78 225.04,-18.54 96.86,-22.7 117.11,-63.27 110.02,-143.07 l 164.35,19.31 c 24.64,0.76 36.76,-0.14 52.18,-11.48 -12.15,-17 7.93,-15.23 -68.06,-18.27 -79.63,-3.19 -227.22,-34.36 -307.52,-52.53 -42.36,-9.58 -72.47,-22.73 -117.49,-28.64 l 0.53,-31.85 c -29.87,8.08 -4.08,1.15 -17.67,12.58 -22,18.5 9.06,-3.42 -11.02,11.34 -1.61,1.18 -14.09,5.43 -24.46,7.58 z"
   id="path25" />
    <path
   class="fil10"
   d="m 4241.96,3244.83 c 50.72,9.47 55.14,75.15 56.43,125.34 -29.7,-14.14 -28.84,-22.02 -42.83,-54.78 -4.11,-9.62 -11.17,-27.46 -14.2,-36.05 -10.89,-30.94 -6.25,-20.35 0.6,-34.51 z m -8.68,-55.32 c 24.7,-64.7 96.93,86.37 99.8,93.67 21.52,54.65 46.57,118.6 27.06,180.06 -34.13,8.32 -63.16,5.77 -83.84,-32.86 -6.16,-11.52 -8.37,-18.91 -12.54,-34.41 34.88,15.03 19.97,16.05 62.19,17.32 5.67,-63.03 -4.64,-125.57 -34.48,-181.61 -14.79,-27.77 -17.18,-28.58 -40.31,-30.89 l -24.99,7.87 c 27.67,5.97 14.87,2.51 27.32,16.2 -54.01,6.02 -11,-6.83 -34.56,32.69 -9.31,15.63 -1.87,5.58 -16.16,16.98 l -10.55,7.09 c -0.88,-1.61 -3.75,2.39 -5.42,3.85 l -9.21,-38.92 c 1.24,-24.8 2.92,-26.17 9.98,-45.53 18.26,-6.19 21.8,-11.73 45.71,-11.51 z m -46.26,-60.01 c -75.95,41.63 -85.06,142.1 -38.84,229.07 30.61,57.59 125.02,147.54 188.62,146.17 154.35,-3.32 -25.92,-443.15 -149.78,-375.24 z"
   id="path27" />
    <path
   class="fil11"
   d="m 2789.86,1492.35 c -14.45,31.87 -18.22,34.28 -48.83,42.67 1.64,-37.09 0.94,-44.08 19.39,-65.99 1.04,-1.73 2.18,-6.66 2.6,-5.48 l 10.63,-21.45 c 36.04,-70.85 26.46,-68.08 65.58,-68.96 -6.36,77.07 -41.08,103.62 -49.37,119.21 z m -131.89,-63.62 c 30.3,-13.99 20.64,-7.28 36.58,-36.56 15.98,-29.35 74.38,-86.84 105.27,-106.16 26.72,21.5 33.11,6.51 46.82,47.35 -23.58,9.63 -32.92,17.6 -43.62,38.83 -17.63,-2.83 -14.04,-3.3 -20.52,-6.21 -1.55,-0.69 -8.72,-5.71 -12.83,-7.61 -16.49,35.75 -23.15,23.38 -42.72,52.73 -85.06,127.58 -39.71,186.36 -39.42,253 -39.39,0.95 -14.7,8.63 -51.36,-12.76 37.42,51 98.26,5.54 147.89,-15.9 22.69,5.09 75.86,-25.58 70.96,-55.67 35.9,-75 -11.28,-6.53 12.35,-67.49 12.48,-32.18 16.5,-33.84 15.97,-75.2 l -31.88,-0.51 0.78,-67.31 30.57,-1.25 c -24.6,-36.45 -19.11,-13.26 -19.91,-66.12 50.93,25.2 20.56,9.48 51.45,46.13 17.92,21.26 -18.78,-6.03 19.4,17.13 -1.05,-64.31 -2.35,-39.87 -31.44,-87.37 -0.36,-5.62 2.93,-15.28 -36.67,-27.44 -26.35,-8.1 -25.72,-2.55 -52.44,8.82 -2.33,0.99 -9.02,3.75 -11.32,4.72 -52.84,22.51 -58.59,26.07 -89.86,68.39 l -24.31,31.12 c -20.75,24.95 -6.14,17.03 -29.74,25.64 z"
   id="path29" />
    <path
   class="fil12"
   d="m 5468.1,2879.43 c 27.61,-38.71 119.09,-46.71 129.28,-68.17 3.88,-26.83 3.61,-73.32 6.04,-110.91 1.38,-21.35 0.8,-34.95 0.57,-55.82 -0.25,-23.16 -1.17,-34.79 9.2,-53.64 28.7,7.42 56.54,31.16 72.13,57.4 15.61,19.46 21.91,13.62 45.42,12.38 7.86,-129.18 -7.56,-198.31 -132.29,-192.15 -7.61,-26.61 -17.19,-93.76 -40.43,-111.43 l -7.42,38.73 c 5.95,92.86 46.13,193.4 27.47,308.23 -101.56,-55.39 -184.45,131.33 -175.78,192.09 37.61,-0.23 44.62,-10.35 65.81,-16.71 z"
   id="path31" />
    <path
   class="fil13"
   d="m 4863.91,2954.65 c 65.52,-41.05 252.44,-16.66 323.46,30.73 29.03,19.37 12.93,-4.99 26.49,27.18 -64.72,1.17 -319.51,13.58 -349.95,-57.91 z m -66.62,-14.46 c -2.18,44 -7.3,45.32 25,66.33 97.05,63.14 409.58,72.93 496.49,41.01 4.2,-73.26 -150.11,-125.23 -208.63,-141.28 -46,-12.61 -122.09,-13.59 -174.74,-10.86 -90.24,4.68 -78.93,9.31 -138.12,44.8 z"
   id="path33" />
    <path
   class="fil12"
   d="m 3493.44,3514.05 c -29.92,1.13 -29.07,6.34 -59.37,24.41 -38.27,22.82 -42.63,7.03 -41.3,51.97 105.11,42.13 355.14,81.46 380.03,-8.83 0.08,-20.55 -1.1,-23.55 7.06,-43.67 10.89,-26.85 4.15,16.09 13.76,-32.27 -12.97,-10.21 -6.61,-3.03 -17.1,-10.07 l -22.79,-16.34 c -14.63,-8.07 -41.59,-12.27 -55.17,-12.91 -43.18,27.85 -1.05,34.23 -91.96,32.11 -46.72,-1.09 -74.52,19.01 -113.16,15.6 z"
   id="path35" />
    <path
   class="fil14"
   d="m 2382.19,1301.65 c -44.02,20.51 -4.04,20.57 -58.82,31.27 l 17.44,-26.32 c 9.04,-17.72 3.22,8.92 9.78,-28.82 -13.6,5.58 -17.91,1.21 -36.48,27.31 -0.95,1.35 -2.09,3.47 -2.92,4.82 -3.73,6.07 -3.39,3.33 -7.47,15.55 l -53.86,43.85 c 0.11,-28.93 2.74,-33.26 21.96,-51.76 l 92.16,-129.63 c 21.21,-25.21 2.73,17.17 18.17,-21.41 h 23.64 v 23.8 l 39.44,-15.81 c -23.34,-7.74 -12.13,13.72 -13.71,-22.57 -2.98,-68.8 -2.11,-21.74 13.68,-41.01 69.23,23.52 11.94,91.62 -16.56,127.19 -19.76,24.67 -0.02,2.16 -17.52,21.84 -20.77,23.36 -20.6,12.79 -28.93,41.7 z m 0,0 c 24.3,-0.36 25.35,-1.33 56.61,-38.27 l 37.63,-49.48 c 17.9,-30.03 39.6,-73.28 7.67,-110.62 -18.45,-21.59 -51.04,-22.35 -76.62,-15.3 l -81.89,45.33 c -1.17,1.14 -2.7,2.91 -3.82,4.1 -43.65,46.46 -84.53,110.03 -110.58,166.64 -21.54,46.83 -62.72,108.07 -49.7,164.45 50.89,0 50.63,-2.92 89.06,-29.39 l 30.56,-24.81 c 1.22,-1.09 2.95,-2.67 4.17,-3.74 l 29.99,-25.4 c 60.22,-54.13 66.33,-43.75 66.92,-83.51 z"
   id="path37" />
    <path
   class="fil2"
   d="m 4526.55,3418.75 c 2.46,9.77 14.96,-23.46 -1.45,20.32 l -11.86,24.21 25.13,7.71 c 21.66,-4.06 34.29,-1.68 49.59,-9.48 6.36,-3.25 31.55,-27.55 36.96,-33.44 25.43,-27.66 31.8,-56.82 74.16,-51.17 47.14,5.35 59.5,12.85 112.73,7.74 -4.96,-10.57 -6.58,-14.17 -11.06,-27.47 -32.54,-17.45 -19.02,-6.59 -20.03,-31.25 l 64,-2.45 c -1.31,-2.07 -3.1,-4.77 -4.02,-6.15 l -20.39,-25.33 c -1.01,-0.62 -3.1,-1.78 -4.28,-2.38 -39,-19.7 -39.34,2.48 -40.69,-32.96 29.65,-10.1 39.16,2.97 70.04,-11.99 31.36,-15.19 -30.52,-17.3 54.7,-7.19 -41.03,-46.45 -139.01,-36.58 -216.8,-29.87 -28.09,56.02 -47.34,40.36 -79.72,104.98 -11.91,23.77 -21.37,39.13 -36.33,58.05 -15.07,19.07 -30.5,31.78 -40.68,48.12 z"
   id="path39" />
    <path
   class="fil1"
   d="m 5778.64,1579.77 c -17.83,33.16 33.5,85.13 75.54,98.81 68.16,22.17 150.59,-8.39 179.26,-40.57 18.93,-21.23 13.18,-14.26 13.18,-50.3 l -84.29,-42.15 c -17.69,-10.45 -21.69,-13.37 -39.11,-24.35 -43.12,-27.17 -19.1,-22.14 -49.97,-15.03 -45.9,-18.68 -57.15,-47.07 -112.05,-55.72 -8.55,50.87 5.92,77.93 17.44,129.31 z"
   id="path41" />
    <path
   class="fil15"
   d="m 3179.44,2668.51 37.2,-7.05 c 1.33,-2.47 4.66,0.46 6.96,0.87 l -7.43,39.98 c -0.36,-1.16 -1.87,4.66 -2.49,7.08 41.99,-15.55 12.19,-31.09 61.64,-12.19 3.93,36.17 -33.34,84.3 -51.83,113.04 -20.88,32.47 -38.61,80.13 -93.69,70.83 l 15.81,45.79 c 18.93,-7.33 19.52,-7.18 34.78,-18.26 16.49,-11.97 2.55,1.75 19.88,-19.41 13.19,-16.1 26.18,-32.64 39.2,-49.67 16.04,-16.48 40.87,-56.85 47.79,-77.75 48.81,-147.53 -7.03,-97.37 -25.46,-142.24 40.81,-5.67 74.04,1.2 85.14,37.69 10.56,34.7 -10.17,52.8 -15.46,63.92 -13.26,27.85 -6.28,37.24 -19.2,59.25 l -68.94,94.93 c -20.98,33.29 -99.47,113.18 -119.73,63.48 -15.72,-11.34 5.24,0.78 -17.7,-11.69 -20.34,-11.07 5.16,-8.13 -11.88,-4.29 3.8,-43.33 17.65,-81.47 15.4,-121.1 l -17.14,26.39 c -10.09,34.53 -7.92,109.21 -2.19,142.9 94.62,8.03 116.78,-15.5 168.88,-69.8 44.82,-46.72 198.78,-271.44 80.63,-315.95 -56.02,-21.11 -142.71,36.04 -160.17,83.25 z"
   id="path43" />
    <path
   class="fil12"
   d="m 3876.37,3499.53 c 33.49,21.36 14.32,22.82 22.4,67.06 6.84,2.19 22.36,6.13 26.25,7.94 29.09,13.57 12.78,4.04 25.33,20.97 l 10.97,-1.54 c 10.37,-2.15 22.85,-6.4 24.46,-7.58 20.08,-14.76 -10.98,7.16 11.02,-11.34 13.59,-11.43 -12.2,-4.5 17.67,-12.58 63.19,-3.27 -17.18,-146.37 -29.02,-165.78 -16.09,-26.38 -33.03,-42.96 -51.08,-68.08 -15.14,-21.05 -8.7,-17.8 -28.6,-36.15 -25.59,-23.59 -31.92,-19.28 -37.16,6.29 -5.17,25.28 -11.16,193.62 7.76,200.79 z"
   id="path45" />
    <path
   class="fil5"
   d="m 4667.55,3420.75 c -33.29,25.14 -80.61,61.91 -67.63,126.47 4.38,21.8 21.12,54.85 32.49,70.29 17.83,24.18 37.24,37.93 66.59,48.28 -13.22,-28.44 2.62,-9.98 36.74,-25.9 12.99,-61.03 1.05,-11.92 -3.36,-40.61 -4.33,-28.09 -6.44,-17.71 5.24,-32.69 18.41,-49.42 24.48,-46.32 54.36,-73.48 38.12,-34.65 19.25,-68.97 -30.82,-79.38 -37.38,-7.77 -60.24,2.29 -93.61,7.02 z"
   id="path47" />
    <path
   class="fil15"
   d="m 3493.44,3514.05 c 38.64,3.41 66.44,-16.69 113.16,-15.6 90.91,2.12 48.78,-4.26 91.96,-32.11 -8.45,-11.62 -1.41,-4.61 -12.95,-13.74 -18.15,-14.35 -155.28,-86.37 -221.03,-140.32 1.65,-34.49 14.64,-35.31 0.54,-73.42 -3.04,-8.25 -13.72,-24.92 -19,-30.18 -17.02,-16.94 -14.63,-12.38 -33.01,-20.24 10.09,40.12 44.22,22.88 29.01,115.89 -2.11,1.03 -5.28,-0.19 -6.56,2.57 l -36.63,9.18 c -102.34,12.96 -113.56,-86.22 -130.31,-111.61 -0.87,-1.33 -2.34,-3.13 -3.27,-4.46 l -17,-24.54 c -21.54,-42.24 0.25,-40.69 0.26,-40.67 l 27.01,-3.8 c 1.25,0.09 30.14,7.28 33.49,8.37 24.04,7.82 46.19,19.22 68.4,24.51 -14.3,-27.59 -3.5,-14.42 -36.51,-32.75 -35.54,-19.74 -96.64,-52.07 -136.55,-45.81 -2.97,40.25 2.22,42.45 12.99,69.61 24.91,62.86 81.49,184.41 156.95,185.7 103.44,1.77 10.39,-43.78 156.72,52.79 38.04,25.1 124.42,64.99 133.79,85.75 -47.71,18.97 -129.9,-9.52 -171.46,34.88 z"
   id="path49" />
    <path
   class="fil12"
   d="m 5518.58,3070.55 c -16.58,38.16 -16.12,32.11 -4.09,47.27 20.32,25.57 15.06,11.12 19.21,47.87 4.1,20.93 53.56,104.35 95.25,109.43 23.09,-30.17 22.81,-71.8 22.09,-113.9 -0.83,-49.62 -5.8,-75.55 -24.6,-110.79 -18.5,-10.12 -19.77,-12.35 -37.19,-22.92 -29.53,-17.92 -14.09,-1.71 -27.78,-24.45 l -31.04,6.79 c -4.44,27.83 -19.5,40.14 -11.85,60.7 z"
   id="path51" />
    <path
   class="fil16"
   d="m 3413.11,3188.44 c -6.51,-18.64 -16.21,-23.63 -35.6,-24.56 -22.21,-5.29 -44.36,-16.69 -68.4,-24.51 -3.35,-1.09 -32.24,-8.28 -33.49,-8.37 l -27.01,3.8 c -0.01,-0.02 -21.8,-1.57 -0.26,40.67 l 17,24.54 c 0.93,1.33 2.4,3.13 3.27,4.46 16.75,25.39 27.97,124.57 130.31,111.61 l 36.63,-9.18 c 1.28,-2.76 4.45,-1.54 6.56,-2.57 15.21,-93.01 -18.92,-75.77 -29.01,-115.89 z"
   id="path53" />
    <path
   class="fil12"
   d="m 5285.22,3333.27 19.83,2.81 c -8.06,9.46 -16.12,-5.22 -6.76,17.58 8.01,19.52 -7.25,9.06 23.32,14.21 11.26,-16.95 -5.01,-20.7 7.46,-35.61 17.39,-20.79 23.06,-10.06 44.44,-5.14 -10.2,33 -38.72,101.13 -77.35,105.55 l -3.19,-61.04 c -36.01,-1.98 -27.83,6.19 -37.02,-25.53 l -14.75,2.46 c -23.07,12.53 -34.78,42 -52.1,68.03 -16.93,25.45 -21.45,69.37 -12.65,106.44 78.24,10.77 199.12,-81.95 204.23,-132.33 -0.56,-34.05 0.48,-42.73 -6.38,-78.91 -29.26,3.08 -71.43,1.39 -89.08,21.48 z"
   id="path55" />
    <path
   class="fil17"
   d="m 3339.95,3860.06 v 21.09 c -0.7,0.3 7.31,21.06 -25.28,3.82 -17.56,-9.29 -6.9,-8.18 -9.58,-27.82 z m 0,0 c -9.61,-21.69 7.33,-11.33 -21.13,-15.7 -18.9,-2.9 -18.06,1.21 -23.76,6.98 -18.59,18.87 10.24,54.72 49.49,63.76 16.87,3.89 13.68,-2.32 36.9,11.93 l 11.41,8.46 c 1.54,1.12 3.75,3.3 5.84,4.63 l 61,10.75 c 1.57,0.96 3.85,3.22 5.09,4.07 1.24,0.86 3.18,3 4.84,4.43 59.36,34.08 12.73,24.63 94.61,35.41 -16.04,-19.28 -6.68,-7.63 -36.9,-17.99 l -61.98,-32.32 c -1.92,-1.33 -7.46,-5.27 -9.07,-6.76 -12.75,-11.75 -2.04,7.05 -10.26,-13.49 24.53,11.87 68.98,8.16 104.76,21.52 l 107.9,34.11 c -27.38,-37.59 -45.19,-14.61 -95.57,-48.98 42.32,1.26 140.02,35.92 166.81,25.14 -7.3,-26.49 14.73,-6.46 -21.74,-26.89 -8.42,-4.71 -22.22,-8.2 -33.65,-13.16 l -181.23,-86.59 c 8.75,19.6 4.11,16.4 40.8,37.99 l 57.64,29.11 c 25.89,11.71 18.53,-6.72 27.65,27.75 -16.74,-8.1 -47.49,-10.76 -69.84,-16.98 -47.91,-13.34 -45.29,4.5 -139.63,-34.06 -32.05,-13.09 -34.23,-22.37 -69.98,-13.12 z"
   id="path57" />
    <path
   class="fil18"
   d="m 4837.07,3956.05 c 44.15,19.09 48.88,-6.87 98.39,-7.99 -20.51,28.23 -66.44,36.05 -110.33,39.74 z m 0,0 c -24.6,5.6 -43.71,11.94 -63.09,16.93 l -66.02,22.77 c 13.39,11.22 5.35,10.15 30,14.72 29.81,5.53 53.93,-16.17 85.55,1.17 30.27,0 92.83,-6.64 111.95,-15.89 -12.31,30.76 4,4.56 -22.85,16.17 -16.17,7.01 0.61,-5.52 -18.19,7.11 -19.81,13.29 3.27,-9.35 -14.13,15.35 111.39,-37.97 83.99,43.06 174.78,9.88 56.07,-20.49 44.86,-8.89 56.48,-0.83 -5.01,79.92 -136.11,50.01 -180.09,95.37 32.06,0 45.06,-2.47 71.43,-11.51 58.9,-20.22 110.54,-28.98 129.59,-67.96 l 6.93,-16.85 c 0.61,-1.25 7.74,-13.31 8.82,-14.94 -54.84,-14.77 -1.02,-13.81 -70.92,-7.95 -7.28,-27.48 -4.28,-24.45 -31.53,-31.79 l -25.32,22.14 c 7.78,10.09 4,6.02 13.74,13.39 l 19.47,12.15 c -43.48,0.98 -23.88,11.22 -58.67,-3.81 -35.72,-15.43 -20.82,-19.67 -51.66,-27.97 v -15.9 c 26.48,-2.22 62.18,-13.11 81.73,-28.45 9.17,-7.22 0.99,1.02 9.22,-8.1 14.24,-15.83 -1.02,9.32 11.49,-18.18 l -63.04,28.91 c -10.4,-12.89 -6.43,7.19 -15.76,-31.29 -41.67,-5.26 -90.32,13.21 -129.91,25.36 z"
   id="path59" />
    <path
   class="fil19"
   d="m 5431.93,3828.82 c -17.28,-1.61 2.17,-5.08 -28.57,2.71 -11.72,2.97 -26.71,10.06 -34.46,13.17 -75.38,30.22 -57.5,1.04 -60.77,31.84 -9.69,13.17 1.87,6.63 -22.91,19.94 l -92.94,43.57 18.57,31.86 c -16.22,14.55 -13.5,7.24 -17.96,32.54 44.99,-0.89 40.89,-10.49 81.43,-24.56 39.51,13.36 86.69,-12.57 86.69,-87.46 26.13,0 81.8,-4.04 78.84,-31.79 25.74,-34.41 56.29,-26.62 81.74,-87.27 -64.35,8.96 -34.89,36.07 -89.66,55.45 z"
   id="path61" />
    <path
   class="fil20"
   d="m 2900.26,3614.28 c -2.48,25.11 -15.78,2.44 38.01,59.04 l 123.11,130.47 c 29.98,31.85 0.83,18.21 30.02,21.1 33.76,15.64 27.07,23.56 67.8,32.35 -9.98,-34.84 5.55,-13.29 -22.94,-34.87 -34.52,-26.14 -15.18,5.8 -27.23,-40.6 l 65.06,15.07 c -17.38,-28.6 -23.23,-19.81 -37.67,-47.46 -26.6,-49.7 -71.17,-33.93 -108.92,-63.07 -27.35,-21.11 -7.29,-21.97 -38.54,-18 -19.95,-14.88 -38.68,-34.27 -54.2,-54.03 4.51,-21.41 7.29,-5.22 -3.49,-21.85 -17.64,-27.2 -6.75,-9.27 -21.12,-11.9 -19.04,-2.25 -10.42,-3.76 -20.12,2.25 z"
   id="path63" />
    <path
   class="fil21"
   d="m 7638.13,1110.88 c -21.09,1.8 -21.14,3.74 -39.04,7.95 35.98,-54.19 64.44,-27.88 78.81,-73.71 -30,12.23 -52.08,42.85 -128.03,80.1 -46.5,22.82 -85.7,45.97 -135.97,68.53 -44.68,20.05 -95.65,45.45 -136.93,69.23 -52.69,30.35 -93.55,34.53 -121.81,88.3 72,2.77 184.66,-84.34 247.91,-111.86 92.37,-40.2 34.04,-6.2 119.02,-63.26 38.46,-25.82 85.79,-34.84 116.04,-65.28 z"
   id="path65" />
    <path
   class="fil22"
   d="m 4863.91,2954.65 c 30.44,71.49 285.23,59.08 349.95,57.91 -13.56,-32.17 2.54,-7.81 -26.49,-27.18 -71.02,-47.39 -257.94,-71.78 -323.46,-30.73 z"
   id="path67" />
    <path
   class="fil23"
   d="m 2657.97,1428.73 -2,7.99 -20.21,66.87 c 26.75,-9.32 22.57,-14.11 39.03,-22.48 -0.49,40.84 -12.82,67.14 -16.77,117.84 -4.83,-0.05 -21.62,-2.03 -23.78,-1.87 -2.33,0.18 -4.86,0.2 -7.26,0.53 -2.28,0.3 -4.69,0.97 -6.77,1.38 -2.01,0.4 -4.76,1.71 -6.37,2.12 -1.59,0.4 -4.29,1.32 -6.17,2.5 4.72,29.78 4.95,33.97 28.5,47.73 36.66,21.39 11.97,13.71 51.36,12.76 -0.29,-66.64 -45.64,-125.42 39.42,-253 19.57,-29.35 26.23,-16.98 42.72,-52.73 4.11,1.9 11.28,6.92 12.83,7.61 6.48,2.91 2.89,3.38 20.52,6.21 10.7,-21.23 20.04,-29.2 43.62,-38.83 -13.71,-40.84 -20.1,-25.85 -46.82,-47.35 -30.89,19.32 -89.29,76.81 -105.27,106.16 -15.94,29.28 -6.28,22.57 -36.58,36.56 z"
   id="path69" />
    <path
   class="fil24"
   d="m 4801.52,3525.66 c -7.03,28.67 -45.29,64.5 -68.5,75.16 l 4.6,-34.23 c -11.68,14.98 -9.57,4.6 -5.24,32.69 4.41,28.69 16.35,-20.42 3.36,40.61 -34.12,15.92 -49.96,-2.54 -36.74,25.9 l 4.06,27.96 c 29.79,14.21 42.05,26.34 79.39,33.43 2.07,-1.37 5.16,-5.58 6.49,-3.64 l 28.07,-10.18 c 9.68,-2.19 25.22,-2.11 30.72,-3.72 -18.25,-51.76 -41.81,-20.09 -48.15,-18.14 -21.9,6.73 11.88,14.23 -29.62,3.58 -0.64,-1.37 -0.09,-5.63 -0.12,-4.55 l -0.33,-7.96 c -5.27,-27.45 -15.05,0.28 -23.67,-28.56 46.39,-21.79 45.59,-1.87 99.71,-17.78 9.32,30.32 1.86,38.58 44.66,28.17 -27.07,-57.25 -47.87,-26.49 -54.3,-156.44 l -20.61,10.25 c -1.83,0.93 -11.48,6.16 -13.78,7.45 z"
   id="path71" />
    <path
   class="fil25"
   d="m 2882.81,1368.01 0.53,69.07 c 0.53,41.36 -3.49,43.02 -15.97,75.2 -23.63,60.96 23.55,-7.51 -12.35,67.49 52.26,-12.5 67.5,-50 94.99,-134.69 12.61,-38.86 6.65,-100.39 -12.85,-138.33 -14.88,-28.91 -10.22,-18.87 -34.85,-28.97 29.09,47.5 30.39,23.06 31.44,87.37 -38.18,-23.16 -1.48,4.13 -19.4,-17.13 -30.89,-36.65 -0.52,-20.93 -51.45,-46.13 0.8,52.86 -4.69,29.67 19.91,66.12 z"
   id="path73" />
    <path
   class="fil25"
   d="m 5552.43,2170.82 c -20.9,18.47 -31.19,9.06 -75.08,33.81 -18.62,10.49 -37.7,18.83 -37.54,49.08 l 39.04,-1.94 c 1.18,-6.32 0.5,-10.87 16.22,-19.33 14.07,-7.58 20.82,-7.04 39.31,-7.97 10.98,9.29 11.81,11.56 22.46,21.83 42.84,-12.38 54.19,-24.33 75.09,-60.35 9.31,-16.05 11.51,-20.54 27.73,-35.3 15.73,-14.3 22.15,-13.24 22.98,-39.93 l -30.05,-16.97 -23.65,33.26 -51.2,0.57 c -1.07,21.67 -1.18,49.75 -25.31,43.24 z"
   id="path75" />
    <path
   class="fil12"
   d="m 3109.43,2801.72 c 2.25,39.63 -11.6,77.77 -15.4,121.1 17.04,-3.84 -8.46,-6.78 11.88,4.29 22.94,12.47 1.98,0.35 17.7,11.69 l 22,-11.94 -15.81,-45.79 c 6.72,-26.36 26.77,-72.39 39,-94.5 8.93,-16.15 41.46,-62.11 44.88,-77.18 0.62,-2.42 2.13,-8.24 2.49,-7.08 l 7.43,-39.98 c -2.3,-0.41 -5.63,-3.34 -6.96,-0.87 l -37.2,7.05 c -20.01,22.02 -26.91,21.38 -43.8,51.88 -15.25,27.54 -29.45,49.05 -26.21,81.33 z"
   id="path77" />
    <path
   class="fil26"
   d="m 4557.19,4121.7 c 66.36,-12.95 106.31,-24.5 128.69,14.86 0.83,1.46 2.03,4.42 2.67,5.65 0.64,1.25 1.41,4.04 2.61,5.78 35.18,3.08 121.02,8.34 135.16,-37.73 13.78,-44.86 -24.09,11.52 3.07,-42.99 h -20.02 c 0,53.88 -4.22,67.26 -55.17,71.53 0,-32.3 2.63,-25.59 -7.88,-47.68 -43.21,0.97 -30.86,11.22 -61.74,13.73 -14.67,1.19 -24.5,-5.07 -56.47,-5.79 27.04,-18.94 39.23,-7.11 47.29,-53.73 -39.1,18.62 -12.66,25.99 -71.69,36.07 -25.96,4.45 -57.24,5.52 -85.92,5.79 -33.86,-37.38 -2.49,-14.99 -94.57,-39.96 10.87,21.32 -1.47,13.98 23.64,20.04 -21.71,15.22 -21.7,13.9 -23.64,31.79 29.98,7.05 76.93,0 126.09,0 4.35,5.27 6.61,19.05 7.88,22.64 z"
   id="path79" />
    <path
   class="fil27"
   d="m 5468.1,2879.43 c 109.39,-22.46 25.24,-1.63 92.68,-31.21 1.41,68.56 -20.4,101.06 -30.35,161.63 l 31.04,-6.79 c 13.69,22.74 -1.75,6.53 27.78,24.45 17.42,10.57 18.69,12.8 37.19,22.92 -15.62,-32.04 -25.36,-35.06 -55.94,-44.12 4.35,-41.46 15.12,-62.11 21.83,-93.36 23.56,-109.79 18.44,-217.23 28.28,-307.04 22.93,15.15 34.58,29.91 64.71,42.38 -15.59,-26.24 -43.43,-49.98 -72.13,-57.4 -10.37,18.85 -9.45,30.48 -9.2,53.64 0.23,20.87 0.81,34.47 -0.57,55.82 -2.43,37.59 -2.16,84.08 -6.04,110.91 -10.19,21.46 -101.67,29.46 -129.28,68.17 z"
   id="path81" />
    <path
   class="fil28"
   d="m 5241.2,3348.56 14.75,-2.46 29.27,-12.83 c 17.65,-20.09 59.82,-18.4 89.08,-21.48 6.86,36.18 5.82,44.86 6.38,78.91 30.15,-19.32 11.75,-29.16 16.01,-90.77 44.64,-31.63 103.28,-147.33 115.63,-160.07 l 21.38,25.83 c -4.15,-36.75 1.11,-22.3 -19.21,-47.87 -12.03,-15.16 -12.49,-9.11 4.09,-47.27 -24.09,14.01 -9.61,2.43 -22.88,20.02 l -89.08,148.56 c -76.74,108.03 -72.42,29.93 -143.83,85.2 -1.9,1.47 -7.28,6.06 -9,7.82 -13.5,13.75 -0.42,-3.2 -12.59,16.41 z"
   id="path83" />
    <path
   class="fil25"
   d="m 2784.06,1635.44 c -49.63,21.44 -110.47,66.9 -147.89,15.9 -23.55,-13.76 -23.78,-17.95 -28.5,-47.73 1.88,-1.18 4.58,-2.1 6.17,-2.5 1.61,-0.41 4.36,-1.72 6.37,-2.12 2.08,-0.41 4.49,-1.08 6.77,-1.38 2.4,-0.33 4.93,-0.35 7.26,-0.53 2.16,-0.16 18.95,1.82 23.78,1.87 3.95,-50.7 16.28,-77 16.77,-117.84 -16.46,8.37 -12.28,13.16 -39.03,22.48 l 20.21,-66.87 c -2.13,1.05 -5.2,0.52 -6.07,3.75 -0.85,3.12 -4.52,2.87 -5.61,4.02 -19.68,20.92 -81.21,152.44 -40.99,206.28 22.73,30.42 20.32,10.44 31.03,40.26 149.01,0 87.84,-26.6 149.73,-31.79 z"
   id="path85" />
    <path
   class="fil29"
   d="m 4667.55,3420.75 c 33.37,-4.73 56.23,-14.79 93.61,-7.02 50.07,10.41 68.94,44.73 30.82,79.38 -29.88,27.16 -35.95,24.06 -54.36,73.48 l -4.6,34.23 c 23.21,-10.66 61.47,-46.49 68.5,-75.16 0,-40.57 32.23,-15.26 61.29,-46.49 2.65,-29.82 9.47,-0.25 -9.33,-36.39 -32.68,-26.38 -17.65,-41.14 -41.67,-58.14 -53.23,5.11 -65.59,-2.39 -112.73,-7.74 20.6,24.06 -16.98,0.06 15.94,16.72 32.58,16.47 6.74,5.41 15.58,-1.82 -73.69,7.81 -56.8,17.42 -63.05,28.95 z"
   id="path87" />
    <path
   class="fil30"
   d="m 4801.52,3525.66 c 2.3,-1.29 11.95,-6.52 13.78,-7.45 l 20.61,-10.25 c 6.43,129.95 27.23,99.19 54.3,156.44 l 19.41,-7.23 c -21.66,-51.86 -41.71,-108.01 -42.07,-175.17 39.77,1.84 58.15,11.75 91.8,13.25 10.55,0.47 34.21,-0.28 44.1,-2.79 44.07,-11.17 14.93,6.54 28.52,-21.24 -49.18,-32.12 -88.32,8.51 -178.49,-28.44 18.8,36.14 11.98,6.57 9.33,36.39 -29.06,31.23 -61.29,5.92 -61.29,46.49 z"
   id="path89" />
    <path
   class="fil31"
   d="m 3213.68,2709.39 c -3.42,15.07 -35.95,61.03 -44.88,77.18 -12.23,22.11 -32.28,68.14 -39,94.5 55.08,9.3 72.81,-38.36 93.69,-70.83 18.49,-28.74 55.76,-76.87 51.83,-113.04 -49.45,-18.9 -19.65,-3.36 -61.64,12.19 z"
   id="path91" />
    <path
   class="fil32"
   d="m 5431.93,3828.82 c 54.77,-19.38 25.31,-46.49 89.66,-55.45 -25.45,60.65 -56,52.86 -81.74,87.27 22.52,0 26.73,-4.25 41.57,-14.25 l 30.81,-23.97 c 28.93,-23.96 57.66,-74.7 121.66,-123.68 6.28,-4.81 15.14,-10.39 18.56,-13.08 16.65,-13.06 13.85,-17.19 31.66,-23.7 -23.97,-36.1 -33.31,-21.91 -63.17,-0.19 -10.66,7.76 -20.99,15.51 -30.79,24.65 l -60.3,50.45 c -44.39,27.69 -74.05,61.72 -97.92,68.14 z"
   id="path93" />
    <path
   class="fil10"
   d="m 3751.12,2835.16 c -35.62,15.48 -51.15,25.73 -85.54,10.84 -1.83,-0.81 -3.66,-2.03 -5.45,-2.88 -50.51,-24.25 -35.95,-28.57 -87.97,-25.07 17.24,88.93 -33.83,59.84 -25.92,186.96 l 37.71,3.57 c 9.54,-213.99 104.37,-101.23 167.17,-173.42 z"
   id="path95" />
    <path
   class="fil33"
   d="m 4233.28,3189.51 c 23.02,-0.45 9.54,-10.48 17.88,11.28 23.13,2.31 25.52,3.12 40.31,30.89 29.84,56.04 40.15,118.58 34.48,181.61 -42.22,-1.27 -27.31,-2.29 -62.19,-17.32 4.17,15.5 6.38,22.89 12.54,34.41 20.68,38.63 49.71,41.18 83.84,32.86 19.51,-61.46 -5.54,-125.41 -27.06,-180.06 -2.87,-7.3 -75.1,-158.37 -99.8,-93.67 z"
   id="path97" />
    <path
   class="fil34"
   d="m 5548.1,2076.04 c -4.11,19.42 -4.02,31.14 -18.28,40.82 -16.98,11.54 -12.71,5.88 -38.37,5.13 -9.67,-10.86 -2.24,-10.16 -6.96,-25.61 l -36.03,17.58 c -1.35,0.98 -3.45,3.02 -5.18,4.52 l 22.32,-0.14 c -2.52,34.08 -4.02,16.78 5.74,32.35 41.91,-11.42 7.47,-23.31 68.84,-27.44 l -15.65,33.35 -3.43,22.74 31.33,-8.52 c 24.13,6.51 24.24,-21.57 25.31,-43.24 l 51.2,-0.57 23.65,-33.26 30.05,16.97 -2.77,-24.63 c -37.38,-12.69 -16.79,-17.7 -66.5,-19.93 -23.69,-1.06 -52.71,-2.09 -65.27,9.88 z"
   id="path99" />
    <path
   class="fil35"
   d="m 2405.79,1190.31 c -19.87,5.23 -41.4,44.19 -49.89,61.29 -9.68,19.52 -10.49,2.69 -5.31,26.18 -6.56,37.74 -0.74,11.1 -9.78,28.82 l -17.44,26.32 c 54.78,-10.7 14.8,-10.76 58.82,-31.27 8.33,-28.91 8.16,-18.34 28.93,-41.7 17.5,-19.68 -2.24,2.83 17.52,-21.84 28.5,-35.57 85.79,-103.67 16.56,-127.19 -15.79,19.27 -16.66,-27.79 -13.68,41.01 1.58,36.29 -9.63,14.83 13.71,22.57 z"
   id="path101" />
    <path
   class="fil36"
   d="m 3239.47,2839.52 c -12.18,48.33 -8.17,23.75 3.87,35.8 l 68.94,-94.93 c 12.92,-22.01 5.94,-31.4 19.2,-59.25 5.29,-11.12 26.02,-29.22 15.46,-63.92 -11.1,-36.49 -44.33,-43.36 -85.14,-37.69 18.43,44.87 74.27,-5.29 25.46,142.24 -6.92,20.9 -31.75,61.27 -47.79,77.75 z"
   id="path103" />
    <path
   class="fil37"
   d="m 5358.76,2192.59 16.07,-3.97 c -0.69,30.53 -18.42,49.87 7.45,74.58 -6.35,-43.26 -6.32,-31.21 7.83,-71.49 l 34.82,-20.3 -15.12,52.08 16.7,32.01 -9.47,20.32 c 35.66,0.56 24.72,4.7 12.73,29.44 l 22.96,-5.54 c 25.98,-23.67 15.78,-13.6 26.12,-47.95 l -39.04,1.94 c -0.16,-30.25 18.92,-38.59 37.54,-49.08 43.89,-24.75 54.18,-15.34 75.08,-33.81 l -31.33,8.52 3.43,-22.74 -76.84,37.92 c -1.39,-1.88 -2.8,-4.53 -3.61,-6 l -6.48,-11.65 c -0.85,-1.75 -1.77,-3.91 -2.54,-5.7 -6.9,-16.04 -9.28,-20.77 -3.16,-41.75 -2.12,1.19 -5.13,0.7 -6.18,3.86 l -34.93,24.46 c -20.8,14.69 -22.02,12.99 -32.03,34.85 z"
   id="path105" />
    <path
   class="fil38"
   d="m 3729.73,3979.89 c 0.48,1.16 3.3,18.28 7.88,23.81 66.38,1.48 68.94,24.44 140.31,5.92 22.88,-5.93 41.13,-4.5 70.58,3.86 37.92,10.77 22.06,14.06 80.65,14.06 -26.59,-29.4 25.03,7.95 -17.21,-15.01 -1.71,-0.93 -14.6,-5 -20.14,-6.24 l -167.71,-38.69 c -50.38,-4.71 -43.28,-1.31 -55.72,10.23 z"
   id="path107" />
    <path
   class="fil39"
   d="m 2587.05,2529.71 c 5.91,10.5 1.24,11.62 7.88,19.63 l 63.04,15.9 c -35.9,0.8 -39.72,9.47 -64.78,14.14 -40.02,7.45 -41.3,-3.22 -61.31,26.56 72.35,-22.21 275.92,-54.39 302.1,-88.39 -13.01,0 -10.52,3.73 -10.52,-7.95 l 7.88,-18.62 c -48.92,21.6 -52.76,30.59 -117.4,38.88 -62.33,8 -64,19.98 -126.89,-0.15 z"
   id="path109" />
    <path
   class="fil40"
   d="m 4800.75,3357.17 c -0.28,-40.9 -1.84,-12.79 8.62,-23.19 l 114.2,11.43 c -6.75,-33.53 -16.21,-29.01 -51.16,-37.38 l -6.49,-18.95 c -0.68,-1.44 -2.01,-3.95 -2.7,-5.34 -0.74,-1.46 -2.52,-4.23 -3.18,-5.45 -6.34,-11.81 -37.9,-10.24 -50.73,-11.99 l 111.55,-14.73 c -8.4,-19.43 5.93,-12.85 -20.78,-14.1 -85.22,-10.11 -23.34,-8 -54.7,7.19 -30.88,14.96 -40.39,1.89 -70.04,11.99 1.35,35.44 1.69,13.26 40.69,32.96 1.18,0.6 3.27,1.76 4.28,2.38 l 20.39,25.33 c 0.92,1.38 2.71,4.08 4.02,6.15 l -64,2.45 c 1.01,24.66 -12.51,13.8 20.03,31.25 z"
   id="path111" />
    <path
   class="fil17"
   d="m 5903.03,1365.19 c -30.39,-43.01 -74.1,-18.22 -114.25,-63.57 6.46,-10.35 -2.55,-11.62 37.46,-23.56 16.48,-4.92 32.27,-9.41 47.45,-13.96 38.5,-11.56 66.04,-14.88 101.53,-24.72 28.35,-7.87 63.1,-20.45 96.6,-30.46 63.68,-19.02 73.15,-9.6 99.1,-34.46 -66.88,0 -170.44,44.57 -212.67,53.93 -94.58,20.96 -156.37,46.33 -203.21,57.33 v 23.84 z"
   id="path113" />
    <path
   class="fil41"
   d="m 3039,3528.11 c 48.14,13.37 18.83,-2.49 32.31,22.59 -0.94,0.5 -6.38,34.5 -29.63,-12.1 -1.43,-2.84 -0.92,-7.35 -2.68,-10.49 z m 126.75,102.1 -19,-55.72 -65.55,-53.59 c -67.47,-46.8 -15.82,-19.84 -100.12,-39.84 10.89,22.69 -3.15,4.41 11.35,17.82 22.28,20.59 19.91,-3.75 36.04,35.84 8.99,22.09 6.24,42.3 55.05,31.87 4.83,20.9 7.16,23.36 15.76,39.74 21.28,-1.78 21.44,-3.72 39.41,-7.95 1.67,19.83 -4.79,13.53 6.13,25.69 12.91,14.36 3.41,7.61 20.93,6.14 z"
   id="path115" />
    <path
   class="fil42"
   d="m 5928.45,2255.29 c 30.19,-12.75 12.95,-3.16 15.18,-88.15 1.47,-55.8 14.31,-30.98 47.83,-23.11 0,60.69 7.95,88.6 7.88,151 -0.08,66.55 -7.88,99.54 -7.88,163.94 1.76,-1.55 4.38,-6.3 4.98,-5 0.56,1.25 3.7,-3.62 4.39,-5.07 21.47,-45.78 13.25,-285.92 0.6,-308.04 -17.05,-14.39 -31.43,-20.91 -62.27,-16.58 -13.66,40.3 -10.63,88.29 -10.71,131.01 z"
   id="path117" />
    <path
   class="fil43"
   d="m 2657.97,2032.81 c 0,45.66 3.11,15.07 14.36,25.37 l 82.1,44.22 c 2.3,0.97 9.37,3.26 11.7,4.23 35.41,14.68 33.05,23.36 61.13,1.83 55.52,-42.58 -6.3,-153.38 -19.56,-210.8 h -23.6 c 16.51,38.9 59.91,117.14 48.78,167.04 -11.73,52.61 23.56,-13.21 -10.07,15.71 l -9.01,9.44 c -38.13,20.61 -89.34,-20.8 -155.83,-57.04 z"
   id="path119" />
    <path
   class="fil44"
   d="m 2744.66,3479.22 c 12.63,31.29 33.56,52.45 70.92,55.58 5.43,-20.65 -2.92,-8.86 15.76,-15.89 42.35,63.77 46.46,58.16 47.29,95.37 h 21.63 l -10.23,-31.5 c 9.7,-6.01 1.08,-4.5 20.12,-2.25 0,-28.71 -31.21,-52.05 -49.54,-67.29 -68.85,-57.22 -5.16,-38.02 -59.25,-57.91 21.31,14.97 15.7,4.19 19.35,31.79 -12.54,5.47 -4.92,12.8 -28.71,0.77 -1.95,-0.99 -15.32,-14.14 -17.37,-15.79 14.59,35.54 4.27,28.14 1.55,33.54 -14.4,-15.84 -9.47,-11.98 -31.52,-26.42 z"
   id="path121" />
    <path
   class="fil28"
   d="m 3793.62,3505.66 c -9.61,48.36 -2.87,5.42 -13.76,32.27 -8.16,20.12 -6.98,23.12 -7.06,43.67 31.7,-13.11 0.04,7.85 14.36,-10.81 5.03,-6.55 1.35,-2.19 6.89,-11.31 1.12,-1.84 2.44,-4.85 3.34,-6.45 0.92,-1.64 1.88,-4.66 3.26,-6.74 60.56,14.15 86.72,41.5 149.7,49.21 -12.55,-16.93 3.76,-7.4 -25.33,-20.97 -3.89,-1.81 -19.41,-5.75 -26.25,-7.94 -8.08,-44.24 11.09,-45.7 -22.4,-67.06 l 5.58,36.5 c -44.28,-8.07 -55.4,-24.04 -88.33,-30.37 z"
   id="path123" />
    <path
   class="fil45"
   d="m 5424.67,3717.59 c 48.99,2.97 24.14,10.85 70.31,0 -11.8,-56.17 -0.9,-24.47 11.25,-59.47 16.06,-46.25 -20.11,-0.1 6.56,-33.65 l 29.47,-32.73 c -46.74,18.65 -80.13,52.63 -110.38,78.28 z"
   id="path125" />
    <path
   class="fil46"
   d="m 6283.07,1921.5 c 38.98,-16.46 8.21,-14.75 44.92,-113.61 12.39,-33.36 -1.78,-21.07 32.98,-30.32 l 37.84,-17.47 c 1.96,-1.28 7.77,-4.79 9.65,-6.16 87.4,-63.99 -0.31,-12.61 94.37,-47.89 22.07,-8.22 17.84,-12.47 48.14,-15.02 4.97,-5.99 6.4,-19.34 7.88,-23.8 -39.12,14.16 -105.83,34.57 -128.57,53.41 -38.21,31.65 -63.78,38.08 -112.59,60.29 z"
   id="path127" />
    <path
   class="fil47"
   d="m 5255.95,3346.1 c 9.19,31.72 1.01,23.55 37.02,25.53 l 3.19,61.04 c 38.63,-4.42 67.15,-72.55 77.35,-105.55 -21.38,-4.92 -27.05,-15.65 -44.44,5.14 -12.47,14.91 3.8,18.66 -7.46,35.61 -30.57,-5.15 -15.31,5.31 -23.32,-14.21 -9.36,-22.8 -1.3,-8.12 6.76,-17.58 l -19.83,-2.81 z"
   id="path129" />
    <path
   class="fil25"
   d="m 5358.76,2192.59 -26.64,33.58 c -8.29,10.81 -1.51,-0.77 -9.21,13.23 25.55,37.92 2.32,39.75 77.5,80.66 l 29.36,-14.8 c 11.99,-24.74 22.93,-28.88 -12.73,-29.44 l -30.06,1.87 -4.7,-14.49 c -25.87,-24.71 -8.14,-44.05 -7.45,-74.58 z"
   id="path131" />
    <path
   class="fil48"
   d="m 4019.76,3043.62 c -38.77,0.56 -15.14,-0.97 -36.45,-9.09 -34.53,-13.14 -54.22,10.5 -71.19,-18.28 l -5.3,-59.43 c -8.46,22.08 -10.28,32.8 -4.35,60.62 4.17,19.55 11.04,29.4 19.83,44 19.85,32.95 -0.06,57.34 26.88,90.72 l 4.18,-70.44 c 35.48,-22.51 36.61,-0.14 66.4,-38.1 z"
   id="path133" />
    <path
   class="fil18"
   d="m 5274.32,3979.89 c -40.54,14.07 -36.44,23.67 -81.43,24.56 4.46,-25.3 1.74,-17.99 17.96,-32.54 l -18.57,-31.86 92.94,-43.57 c 24.78,-13.31 13.22,-6.77 22.91,-19.94 -37.3,2.79 -98.71,38.23 -129.41,62.54 -19.13,15.15 -20.1,10.43 -22.61,40.77 54.13,14.58 -4.43,22.94 41.96,37.44 15.95,4.98 41.58,-11.35 68.37,-13.59 4.97,-6 6.39,-19.35 7.88,-23.81 z"
   id="path135" />
    <path
   class="fil49"
   d="m 3350.16,3765.28 c -10.78,-45.01 -0.46,-7.34 -2.81,-44.51 -39.35,-30.04 -37.06,-33.27 -97.64,-39.05 -35.24,-3.37 -58.64,-34.1 -83.96,-51.51 4.85,24.37 -6.27,10.11 19.17,33.1 31.74,28.66 50.1,38.39 95.62,38.39 2.88,34.95 -0.08,20.77 24.91,38.35 20.88,14.71 13.98,17.44 44.71,25.23 z"
   id="path137" />
    <path
   class="fil50"
   d="m 2721.02,3455.37 c 26.25,4.83 13.96,-2.43 23.64,15.85 l 15.76,-31.78 c -24.82,-0.07 -19.55,-9.39 -23.61,-31.79 0,0 11.34,-8.65 -18.33,-28.83 -11.46,-7.81 -25.89,-13 -36.87,-18.86 -1.32,15.98 -17.53,51.23 17.53,86.2 25.05,25 3.24,8.74 21.88,9.21 z"
   id="path139" />
    <path
   class="fil17"
   d="m 5575.79,3574.54 c 23.88,-4.22 16.38,-2.87 37.4,-7.95 -47.32,99.45 53.66,44.23 55.16,-23.84 -19.25,-8.02 -6.36,-5.37 -31.52,0 4.96,-5.99 6.39,-19.34 7.88,-23.8 -28.94,10.82 -53.91,32.39 -68.92,55.59 z"
   id="path141" />
    <path
   class="fil46"
   d="m 5040.39,1842.03 c 39.14,0 59.92,-9.21 76.32,-31.79 -16.77,-23.08 1.1,-14.98 -39.4,-15.89 20.86,-28.73 2.7,-2.71 21.98,-17.58 l 17.42,-22.16 c -103.6,-50.13 3.19,24.38 -52.63,-31.75 -26.61,15.84 -9.19,-0.77 -15.69,29.41 l 37.9,7.41 c -20.65,21.69 -25.82,12.76 -43.81,34.67 13.21,18.36 9.37,15.21 35.55,23.29 -9.45,5.68 -12,5.07 -16.81,7.94 z"
   id="path143" />
    <path
   class="fil45"
   d="m 4896.05,1722.78 c 37.41,-7.04 71.66,-16.16 108.51,-24.48 16.16,-3.66 36.43,-7.37 54.55,-12.09 44.38,-11.58 27.98,-14.07 50.81,-3.13 -3.59,39.03 -10.15,21.42 -45.84,39.78 14.12,8.44 60.44,7.91 84.15,7.91 v -31.79 h -23.64 v -31.79 l -202.04,34.06 c -42.6,14.75 -10.76,-2.42 -26.5,21.53 z"
   id="path145" />
    <path
   class="fil51"
   d="m 2639.24,1961.24 30.01,28.78 c 25.01,16.25 82.51,46.69 115.16,50.27 4.95,-52.39 -23.79,-104.5 -59.27,-132.22 -4.6,22.35 -2.99,15.03 4.03,29.11 l 47.01,71.74 c -29.14,13.59 -56.18,-11.51 -78.7,-23.94 z"
   id="path147" />
    <path
   class="fil52"
   d="m 4683.31,4051.38 h 31.43 c -5.9,10.71 -4.25,8.79 -7.82,23.84 73.06,0 53.12,-22.56 110.33,-23.84 -17.33,-26.1 -9.33,-5.03 -15.76,-36.69 -25.89,3.16 -36.54,7.37 -61.6,12.22 -4.43,0.85 -33,6.2 -33.24,6.29 -33.74,13.03 -9.08,-1.53 -23.34,18.18 z"
   id="path149" />
    <path
   class="fil25"
   d="m 5431.9,2129.42 c -6.12,20.98 -3.74,25.71 3.16,41.75 0.77,1.79 1.69,3.95 2.54,5.7 l 6.48,11.65 c 0.81,1.47 2.22,4.12 3.61,6 l 76.84,-37.92 15.65,-33.35 c -61.37,4.13 -26.93,16.02 -68.84,27.44 -9.76,-15.57 -8.26,1.73 -5.74,-32.35 l -22.32,0.14 z"
   id="path151" />
    <path
   class="fil53"
   d="m 5778.64,1579.77 c -11.52,-51.38 -25.99,-78.44 -17.44,-129.31 54.9,8.65 66.15,37.04 112.05,55.72 -13.29,-29.62 -6,-21.03 -57.76,-50.96 -28.25,-16.35 -35.63,-33.49 -76.21,-34.4 l 14.73,127.68 c 12.77,42.4 7.94,20.12 24.63,31.27 z"
   id="path153" />
    <path
   class="fil52"
   d="m 3643.04,2231.45 c 47.93,23.2 137.84,-14.24 157.61,-15.9 v -23.84 c -38.25,0 -140.08,15.61 -157.61,39.74 z"
   id="path155" />
    <path
   class="fil54"
   d="m 2721.02,3455.37 c 15.17,36.56 -4.56,31.72 23.64,23.85 22.05,14.44 17.12,10.58 31.52,26.42 2.72,-5.4 13.04,2 -1.55,-33.54 2.05,1.65 15.42,14.8 17.37,15.79 23.79,12.03 16.17,4.7 28.71,-0.77 -3.65,-27.6 1.96,-16.82 -19.35,-31.79 l -24.71,-23.79 c -12.21,-8.63 -4.15,-3.97 -13.74,-10.15 -21.46,-13.83 -0.48,-3.22 -26.1,-13.74 4.06,22.4 -1.21,31.72 23.61,31.79 l -15.76,31.78 c -9.68,-18.28 2.61,-11.02 -23.64,-15.85 z"
   id="path157" />
    <path
   class="fil55"
   d="m 3091.4,3824.89 c 16.94,33.76 50.5,51.43 86.69,43.7 -4.11,-49.8 -19.63,-18.65 -31.52,-63.58 26.58,12.87 26.6,6.02 47.28,-7.95 -20.88,-31.43 -30.76,-41.38 -57.43,-47.68 14.44,27.65 20.29,18.86 37.67,47.46 l -65.06,-15.07 c 12.05,46.4 -7.29,14.46 27.23,40.6 28.49,21.58 12.96,0.03 22.94,34.87 -40.73,-8.79 -34.04,-16.71 -67.8,-32.35 z"
   id="path159" />
    <path
   class="fil56"
   d="m 4251.16,3200.79 c -8.34,-21.76 5.14,-11.73 -17.88,-11.28 -23.91,-0.22 -27.45,5.32 -45.71,11.51 -7.06,19.36 -8.74,20.73 -9.98,45.53 l 9.21,38.92 c 1.67,-1.46 4.54,-5.46 5.42,-3.85 l 10.55,-7.09 c 14.29,-11.4 6.85,-1.35 16.16,-16.98 23.56,-39.52 -19.45,-26.67 34.56,-32.69 -12.45,-13.69 0.35,-10.23 -27.32,-16.2 z"
   id="path161" />
    <path
   class="fil57"
   d="m 4298.39,3370.17 c -1.29,-50.19 -5.71,-115.87 -56.43,-125.34 -6.85,14.16 -11.49,3.57 -0.6,34.51 3.03,8.59 10.09,26.43 14.2,36.05 13.99,32.76 13.13,40.64 42.83,54.78 z"
   id="path163" />
    <path
   class="fil39"
   d="m 4853.15,1774.51 c 41.49,4.15 51.91,-0.03 89.56,-6.66 l 61.98,-7.53 c 21.39,-6.44 11.84,-5.48 19.77,-13.66 -10.47,-8.88 0.88,-7.15 -18.2,-11.93 -12.15,-3.04 -19.29,-1.57 -31.36,-0.73 -16.73,1.15 -38.4,4.46 -50.76,8.31 -29.28,9.11 -50.82,19.47 -70.99,32.2 z"
   id="path165" />
    <path
   class="fil15"
   d="m 5478.85,2251.77 c -10.34,34.35 -0.14,24.28 -26.12,47.95 19.64,-5.63 39.12,-11.02 60.34,-18.85 33.4,-12.34 33.25,-4 43.77,-34.57 -10.65,-10.27 -11.48,-12.54 -22.46,-21.83 -18.49,0.93 -25.24,0.39 -39.31,7.97 -15.72,8.46 -15.04,13.01 -16.22,19.33 z"
   id="path167" />
    <path
   class="fil58"
   d="m 2725.14,1908.07 c -38.81,-44.43 -129.92,-102.59 -185.61,-127.87 l 0.23,37.99 c 46.41,10.9 19.03,3.7 63.05,0 3.37,6.42 12.59,27.78 15.83,31.72 23.44,28.56 14.63,-7.57 68.37,42.36 24.82,23.06 9.45,18.3 38.13,15.8 z"
   id="path169" />
    <path
   class="fil26"
   d="m 3606.76,4075.22 c -27.62,-23.98 -105.29,-60.27 -143.71,-73.94 l -3.28,-19.37 -21.62,-7.26 c 19.07,95.25 11.29,58.42 41.59,74.51 10.52,5.58 7.59,4.92 13.57,10.17 17.42,-12.21 9.8,-1.31 15.77,-23.85 z"
   id="path171" />
    <path
   class="fil59"
   d="m 3145.61,2926.86 -22,11.94 c 20.26,49.7 98.75,-30.19 119.73,-63.48 -12.04,-12.05 -16.05,12.53 -3.87,-35.8 -13.02,17.03 -26.01,33.57 -39.2,49.67 -17.33,21.16 -3.39,7.44 -19.88,19.41 -15.26,11.08 -15.85,10.93 -34.78,18.26 z"
   id="path173" />
    <path
   class="fil42"
   d="m 5706.62,3461.94 40.53,1.6 c 0.81,-36.57 1.16,-30.22 21.45,-50.16 32.97,-32.37 94.89,-91.8 104.65,-136.18 -20.49,13.81 -48.98,60.75 -81.45,96.11 -29.1,31.7 -62.73,58.5 -85.18,88.63 z"
   id="path175" />
    <path
   class="fil36"
   d="m 5382.28,2263.2 4.7,14.49 30.06,-1.87 9.47,-20.32 -16.7,-32.01 15.12,-52.08 -34.82,20.3 c -14.15,40.28 -14.18,28.23 -7.83,71.49 z"
   id="path177" />
    <path
   class="fil60"
   d="m 4538.37,3470.99 -25.13,-7.71 11.86,-24.21 c 16.41,-43.78 3.91,-10.55 1.45,-20.32 -24.96,19.42 -53.89,51.7 -58.02,85.7 11.68,-0.8 36.59,-0.96 46.36,-4.77 20.17,-7.87 16.96,-11.82 23.48,-28.69 z"
   id="path179" />
    <path
   class="fil17"
   d="m 2665.85,3280.49 c -0.94,-42.67 -46.19,-96.65 -70.92,-103.31 -6.87,14.96 -9.66,16.55 -0.14,31.14 l 22.54,25.73 c 14.98,25.38 -1.66,19.67 48.52,46.44 z"
   id="path181" />
    <path
   class="fil17"
   d="m 2539.73,2938.76 c -16.89,-41.06 -15.39,-49.5 -45.74,-72.47 l -0.32,-70.16 -24.83,-14.29 c 7.82,21.08 -11.14,6.57 15.76,21.82 -12.16,25.54 -15.76,40.45 -15.76,79.47 80.29,1.8 6.17,33.67 70.89,55.63 z"
   id="path183" />
    <path
   class="fil61"
   d="m 2468.84,1791.61 c 8,-27.12 -18.75,-19.97 31.52,-21.11 v 15.9 l 39.17,-6.2 c -23.24,-20.43 -67.41,-41.13 -104.64,-44.26 4.72,21.96 -1.2,13.53 11.79,34.49 11.56,18.67 2.57,7.38 22.16,21.18 z"
   id="path185" />
    <path
   class="fil62"
   d="m 4687.12,4202.38 h 27.68 c 23.15,15.62 15.68,15.89 55.16,15.89 l 7.88,-45.18 c -23.64,1.59 -29.72,2.53 -52.67,9.19 -0.33,0.1 -15.68,5.05 -15.97,5.19 -22.96,10.75 -13.25,7.56 -22.08,14.91 z"
   id="path187" />
    <path
   class="fil63"
   d="m 2695.23,2776.57 c 4.15,32.18 20.52,52.56 51.38,60.62 l 0.73,-67.08 z"
   id="path189" />
    <path
   class="fil26"
   d="m 7898.55,918.76 74.27,-9.8 c -14.44,29.07 -1.04,4.03 -11.25,18.59 -17.22,24.52 -0.04,-9.5 -15.7,24.39 39.95,-16.41 47.84,-20.17 55.13,-47.69 -25.59,-12.38 -30.13,-8.42 -69.8,-5.49 -47.98,3.54 -22.54,5.92 -32.65,20 z"
   id="path191" />
    <path
   class="fil49"
   d="m 5297.96,1984.27 38.54,-12.81 c -7.46,-23.74 20.47,-9.07 -65.03,-39.86 30.01,0.17 11.3,-5.57 17.87,-18.04 -22.15,0 -46.09,4.35 -34.52,27.37 10.1,20.08 23.46,12.36 51.02,12.36 -3.52,13.41 -3.56,17.5 -7.88,30.98 z"
   id="path193" />
    <path
   class="fil55"
   d="m 6180.59,1179.39 c 71.64,-10.89 110.32,-9.14 96.84,74.54 23.27,-11.45 6.41,5.92 12.79,-16.65 4.38,-15.49 2.88,-44.61 -10.78,-59.2 -11.26,-12.02 -71.31,-38.36 -94.92,-4.92 -0.83,1.18 -2.5,4.24 -3.93,6.23 z"
   id="path195" />
    <path
   class="fil46"
   d="m 6558.9,1619.5 c 2.54,-1.04 6.21,-5.39 7.54,-3.37 1.25,1.92 5.34,-2.5 7.01,-3.47 l 32.69,-17 c 6.76,28.49 6.18,23.84 63.04,23.84 4.07,-4.91 6.67,-18.82 7.88,-22.15 l -39.09,9.3 c -1.73,-3.13 -3.58,-8.14 -4.24,-6.73 -6.22,13.36 -3.94,-16.91 -19.71,-20.75 -35.58,4.23 -39.49,10.85 -55.12,40.33 z"
   id="path197" />
    <polygon
   class="fil47"
   points="2851.46,1436.57 2883.34,1437.08 2882.81,1368.01 2852.24,1369.26 "
   id="polygon199" />
    <path
   class="fil30"
   d="m 4946.48,2451.61 c 5.91,39.78 57.15,34.97 87.47,23.78 -0.61,-20.84 -4.39,-18.48 -12.58,-37.31 l 8.62,-24.29 -21.66,5.82 c -0.27,26.06 4.16,30.71 7.74,50.33 -43.2,3.29 -38.54,-2.42 -69.59,-18.33 z"
   id="path201" />
    <path
   class="fil25"
   d="m 5484.49,2096.38 c 4.72,15.45 -2.71,14.75 6.96,25.61 25.66,0.75 21.39,6.41 38.37,-5.13 14.26,-9.68 14.17,-21.4 18.28,-40.82 z"
   id="path203" />
    <path
   class="fil64"
   d="m 2789.86,1492.35 c -2.04,-1.36 -5.15,-5.74 -6.14,-4.03 -2.33,4.03 -8.49,-5.7 -11.09,-7.82 -11.62,-9.47 -8.55,-8.15 -12.21,-11.47 -18.45,21.91 -17.75,28.9 -19.39,65.99 30.61,-8.39 34.38,-10.8 48.83,-42.67 z"
   id="path205" />
    <path
   class="fil65"
   d="m 2810.01,2926.46 2.84,0.67 29.3,5.45 -21.34,-53.7 -32.93,1.15 c 11.06,40.7 5.3,10.9 22.13,46.43 z"
   id="path207" />
    <path
   class="fil66"
   d="m 3398.7,3940.12 c -2.91,18.43 -16.53,-0.81 10.17,21.3 2.8,2.32 14.39,8.4 14.88,8.63 14.75,6.94 0.87,1.26 14.4,4.6 l 21.62,7.26 -11.19,-9.83 c -2.01,-26.96 -3.52,-1.75 21.05,-12.71 -1.66,-1.43 -3.6,-3.57 -4.84,-4.43 -1.24,-0.85 -3.52,-3.11 -5.09,-4.07 z"
   id="path209" />
    <path
   class="fil52"
   d="m 7228.7,927.1 c 25.21,-18.2 19.14,-18.63 39.36,-38.89 22.75,-22.81 20.19,-8.35 37.3,-39.59 -42.18,15.72 -61.73,35.25 -76.66,78.48 z"
   id="path211" />
    <path
   class="fil44"
   d="m 2812.85,2927.13 c 13.37,22.1 15.16,22.31 40.54,26.21 1.46,-32.25 -6.94,-61.18 -32.58,-74.46 l 21.34,53.7 z"
   id="path213" />
    <path
   class="fil45"
   d="m 6973.99,1420.82 c 4.87,9.42 -4.78,22.7 23.66,16.42 35.56,-7.85 14.77,-4.27 24.44,-31.26 -33.4,3.26 -22.58,-2.52 -48.1,14.84 z"
   id="path215" />
    <path
   class="fil67"
   d="m 2303.72,1325.46 h -24.02 c -11.19,13.51 1.49,9.15 -7.88,-7.91 -19.22,18.5 -21.85,22.83 -21.96,51.76 z"
   id="path217" />
    <path
   class="fil3"
   d="m 3339.95,3860.06 -34.86,-2.91 c 2.68,19.64 -7.98,18.53 9.58,27.82 32.59,17.24 24.58,-3.52 25.28,-3.82 z"
   id="path219" />
    <path
   class="fil68"
   d="m 4155.28,4083.17 c 27.79,6.53 25.89,7.95 63.04,7.95 -14.13,-19.45 1.61,-11.96 -28.37,-20.27 -17.8,-4.94 -31.73,-5.04 -34.67,12.32 z"
   id="path221" />
    <path
   class="fil69"
   d="m 2810.01,2926.46 c -16.83,-35.53 -11.07,-5.73 -22.13,-46.43 l 32.93,-1.15 c -19.16,-17.38 -15.38,-12.55 -43.43,-9.32 -1.08,30.2 7.8,43.77 32.63,56.9 z"
   id="path223" />
    <path
   class="fil45"
   d="m 5317.71,3789.12 c 44.97,-9.75 10.79,-12.97 51.18,-23.84 v -20.77 c -15.42,6.6 -22.37,11.43 -32.11,20.23 -20.55,18.57 -7.14,1.27 -19.07,24.38 z"
   id="path225" />
    <path
   class="fil18"
   d="m 2988.96,3668.31 v -22.24 c -54.67,-14.72 10.06,-19.7 -54.2,-31.79 15.52,19.76 34.25,39.15 54.2,54.03 z"
   id="path227" />
    <path
   class="fil70"
   d="m 3039,3528.11 c 1.76,3.14 1.25,7.65 2.68,10.49 23.25,46.6 28.69,12.6 29.63,12.1 -13.48,-25.08 15.83,-9.22 -32.31,-22.59 z"
   id="path229" />
    <path
   class="fil17"
   d="m 7699.62,1023.46 c 25.89,-6.23 19.15,1.01 25.56,-25.14 -20.07,9.06 -14.87,3.75 -25.56,25.14 z"
   id="path231" />
    <path
   class="fil46"
   d="m 5680.86,3487.12 c 27.06,-6.06 20.83,2.26 25.76,-25.18 z"
   id="path233" />
   </g>
   <path
   class="fil71 str0"
   d="m 3089.93,4563.62 c -3.47,5.21 -14.37,11.44 -32.69,18.69 -41.47,14.99 -89.82,24.01 -145.05,27.05 -55.25,3.03 -104.83,-10.32 -148.74,-40.07 -46.5,-31.48 -75.53,-70.61 -87.11,-117.39 -11.58,-46.77 0.15,-96.47 35.19,-149.08 23.94,-35.96 57.2,-72.39 99.78,-109.32 42.58,-36.92 83.24,-66.46 121.97,-88.61 39.6,-22.31 78.09,-37.06 115.49,-44.25 37.38,-7.18 67.45,-3.08 90.18,12.32 22.21,15.04 34.01,34.75 35.4,59.12 1.38,24.38 -5.91,48.54 -21.87,72.5 -5.89,8.86 -13.55,16.7 -22.98,23.55 -9.44,6.85 -18.3,11.99 -26.59,15.44 -8.3,3.46 -13.49,4.48 -15.55,3.09 -4.13,-2.81 -4.64,-6.55 -1.51,-11.24 1.04,-1.57 4.28,-4.46 9.74,-8.72 5.44,-4.23 9.4,-8.18 11.82,-11.82 8.68,-13.03 15.27,-26.32 19.8,-39.89 4.01,-11.64 4.31,-23.34 0.9,-35.11 -3.41,-11.76 -9.77,-20.79 -19.07,-27.08 -37.2,-25.19 -96.17,-12.6 -176.95,37.77 -32.34,20.44 -65.05,45.9 -98.1,76.43 -33.08,30.51 -60.89,62.71 -83.44,96.57 -15.61,23.45 -25.05,48.04 -28.34,73.79 -3.27,25.75 0.18,50.4 10.37,73.92 10.19,23.53 27.17,43.34 50.93,59.44 37.71,25.54 78.01,39.61 120.9,42.19 42.87,2.58 88.83,-0.31 137.88,-8.67 1.72,-0.34 9.25,-3.75 22.56,-10.24 13.31,-6.48 21.52,-8.67 24.61,-6.58 3.1,2.1 4.65,4.28 4.63,6.55 0,2.26 -1.38,5.48 -4.16,9.65 z m 305.35,129.5 c -11.45,21.58 -32.61,42.19 -63.5,61.81 -30.88,19.64 -66.23,31.7 -106.02,36.21 -39.8,4.5 -78.36,-3.32 -115.67,-23.46 -36.75,-19.83 -58.48,-44.73 -65.17,-74.67 -6.69,-29.95 -1.96,-60.14 14.18,-90.57 14.1,-26.56 36.37,-56.89 66.82,-90.99 30.45,-34.1 62.66,-61.92 96.67,-83.42 2.27,-1.63 11.13,-7.33 26.57,-17.15 15.44,-9.82 30.09,-15.81 43.92,-17.94 13.84,-2.14 26.26,-0.25 37.23,5.68 4.94,2.66 8.8,6.35 11.59,11.05 2.79,4.72 3.17,9.01 1.11,12.88 -0.59,1.11 -3.49,2.93 -8.71,5.45 -5.22,2.52 -9.24,4.44 -12.07,5.77 -30.68,12.61 -57.67,26.87 -80.93,42.78 -30.33,19.95 -57.1,41.44 -80.29,64.52 -23.18,23.07 -43.43,50.94 -60.75,83.58 -23.2,43.71 -8.47,79.79 44.21,108.21 24.69,13.32 51.4,18.49 80.17,15.51 28.76,-3 54.95,-11.45 78.58,-25.4 23.63,-13.93 39.99,-29.48 49.09,-46.64 10.28,-19.36 12.93,-39.63 7.94,-60.84 -4.98,-21.18 -14.19,-45.73 -27.62,-73.62 -8.68,-18.21 -14.56,-32.42 -17.62,-42.61 -3.05,-10.19 -3.41,-17.5 -1.06,-21.93 3.52,-6.64 11.04,-9.52 22.57,-8.64 11.53,0.9 23.61,4.74 36.22,11.55 7.14,3.85 11.58,6.78 13.33,8.8 1.76,2.01 2.05,4.12 0.87,6.33 -0.59,1.11 -2.5,2.4 -5.74,3.85 -3.24,1.45 -5.3,3 -6.18,4.67 -0.88,1.65 1.67,10.15 7.65,25.48 12.26,30.1 20.8,58.55 25.63,85.37 4.83,26.8 0.49,52.94 -13.02,78.38 z m 418.97,229.23 c -5.15,14.8 -21.66,28.06 -49.51,39.81 -27.84,11.74 -61.36,18.46 -100.55,20.19 -39.19,1.73 -77,-3.86 -113.39,-16.79 -27,-9.58 -52.23,-21.87 -75.7,-36.84 -23.47,-14.99 -41.42,-30.17 -53.87,-45.56 -12.43,-15.39 -16.8,-28.41 -13.08,-39.07 4.96,-14.21 16.37,-28.95 34.23,-44.23 17.87,-15.29 45.43,-36.6 82.69,-63.98 -15.26,-5.41 -32.34,-14.13 -51.24,-26.15 -9.54,-6.71 -12.53,-15.1 -9.03,-25.17 1.46,-4.14 7.45,-4.34 18.02,-0.59 l 80.44,27.56 c 22.38,-20.67 44.01,-43.43 64.89,-68.28 20.88,-24.87 33.08,-42.32 36.59,-52.39 1.66,-4.74 0.42,-7.83 -3.69,-9.29 -6.45,-2.29 -17.57,-2.58 -33.35,-0.86 -15.77,1.73 -26.41,2.94 -31.94,3.65 -41.8,4.44 -80.9,0.22 -117.29,-12.71 -7.62,-2.7 -10.51,-6.71 -8.65,-12.04 1.44,-4.14 11.61,-5.86 30.49,-5.15 26.16,0.64 62.05,-2.92 107.63,-10.69 51.91,-8.87 86.09,-10.37 102.51,-4.54 9.39,3.33 16.01,8.01 19.85,14.03 3.84,6.02 4.63,12.28 2.35,18.8 -5.16,14.79 -49.29,64.67 -132.37,149.61 13.71,4.2 37.17,7.87 70.38,11 11.01,0.59 17.99,1.4 20.93,2.44 1.75,0.62 2.91,2.04 3.47,4.23 0.55,2.19 0.52,4.18 -0.11,5.95 -3.29,9.47 -10.37,14.61 -21.21,15.42 -27.98,2.72 -64.63,-0.98 -109.93,-11.07 l -29.03,23.63 c -25.52,20.22 -45.57,37.05 -60.17,50.49 -14.59,13.46 -23.22,24.03 -25.91,31.72 -2.69,7.7 9.58,18.87 36.8,33.52 27.2,14.65 54.9,26.97 83.08,36.96 40.51,14.38 79.36,21.19 116.56,20.42 37.22,-0.76 70.42,-8.94 99.6,-24.53 4.8,-4.28 11.56,-14.19 20.27,-29.73 2.45,-5.12 5.04,-9.69 7.76,-13.71 2.73,-4.02 5.26,-5.62 7.61,-4.78 3.52,1.24 4.52,6.42 2.99,15.52 -1.53,9.12 -4.57,20.17 -9.12,33.2 z m 183.47,-457.31 c -1.43,9.31 -12.3,12.37 -32.58,9.2 -10.47,-1.63 -20.4,-7.63 -29.82,-17.99 -9.44,-10.36 -13.72,-18.34 -12.87,-23.92 1.05,-6.82 5.28,-12.83 12.69,-18.02 7.42,-5.19 14.49,-7.27 21.27,-6.21 0,0 2.18,1.14 6.55,3.41 4.38,2.27 9.12,7.3 14.21,15.08 4.17,5.72 8.7,13.1 13.61,22.13 4.9,9.03 7.22,14.47 6.94,16.32 z m -66.81,588.72 c -0.96,6.21 -4.31,10.62 -10.06,13.2 -5.75,2.6 -11.96,3.06 -18.63,1.37 -8.51,-1.96 -12.66,-16.9 -12.47,-44.8 0.18,-27.91 3.99,-80.35 11.41,-157.3 5.24,-50.62 10.64,-100.1 16.19,-148.46 5.52,-48.34 9.98,-85.59 13.38,-111.74 1.04,-6.81 2.9,-11.76 5.58,-14.85 2.68,-3.06 7.08,-4.11 13.24,-3.16 14.14,2.21 22.15,9.49 24.03,21.85 1.88,12.36 0.26,35.29 -4.89,68.78 l -17.78,109.62 c -9.62,62.63 -15.49,113.16 -17.61,151.56 -0.29,1.87 -0.56,22.15 -0.85,60.84 0.31,26.72 -0.21,44.42 -1.54,53.09 z m 436.25,45.87 c -0.37,7.52 -3.78,13.8 -10.27,18.81 -6.47,5.02 -14.05,7.32 -22.76,6.89 -6.21,-0.31 -11.44,-1.98 -15.64,-5.01 -4.22,-3.04 -6.2,-7.07 -5.95,-12.08 1.24,-25.7 5.04,-65.41 11.4,-119.13 6.53,-57.49 10.73,-105.34 12.58,-143.57 1.8,-36.99 2.18,-67.29 1.16,-90.9 -1.04,-23.61 -5.6,-35.61 -13.67,-36.02 -21.13,-1.04 -45.57,24.3 -73.33,76.01 -27.74,51.73 -59.87,120.03 -96.41,204.93 l -15.82,36.92 c -2.78,6.15 -7.22,10.96 -13.31,14.42 -6.09,3.48 -12.24,5.06 -18.45,4.75 -7.46,-0.37 -12.4,-1.24 -14.82,-2.62 -2.43,-1.38 -3.81,-5.22 -4.13,-11.52 l -3.7,-77.45 -7.4,-136.09 c -1.73,-54.12 -4.73,-101.4 -8.99,-141.82 -1.41,-9.49 -1.99,-16.75 -1.74,-21.77 0.46,-9.39 4.87,-16.88 13.23,-22.43 8.38,-5.55 17.83,-8.06 28.41,-7.54 6.21,0.3 9.98,15.57 11.32,45.8 1.34,30.22 1.92,78.94 1.77,146.16 l 1.31,50.02 c 1.89,63.55 2.73,103.8 2.53,120.75 2.05,-3.66 3.97,-7.81 5.75,-12.43 1.77,-4.63 4.05,-9.7 6.82,-15.21 37.83,-86.09 72.92,-157.72 105.3,-214.87 32.37,-57.13 62.23,-85.04 89.58,-83.68 19.27,0.95 31.67,18.06 37.22,51.32 5.55,33.26 8.01,75.64 7.37,127.13 -0.91,57.12 -4.03,140.54 -9.36,250.23 z m 515.09,-47.04 c 1.1,7.45 -0.44,14.18 -4.59,20.19 -4.14,6.02 -10.22,9.62 -18.23,10.82 -6.15,0.91 -11.59,0.3 -16.31,-1.85 -4.72,-2.15 -7.45,-5.72 -8.17,-10.69 l -7.58,-64.51 c -8.15,-76.82 -15.77,-139.44 -22.88,-187.87 -10.4,-70.77 -22.58,-119.54 -36.58,-146.31 -14,-26.76 -27.46,-39.2 -40.39,-37.27 -28.93,4.33 -58.61,54.92 -89.06,151.76 -30.44,96.86 -58.13,201.71 -83.08,314.54 -1.81,9.16 -4.74,18.15 -8.78,27.01 -4.04,8.84 -8.84,13.68 -14.39,14.52 -13.54,2.02 -20.94,-1.32 -22.22,-10 -5.56,-37.87 -17.51,-108.57 -35.87,-212.09 -18.34,-103.52 -30.85,-171.6 -37.53,-204.21 -21.86,-110.3 -37.16,-178.12 -45.92,-203.46 -8.75,-25.34 -13.27,-38.93 -13.54,-40.8 -0.91,-6.21 1.8,-11.37 8.11,-15.49 6.31,-4.1 14.71,-6.95 25.17,-8.52 8.62,-1.29 17.82,17.49 27.62,56.32 9.79,38.81 20.11,88.81 30.99,150 l 4.75,25.94 c 4.06,19.06 13.07,74.01 27.04,164.86 13.98,90.85 24.1,157.71 30.39,200.53 17.84,-75.61 35.11,-143.22 51.84,-202.81 16.72,-59.59 37.82,-116.19 63.3,-169.8 25.46,-53.6 52.05,-82.48 79.75,-86.61 23.39,-3.5 45.98,13.27 67.77,50.31 21.8,37.02 38.45,94.65 49.93,172.87 5.1,34.76 12.83,83.09 23.18,144.99 z m 458.04,-221.1 c 1.96,3.97 5.73,7.51 11.33,10.6 5.6,3.1 8.89,6.13 9.87,9.12 2.33,7.14 2.05,16.33 -0.84,27.53 -2.9,11.2 -7.3,17.78 -13.2,19.75 -10.05,3.33 -19.79,-0.37 -29.19,-11.12 -9.41,-10.75 -16.84,-24.47 -22.29,-41.15 -4.68,-14.31 -17.81,-57.52 -39.42,-129.63 l -10.2,-34.26 c -4.48,-13.72 -11.24,-22.38 -20.29,-25.98 -11.79,54.14 -23.76,101.73 -35.9,142.76 -12.15,41.04 -31.12,82.21 -56.95,123.49 -25.82,41.29 -58.24,68.42 -97.25,81.38 -18.91,6.29 -35.47,5.18 -49.72,-3.3 -14.24,-8.48 -24.48,-22.26 -30.71,-41.33 -7.78,-23.84 -7.81,-60.02 -0.07,-108.51 7.74,-48.49 21.2,-99.54 40.38,-153.16 19.16,-53.62 40.82,-99.64 64.95,-138.06 16.02,-25.14 29.53,-43 40.49,-53.57 10.95,-10.59 21.45,-17.55 31.5,-20.89 9.45,-3.14 20.18,-3.39 32.18,-0.77 12,2.62 23.29,8.11 33.89,16.48 10.6,8.38 18.13,19.41 22.61,33.12 6.04,18.48 6.77,37.73 2.17,57.77 l 13.61,-9.49 c 6.5,-2.16 12.98,4.62 19.41,20.31 3.71,9.34 10.78,28.47 21.21,57.37 10.42,28.91 19.06,52.81 25.87,71.69 7.03,19.47 13.85,38.34 20.48,56.62 6.62,18.29 11.99,32.69 16.08,43.23 z m -307.68,120.09 c 31.91,-10.61 58.75,-32.74 80.52,-66.41 21.75,-33.65 38.9,-70.91 51.43,-111.74 12.54,-40.84 25.1,-90.11 37.7,-147.82 1.24,-20.24 -1.53,-40.78 -8.36,-61.65 -4.08,-12.51 -11.33,-22.17 -21.74,-28.95 -10.41,-6.77 -21.82,-8.11 -34.22,-3.99 -14.78,4.92 -30.38,21.33 -46.81,49.26 -19.19,31.49 -37.39,71.06 -54.56,118.72 -17.19,47.68 -29.5,93.23 -36.92,136.67 -7.44,43.43 -7.65,75.87 -0.64,97.33 5.85,17.88 17.05,24.08 33.6,18.58 z m 566.04,-966.87 c 7.1,10.31 20.53,30.89 40.26,61.77 19.74,30.86 40.08,61.51 61.01,91.92 40.46,58.77 83,117.8 127.61,177.1 44.62,59.29 74.26,97.95 88.91,115.94 2.13,3.09 4.69,6.27 7.7,9.52 2.99,3.24 5.81,6.25 8.45,8.99 11.98,12.99 19.03,21.04 21.16,24.13 3.56,5.16 3.22,12.65 -0.99,22.48 -4.22,9.83 -8.38,16.16 -12.46,19.03 -5.63,3.94 -10.84,4.34 -15.65,1.22 -4.8,-3.13 -9.87,-8.56 -15.2,-16.3 -19.51,-28.34 -39.15,-58.53 -58.92,-90.53 l -29.03,-43.84 c -9.95,-14.44 -23.24,-33.2 -39.91,-56.3 -16.65,-23.09 -31,-42.27 -43.01,-57.53 32.14,102.79 50.79,193.44 55.96,271.93 5.19,78.5 -11.39,131.17 -49.73,158.02 -17.37,12.17 -37.76,14.2 -61.11,6.13 -23.37,-8.08 -45.72,-27.59 -67,-58.52 -28.04,-40.73 -44.89,-94.64 -50.54,-161.72 -5.67,-67.09 -2.88,-130.17 8.36,-189.21 11.23,-59.07 25.29,-94.49 42.16,-106.31 16.36,-11.45 28.26,-11.76 35.71,-0.94 4.97,7.21 8.31,17.29 10.02,30.23 1.71,12.94 2.28,25.33 1.73,37.17 -0.56,11.85 -1.34,18.14 -2.37,18.85 -1.02,0.71 -2.44,1.14 -4.24,1.27 -1.81,0.12 -3.08,-0.34 -3.78,-1.38 -1.78,-2.57 -3.52,-7.84 -5.22,-15.81 -1.7,-7.99 -3.27,-13.01 -4.68,-15.06 -1.78,-2.59 -3.28,-4.21 -4.5,-4.88 -1.22,-0.68 -3.11,-0.12 -5.66,1.67 -10.74,7.52 -19.83,35.85 -27.28,85 -7.46,49.14 -8.14,101.78 -2.1,157.88 6.06,56.12 21.16,101.7 45.29,136.75 8.52,12.37 19.07,22.18 31.63,29.43 12.56,7.25 24.72,6.76 36.48,-1.47 37.32,-26.13 50.02,-82.22 38.14,-168.24 -11.88,-86.04 -33.92,-177.75 -66.13,-275.14 l -46.25,-63.89 c -40.92,-56.13 -62.64,-86.02 -65.12,-89.62 -21.29,-30.94 -35.27,-54 -41.94,-69.19 -2.53,-5.88 -3.87,-10.29 -4.01,-13.24 -0.14,-2.96 1.84,-5.86 5.92,-8.72 5.12,-3.59 11.38,-5.5 18.8,-5.73 7.41,-0.22 13.08,2.49 16.98,8.17 z m 547.07,36.28 c 3.24,-2.94 7.98,-0.9 14.22,6.09 7.49,8.4 17.8,32.4 30.92,71.97 13.13,39.59 18.13,82.74 15.02,129.45 -3.1,46.71 -22.71,86.44 -58.8,119.18 -29.61,26.86 -62.68,39.98 -99.22,39.37 -36.54,-0.62 -72.08,-20.29 -106.62,-59.02 -32.46,-36.39 -56.28,-79.99 -71.46,-130.79 -15.19,-50.8 -19.46,-99.69 -12.81,-146.66 6.66,-46.97 24.33,-83.47 53.01,-109.48 17.12,-15.54 35.02,-24.8 53.68,-27.81 18.66,-3 34.45,2.73 47.34,17.19 14.57,16.34 19.59,40.49 15.04,72.46 -4.54,31.98 -16.18,67.01 -34.92,105.12 -18.75,38.11 -41.33,73.78 -67.76,107.05 13.59,26.49 29.54,50 47.86,70.53 24.14,27.07 49.22,42.28 75.26,45.67 26.04,3.4 50.86,-5.61 74.46,-27.02 35.62,-32.31 53.09,-71.37 52.42,-117.18 -0.68,-45.8 -7.98,-91.52 -21.9,-137.15 -0.74,-2.7 -2.34,-7.79 -4.81,-15.26 -2.48,-7.46 -2.79,-12.03 -0.93,-13.71 z m -159.08,-54.48 c -6.66,-7.46 -15.67,-9.84 -27.05,-7.11 -11.38,2.73 -22.17,8.71 -32.34,17.95 -17.59,15.94 -29.27,37.09 -35.05,63.44 -5.8,26.35 -6.84,52.63 -3.15,78.83 3.69,26.19 9.54,47.06 17.54,62.58 19.2,-21.63 36.23,-48.05 51.08,-79.25 14.86,-31.21 25.07,-59.88 30.62,-86.02 5.56,-26.14 5.01,-42.95 -1.65,-50.42 z m 793.77,-472.03 c 6.41,3.85 3.42,16.29 -8.98,37.33 -2.22,3.77 -45.84,11.74 -130.86,23.93 -85.01,12.18 -156.74,21.19 -215.2,27.02 -8.43,0.79 -36.06,2.83 -82.9,6.15 -69.25,4.47 -111.33,7.71 -126.27,9.7 l 60.83,38.67 59.7,36.89 c 37.97,22.76 78.92,47.87 122.83,75.29 43.93,27.45 78.67,49.55 104.24,66.35 6.1,4.38 10.32,10.75 12.64,19.08 2.33,8.33 1.91,15.2 -1.28,20.59 -3.5,5.92 -7.7,9.06 -12.61,9.41 -4.9,0.34 -12.43,-2.53 -22.6,-8.63 -6.42,-3.85 -25.58,-16.79 -57.46,-38.83 -58.65,-41.75 -108.83,-75.12 -150.56,-100.14 -33.16,-19.89 -64.26,-39.27 -93.31,-58.14 -29.05,-18.89 -47.06,-30.41 -54.01,-34.58 l -22.79,-14.76 -2.4,-1.44 c -5.9,-3.54 -10.02,-7.28 -12.38,-11.26 -2.36,-3.96 -1.79,-8.92 1.7,-14.85 l 2.39,-4.05 c 3.5,-5.94 20.97,-11.33 52.44,-16.19 31.47,-4.86 73.34,-9.87 125.61,-15.03 10.98,-1.45 21.67,-2.7 32.08,-3.77 10.4,-1.06 20.24,-2.1 29.52,-3.1 57.17,-7.34 87.31,-11.18 90.4,-11.51 141.98,-18.53 221.71,-27.31 239.23,-26.3 -4.92,-1.48 -15.93,-5.54 -33.03,-12.14 -17.1,-6.61 -38.94,-16.23 -65.5,-28.88 -26.59,-12.64 -53.23,-26.99 -79.99,-43.03 -47.59,-28.54 -113.15,-61.63 -196.65,-99.29 -27.26,-12.7 -43.83,-20.81 -49.71,-24.34 -20.34,-12.18 -23.65,-29.88 -9.98,-53.07 3.17,-5.39 11.04,-6.16 23.6,-2.28 12.56,3.89 36.81,15.86 72.74,35.95 35.94,20.09 92.68,53.38 170.24,99.89 24.61,14.77 49.24,28.24 73.89,40.46 24.64,12.23 46.54,22.99 65.68,32.27 26.72,12.38 46.51,22.41 59.34,30.12 z m 216.69,-493.43 c 9.09,4.13 15.01,9.94 17.82,17.41 2.8,7.48 2.15,15.79 -1.94,24.94 -5.13,11.44 -21.72,16.46 -49.77,15.04 -28.04,-1.41 -55.33,-6.78 -81.88,-16.11 -25.41,-8.82 -75.52,-29.59 -150.33,-62.28 -12.17,-4.85 -24.34,-10.05 -36.54,-15.6 -12.19,-5.56 -22.67,-9.98 -31.43,-13.29 31.7,34.41 66.1,77.28 103.21,128.61 37.1,51.32 67.06,99.55 89.84,144.72 22.8,45.15 30.1,76.88 21.9,95.18 -8.45,18.88 -23.94,26.8 -46.49,23.77 -22.53,-3.05 -55.35,-14.38 -98.46,-34.01 -40.25,-18.34 -83.55,-44.43 -129.84,-78.24 -46.31,-33.83 -79.73,-63.67 -100.23,-89.54 -9.36,-11.14 -15.25,-19.69 -17.71,-25.63 -2.47,-5.95 -2.54,-11.49 -0.24,-16.63 6.41,-14.3 12.44,-20.16 18.11,-17.58 2.84,1.29 8.09,7.13 15.73,17.5 21.44,28.35 49.45,57.29 84.03,86.81 34.58,29.52 85.32,59.52 152.25,89.99 44.8,20.41 70.02,24.32 75.66,11.74 6.66,-14.87 -0.62,-42.47 -21.84,-82.76 -21.21,-40.3 -48.86,-83.38 -82.98,-129.21 -34.09,-45.81 -64.92,-82.93 -92.49,-111.32 -9.3,-9.74 -24.58,-22.9 -45.84,-39.46 -8.87,-6.12 -15.05,-10.99 -18.53,-14.64 -3.49,-3.66 -4.71,-6.63 -3.69,-8.92 2.82,-6.3 8.43,-12 16.88,-17.1 8.43,-5.11 15.48,-6.38 21.16,-3.8 27.22,12.41 74.3,32.65 141.28,60.74 66.97,28.09 113.85,46.52 140.65,55.28 23.15,7.78 42.3,11.52 57.47,11.19 15.16,-0.32 27.57,-1.73 37.22,-4.22 9.65,-2.49 15.33,-3.36 17.02,-2.58 z M 6791.19,2423.2 c 10.12,3.11 16.55,9.84 19.27,20.19 2.72,10.35 2.13,27.38 -1.79,51.12 -7.15,58.14 -11.15,90.71 -11.94,97.68 l -7.86,61.55 c 30.96,9.51 63.52,19.03 97.73,28.55 34.2,9.53 64.38,17.32 90.51,23.39 35.25,8.21 63.01,12.14 83.28,11.81 20.26,-0.33 31.68,-0.43 34.24,-0.29 5.95,1.82 10.33,7.26 13.11,16.32 2.81,9.06 3.2,16.89 1.21,23.5 -1.1,3.59 -3.04,6.28 -5.85,8.03 -2.81,1.77 -6.87,2.82 -12.17,3.16 -9.42,1.03 -25.94,-0.27 -49.57,-3.91 -23.61,-3.66 -49.38,-8.79 -77.31,-15.4 -24.94,-5.7 -53.79,-13.08 -86.5,-22.15 -32.7,-9.07 -64.25,-18.27 -94.6,-27.6 -4.8,35.27 -8.69,71.81 -11.64,109.59 -3.07,33.84 -5.51,53.74 -7.33,59.74 -2.17,7.21 -6.29,13.33 -12.37,18.35 -6.06,5.03 -12.67,6.44 -19.82,4.25 -7.74,-2.38 -11.98,-6.64 -12.73,-12.77 -0.75,-6.14 0.78,-15.51 4.58,-28.12 2.73,-9.01 5.08,-22.71 7.06,-41.13 2,-18.41 3.12,-30.2 3.38,-35.37 4.42,-42.6 7.62,-71.46 9.59,-86.61 -12.51,-3.84 -29.07,-8.27 -49.67,-13.29 -27.75,-7.22 -48.76,-13.01 -63.04,-17.4 -23.21,-7.13 -41,-13.42 -53.34,-18.85 -12.35,-5.44 -22.94,-11.82 -31.79,-19.12 -10.46,-8.46 -13.68,-19.3 -9.7,-32.51 1.63,-5.39 3.61,-8.73 5.94,-9.97 2.33,-1.26 5.88,-1.16 10.64,0.31 3.57,1.1 13.54,5.8 29.9,14.11 16.35,8.31 38.81,16.85 67.38,25.62 22.03,6.78 46.91,13.76 74.66,20.98 l 24.38,6.52 c 4,-28.31 9.12,-85.11 15.4,-170.45 0.26,-5.17 -2.69,-10.5 -8.85,-16 -6.14,-5.49 -8.66,-10.05 -7.57,-13.65 1.99,-6.6 7.75,-12.2 17.28,-16.83 9.53,-4.61 18.15,-5.73 25.9,-3.35 z m 57.68,-323.43 c 5.5,1.05 11.04,6.11 16.64,15.16 5.57,9.04 7.85,16.34 6.82,21.89 -0.82,4.31 -3.44,8.13 -7.86,11.43 -4.42,3.32 -10.45,6.79 -18.1,10.43 -6.93,3.17 -13.19,7.88 -18.8,14.15 -5.61,6.27 -9.12,13.12 -10.5,20.52 -3.36,17.87 15.53,46.39 56.64,85.52 41.1,39.14 94.41,79.96 159.91,122.46 14.17,2.07 32.12,4.36 53.79,6.9 21.7,2.55 37.8,4.49 48.3,5.87 l 37.21,4.23 c 8.56,1.62 15.71,4.9 21.44,9.83 5.72,4.92 7.65,12.32 5.81,22.18 -1.97,10.48 -17.14,14.62 -45.54,12.39 -28.41,-2.22 -69.26,-8.1 -122.58,-17.62 -13.56,-1.95 -32.91,-5.17 -58.03,-9.63 -25.14,-4.48 -55.23,-9.42 -90.31,-14.82 -52.94,-8.19 -90.72,-14.43 -113.35,-18.75 -14.06,-2.68 -19.47,-12.65 -16.24,-29.92 1.97,-10.49 7.59,-15.96 16.87,-16.43 9.27,-0.47 26.43,1.69 51.5,6.48 l 145.84,27.8 c -43.62,-27.47 -80.53,-55.27 -110.72,-83.38 -30.2,-28.12 -52.37,-54.22 -66.53,-78.32 -14.17,-24.09 -19.75,-44.16 -16.75,-60.2 2.55,-13.56 8.03,-25.92 16.45,-37.09 8.44,-11.16 18.08,-19.55 28.95,-25.13 10.87,-5.59 20.58,-7.58 29.14,-5.95 z m -174.45,-108.21 c 9.18,1.75 11.85,12.8 8.03,33.15 -1.97,10.49 -8.24,20.31 -18.82,29.46 -10.59,9.17 -18.63,13.22 -24.13,12.17 -6.73,-1.29 -12.54,-5.75 -17.44,-13.39 -4.9,-7.64 -6.73,-14.85 -5.45,-21.64 0,0 1.2,-2.15 3.6,-6.49 2.39,-4.34 7.53,-8.95 15.42,-13.83 5.81,-4 13.28,-8.32 22.38,-12.97 9.11,-4.65 14.58,-6.81 16.41,-6.46 z m 581.23,86.9 c 6.12,1.16 10.38,4.69 12.75,10.57 2.37,5.88 2.63,12.15 0.74,18.83 -2.22,8.51 -17.17,12.2 -44.81,11.08 -27.66,-1.12 -79.51,-6.69 -155.53,-16.73 -49.98,-6.96 -98.85,-14.05 -146.58,-21.24 -47.73,-7.18 -84.5,-12.92 -110.3,-17.2 -6.72,-1.28 -11.57,-3.32 -14.53,-6.13 -2.94,-2.79 -3.85,-7.27 -2.7,-13.43 2.66,-14.19 10.14,-22.02 22.46,-23.51 12.3,-1.48 34.99,0.91 68,7.21 l 108.05,21.57 c 61.75,11.78 111.63,19.38 149.62,22.79 1.83,0.35 21.93,1.3 60.26,2.86 26.49,0.58 44.02,1.69 52.57,3.33 z"
   id="path237" />
  </g>
 </g>
</svg>
