<?xml version="1.0" encoding="UTF-8"?>
<!DOCTYPE svg PUBLIC "-//W3C//DTD SVG 1.1//EN" "http://www.w3.org/Graphics/SVG/1.1/DTD/svg11.dtd">
<!-- Creator: CorelDRAW 2018 (64 Bit Versão de avaliação) -->
<svg xmlns="http://www.w3.org/2000/svg" xml:space="preserve" width="152.4mm" height="57.15mm" version="1.1" style="shape-rendering:geometricPrecision; text-rendering:geometricPrecision; image-rendering:optimizeQuality; fill-rule:evenodd; clip-rule:evenodd"
viewBox="0 0 15239.98 5715"
 xmlns:xlink="http://www.w3.org/1999/xlink">
 <defs>
  <style type="text/css">
   <![CDATA[
    .str0 {stroke:black;stroke-width:7.62;stroke-miterlimit:22.9256}
    .fil0 {fill:#020100}
    .fil6 {fill:#030303}
    .fil1 {fill:#060606}
    .fil31 {fill:#090A06}
    .fil57 {fill:#0A1902}
    .fil22 {fill:#0B0101}
    .fil19 {fill:#0C0C0E}
    .fil3 {fill:#121212}
    .fil20 {fill:#19191B}
    .fil33 {fill:#1A3602}
    .fil36 {fill:#233807}
    .fil70 {fill:#3C3C3C}
    .fil50 {fill:#464648}
    .fil59 {fill:#477817}
    .fil27 {fill:#497726}
    .fil66 {fill:#4B4B4C}
    .fil54 {fill:#4E4C51}
    .fil29 {fill:#502C0B}
    .fil32 {fill:#56565A}
    .fil28 {fill:#588727}
    .fil34 {fill:#588D2E}
    .fil10 {fill:#669828}
    .fil48 {fill:#689033}
    .fil69 {fill:#6B6B6C}
    .fil15 {fill:#6BA436}
    .fil30 {fill:#704B10}
    .fil47 {fill:#74C21C}
    .fil16 {fill:#74C223}
    .fil9 {fill:#75AA29}
    .fil38 {fill:#76767A}
    .fil37 {fill:#76A751}
    .fil12 {fill:#77BA28}
    .fil23 {fill:#78C135}
    .fil56 {fill:#7ABA37}
    .fil53 {fill:#7B7B7C}
    .fil18 {fill:#7E7E82}
    .fil49 {fill:#838384}
    .fil44 {fill:#87868A}
    .fil46 {fill:#8B8B8C}
    .fil17 {fill:#8E8E91}
    .fil52 {fill:#939394}
    .fil11 {fill:#95C958}
    .fil45 {fill:#96959A}
    .fil26 {fill:#9B9B9C}
    .fil42 {fill:#9E9DA1}
    .fil62 {fill:#A6A6AA}
    .fil55 {fill:#ABABAC}
    .fil25 {fill:#AFD18F}
    .fil60 {fill:#B24C32}
    .fil41 {fill:#B3B3B4}
    .fil39 {fill:#BBBBBC}
    .fil68 {fill:#BDBDC1}
    .fil21 {fill:#CDCDD1}
    .fil63 {fill:#D5D5DA}
    .fil13 {fill:#E95431}
    .fil65 {fill:#E9DEE1}
    .fil64 {fill:#F3EBE7}
    .fil58 {fill:#FAD5D0}
    .fil43 {fill:#FBAC8F}
    .fil35 {fill:#FC6939}
    .fil14 {fill:#FC7767}
    .fil7 {fill:#FC7857}
    .fil40 {fill:#FC8B4F}
    .fil24 {fill:#FCB556}
    .fil67 {fill:#FCB8A7}
    .fil5 {fill:#FDB548}
    .fil61 {fill:#FDC7B7}
    .fil51 {fill:#FDD5C9}
    .fil8 {fill:#FF5D33}
    .fil2 {fill:#FF6236}
    .fil4 {fill:#FFBC4C}
    .fil71 {fill:black;fill-rule:nonzero}
   ]]>
  </style>
 </defs>
 <g id="Camada_x0020_1">
  <metadata id="CorelCorpID_0Corel-Layer"/>
  <g id="_1741559622192">
   <path class="fil0" d="M2805.63 3631.87c-6.51,16.93 -3.3,20.89 -23.45,28.78 -9.75,3.83 -34.63,3.99 -46.29,4.79 4.12,-34.11 33.01,-66.5 57.93,-85.98 10.17,-16.4 25.58,-29.16 40.64,-48.29 14.93,-18.99 24.38,-34.39 36.27,-58.25 32.34,-64.83 51.56,-49.12 79.61,-105.32 77.69,-6.74 175.54,-16.65 216.51,29.96 26.68,1.26 12.37,-5.35 20.75,14.14 1.56,0.57 3.97,-0.02 4.59,1.92l72.55 35.79c56.9,34.22 87.8,78.52 84.92,150.45 -4.88,121.89 23.63,165.31 -115.54,238.85 -15.05,7.95 -69.85,84.42 -184.73,50.22 -37.3,-7.12 -49.54,-19.29 -79.29,-33.55l-4.05 -28.05c-29.31,-10.39 -48.7,-24.18 -66.5,-48.45 -11.36,-15.49 -28.07,-48.65 -32.45,-70.53 -12.97,-64.77 34.29,-101.66 67.54,-126.89 6.23,-11.57 -10.63,-21.21 62.96,-29.05 -8.82,7.26 16.98,18.35 -15.55,1.82 -32.88,-16.7 4.65,7.38 -15.93,-16.77 -42.3,-5.67 -48.66,23.59 -74.05,51.35 -5.41,5.9 -30.56,30.29 -36.92,33.54 -15.28,7.83 -27.89,5.45 -49.52,9.52zm-350.88 -342.65c123.7,-68.13 303.73,373.18 149.59,376.51 -63.52,1.38 -157.8,-88.88 -188.37,-146.66 -46.16,-87.27 -37.06,-188.07 38.78,-229.85zm-808.41 34.5c19.37,0.94 29.06,5.94 35.55,24.64 18.36,7.89 15.98,3.32 32.97,20.32 5.28,5.27 15.94,22 18.98,30.28 14.07,38.24 1.11,39.05 -0.54,73.66 65.66,54.14 202.6,126.39 220.72,140.79 11.53,9.17 4.5,2.13 12.94,13.8 13.56,0.63 40.48,4.85 55.09,12.95l22.76 16.39c10.47,7.06 4.13,-0.13 17.08,10.11 32.89,6.35 43.98,22.37 88.21,30.47l-5.57 -36.63c-18.9,-7.19 -12.92,-176.1 -7.75,-201.46 5.23,-25.66 11.56,-29.99 37.11,-6.31 19.87,18.41 13.44,15.15 28.56,36.27 18.03,25.2 34.94,41.84 51.01,68.31 11.82,19.47 92.09,163.06 28.98,166.34l-0.53 31.95c44.96,5.94 75.03,19.13 117.33,28.74 80.19,18.23 227.58,49.51 307.1,52.71 75.9,3.05 55.84,1.27 67.97,18.33 -15.4,11.38 -27.5,12.28 -52.11,11.52l-164.13 -19.37c7.09,80.06 -13.14,120.77 -109.87,143.54 -62.98,14.82 -144.48,30.17 -224.73,18.61 -3.12,-33.06 12.08,-39.65 28.09,-56.52 15.16,-15.98 26.68,-29.83 48.74,-46.73 17.96,-13.77 36.32,-24.63 59.22,-35.57 27.23,-13.01 46.5,-18.71 68.01,-39.4l-44.69 -22.57c-17.91,-6.1 -36.92,-8.58 -58.76,-14.48 -24.82,-6.72 -79.76,-18.84 -94.72,-39.15l-10.96 1.54c-62.89,-7.73 -89.01,-35.18 -149.49,-49.38 -1.37,2.09 -2.34,5.12 -3.26,6.77 -0.89,1.6 -2.21,4.62 -3.33,6.47 -5.54,9.15 -1.86,4.77 -6.88,11.35 -14.3,18.71 17.32,-2.31 -14.34,10.85 -24.86,90.58 -274.56,51.13 -379.52,8.86 -1.33,-45.1 3.03,-29.26 41.25,-52.15 30.26,-18.13 29.41,-23.36 59.28,-24.5 41.51,-44.54 123.59,-15.96 171.23,-34.99 -9.35,-20.83 -95.61,-60.86 -133.61,-86.05 -146.13,-96.89 -53.2,-51.19 -156.51,-52.97 -75.35,-1.29 -131.85,-123.25 -156.73,-186.32 -10.76,-27.25 -15.94,-29.46 -12.97,-69.85 39.85,-6.27 100.87,26.17 136.36,45.97 32.97,18.39 22.18,5.18 36.46,32.86zm1417.86 -224.44c59.11,-35.61 47.82,-40.26 137.94,-44.95 52.57,-2.74 128.56,-1.76 174.5,10.9 58.44,16.1 212.54,68.24 208.34,141.75 -86.79,32.03 -398.89,22.2 -495.82,-41.15 -32.25,-21.08 -27.13,-22.4 -24.96,-66.55zm-1973.81 -61.52c25.61,13.33 34,42.35 32.54,74.71 -25.34,-3.91 -27.13,-4.12 -40.48,-26.3l-2.84 -0.66c-24.79,-13.18 -33.66,-26.8 -32.58,-57.1 28.01,-3.24 24.23,-8.09 43.36,9.35zm-74.09 -41.83c-30.82,-8.08 -47.17,-28.54 -51.32,-60.83l52.04 -6.48 -0.72 67.31zm362.32 -35.59c-3.24,-32.38 10.95,-53.97 26.18,-81.6 16.87,-30.61 23.76,-29.96 43.74,-52.06 17.43,-47.37 104,-104.71 159.96,-83.53 117.99,44.66 -35.77,270.14 -80.53,317.01 -52.02,54.49 -74.15,78.1 -168.65,70.04 -5.72,-33.8 -7.89,-108.73 2.19,-143.38l17.11 -26.48zm909.1 242.72c-29.75,38.09 -30.87,15.64 -66.31,38.23l-4.17 70.68c-26.91,-33.5 -7.02,-57.97 -26.84,-91.04 -8.78,-14.64 -15.64,-24.53 -19.81,-44.14 -5.92,-27.91 -4.1,-38.67 4.34,-60.83 35.11,-246.24 341.92,-346.29 407.47,-305.18 -4.21,33.37 -14.11,32.31 -41.18,48.47 -304.97,182.13 -166.09,315.16 -253.5,343.81zm-268.28 -209.17c-62.71,72.44 -157.41,-40.7 -166.94,174.01l-37.66 -3.58c-7.89,-127.55 43.11,-98.37 25.89,-187.59 -94.46,-106.21 97.58,-286.85 164.04,-334.92 60.96,-44.08 106.49,-67.15 182.18,-92.15 52.87,-17.45 193.65,-23.09 241.83,1.02l43.11 26.7c21.69,12.57 26.75,14.87 42.99,28.89 26.49,22.89 42.39,70.48 10.57,92.01 -28.73,19.44 -84.01,-6.38 -117.74,-9.07 -318.15,-25.33 -332.98,275.25 -388.27,304.68zm1193.75 -384.83c-26.98,-31.17 8.75,-85.69 23.84,-105.55l33.76 -37.56c101.07,-87.47 419.92,-20.9 402.85,201.52 -3.59,46.84 -22.57,75.24 -47.8,101.42 -52.95,54.94 -93.76,-5.22 -100.89,-11.87 9.55,-34.83 35.26,-15.8 24.21,-81.42 -64.08,-9.18 -49.15,27.32 -83.84,74.28 -20.32,27.5 -45.55,72.52 -88.08,66.67 -48.79,-6.72 -57.6,-60.82 -53.26,-109.7l29.11 -123.04c-29.48,-9.77 -23.97,-18.23 -56.51,-12.71l-8.6 24.37c8.18,18.9 11.96,16.53 12.56,37.44 -30.27,11.23 -81.45,16.05 -87.35,-23.85zm737.84 197.34c-30.09,-12.51 -41.73,-27.33 -64.62,-42.53 -9.83,90.11 -4.71,197.92 -28.24,308.08 -6.7,31.36 -17.46,52.07 -21.81,93.67 30.55,9.09 40.27,12.12 55.87,44.27 18.77,35.36 23.74,61.38 24.57,111.17 0.71,42.23 1,84.01 -22.06,114.28 -41.63,-5.1 -91.03,-88.8 -95.12,-109.8l-21.36 -25.91c-12.33,12.77 -70.88,128.86 -115.46,160.6 -4.26,61.82 14.11,71.7 -16,91.08 -5.1,50.55 -125.82,143.58 -203.95,132.78 -8.78,-37.21 -4.28,-81.27 12.63,-106.81 17.3,-26.12 29,-55.68 52.04,-68.25 12.14,-19.68 -0.92,-2.67 12.57,-16.47 1.72,-1.76 7.08,-6.37 8.98,-7.85 71.31,-55.46 67,22.92 143.63,-85.49l88.97 -149.06c13.25,-17.64 -1.21,-6.03 22.84,-20.08 -7.63,-20.63 7.41,-32.99 11.84,-60.9 9.93,-60.78 31.72,-93.39 30.31,-162.18 -67.35,29.68 16.69,8.77 -92.56,31.31 -21.16,6.39 -28.16,16.54 -65.72,16.78 -8.65,-60.98 74.12,-248.33 175.54,-192.75 18.64,-115.21 -21.49,-216.09 -27.43,-309.27l7.42 -38.86c23.2,17.73 32.76,85.11 40.37,111.81 124.56,-6.18 139.96,63.18 132.11,192.79 -23.48,1.25 -29.77,7.11 -45.36,-12.41zm305.72 -189.96c-14.74,19.88 -1.76,3.26 -8.04,18.97l-32.4 78.57c-28.99,57.78 -34.62,112.45 -87.51,214.35l-68.8 97.75c0,-43.31 8.42,-44.4 13.58,-73.96 5.6,-32.12 4.52,-54.14 10.94,-84.6l19.87 -75.56c8.63,-30.54 14.2,-36.38 23.25,-72.13l62.02 -224.26c9.1,-38.64 21.33,-38.49 4.17,-83.5 0.09,-42.86 -2.94,-91.01 10.7,-131.45 30.79,-4.35 45.15,2.19 62.18,16.63 12.64,22.2 20.85,263.14 -0.6,309.08 -0.68,1.46 -3.82,6.35 -4.38,5.09 -0.6,-1.31 -3.22,3.46 -4.98,5.02zm-434.03 -213.39c-10.5,30.67 -10.35,22.3 -43.71,34.68 -21.19,7.86 -40.64,13.27 -60.26,18.92l-22.92 5.56 -29.32 14.85c-75.08,-41.05 -51.88,-42.89 -77.39,-80.94 7.68,-14.04 0.91,-2.42 9.19,-13.27l26.6 -33.69c10,-21.94 11.21,-20.23 31.99,-34.97l34.88 -24.55c1.05,-3.17 4.06,-2.67 6.17,-3.87l11.36 -10.98c1.73,-1.5 3.83,-3.54 5.19,-4.53l35.97 -17.64 63.53 -20.41c12.54,-12.01 41.52,-10.97 65.18,-9.91 49.64,2.24 29.08,7.27 66.41,20l2.77 24.72c-0.83,26.77 -7.24,25.71 -22.95,40.06 -16.2,14.81 -18.4,19.31 -27.7,35.42 -20.86,36.13 -32.21,48.13 -74.99,60.55zm1463.28 -843.16c-9.66,27.09 11.1,23.5 -24.42,31.37 -28.4,6.3 -18.76,-7.02 -23.62,-16.47 25.49,-17.43 14.68,-11.62 48.04,-14.9zm282.88 -559.24c-17.09,31.35 -14.53,16.84 -37.25,39.72 -20.19,20.34 -14.13,20.77 -39.3,39.03 -27.95,2.9 -38.66,22.36 -62.85,40.97l-122.79 82.92c-59.23,38.42 -104.91,57.97 -165.78,87.2 -71.34,34.24 0.88,43.81 -153.27,99.87l-241.79 121.82c-21.86,11.67 -43.62,20.87 -64.34,30.49 -246.98,114.6 -118.62,85.39 -225.85,233.66 -35.01,48.4 -37.54,86.72 -107.95,121.87l-792.13 170.98c-6.55,12.52 12.13,18.28 -17.84,18.1 85.39,30.9 57.49,16.18 64.95,40.01l-38.49 12.85c-51.86,-18.32 -70.96,8.78 -125.92,8.78 -19.29,-73.2 -103.3,-29.6 -127.07,-25.09 -27.72,5.27 -48.63,5.09 -76.4,10.31 -25.01,4.7 -13.08,4.62 -36.61,10.75l-192.96 31.38c-40.34,2.15 -95.68,28.22 -141.26,36.66l-147.4 34.05c-44.05,13.92 -24.94,16.81 -105.36,36.77 -56.07,13.92 -25.48,20.18 -109.26,24.86 -44.39,2.47 -128.76,28.7 -168.74,44.33 -50.17,19.63 -227.25,49.06 -280,67.15 -27.07,9.28 -45.46,10.83 -77.84,16.82l-291.92 78.99c-23.11,6.57 -47.89,8.77 -71,15.78l-299.74 71.08c-32.41,8.02 -43.43,10.59 -73.93,20.78 -51.55,17.22 -96.1,25.49 -135.24,51.68 -26.15,34.11 -229.44,66.4 -301.69,88.68l-4.15 11.17c-22.08,64.39 -14.73,23.92 -58.57,67.85 -14.84,14.87 -22.43,21.96 -24.74,48.22 -6.11,69.54 24.43,49.24 24.5,49.26l24.8 14.34 0.32 70.39c30.3,23.05 28.8,31.51 45.67,72.71 0.37,15.43 90.9,148.73 106.74,170.98l20.29 27.28c1.01,1.32 2.45,3.16 3.47,4.47l41.12 61.99c23.81,45.18 19.01,64.56 56.06,74.4 18.39,4.88 5,-16.28 51.08,32.25l80.39 78.2c19.82,35.94 -17.41,34.79 37.11,74.13 28.01,20.21 19.53,23.17 44.49,20.43 84.19,20.07 32.62,-6.98 99.99,39.98l65.46 53.77 18.98 55.91c25.29,17.47 48.65,48.3 83.85,51.68 60.5,5.8 58.21,9.04 97.5,39.18 2.35,37.3 -7.95,-0.5 2.81,44.66 10.68,14.6 13.87,-4.46 71.88,32.15 54.21,34.23 38.5,39.24 71.08,32.16l180.98 86.88c11.42,4.98 25.2,8.48 33.6,13.21 36.42,20.49 14.43,0.4 21.72,26.98 -26.76,10.81 -124.33,-23.96 -166.59,-25.23 50.31,34.48 68.1,11.43 95.44,49.15 26.28,11.74 38.04,12.92 70.94,0.04l38.59 -2.07c12.43,-11.58 5.34,-14.99 55.65,-10.27l167.48 38.82c5.54,1.25 18.41,5.34 20.11,6.27 42.19,23.03 -9.36,-14.44 17.19,15.05 63.64,28.68 136.98,12.2 208.04,28.52 56.71,13.03 39.85,19.4 94.77,-1.62 57.39,-21.96 24.5,25.27 90.73,-7.14 91.96,25.06 60.62,2.6 94.43,40.1 28.65,-0.28 59.88,-1.35 85.82,-5.81 58.94,-10.12 32.54,-17.51 71.58,-36.19l7.91 6.07c14.23,-19.78 -10.39,-5.17 23.3,-18.24 0.24,-0.1 28.78,-5.47 33.2,-6.32 25.03,-4.86 35.66,-9.09 61.51,-12.26 16.98,2.87 10.35,4.9 22,-3.05 -31.58,-17.4 -55.67,4.37 -85.43,-1.18 -24.62,-4.59 -16.59,-3.51 -29.97,-14.77l65.94 -22.85c19.35,-5.01 38.43,-11.37 62.99,-16.99 39.55,-12.19 88.13,-30.72 129.74,-25.44 9.31,38.6 5.35,18.46 15.74,31.4l62.96 -29.01c44.47,13.05 4.41,7.97 35.06,-4.74l74.15 -37.02c66.04,-50 112.86,-44.67 151.58,-85.45 15.5,-16.33 6.58,-5.07 10.77,-17.23 11.91,-23.18 -1.48,-5.83 19.05,-24.46 9.72,-8.83 16.66,-13.67 32.06,-20.3l55.04 5.71 0.67 -32.72 7.19 -47.73c30.22,-25.74 63.56,-59.83 110.24,-78.54 21.7,4.18 4.9,7.89 22.89,-2.07 15.36,-8.5 8.08,-2.05 10.59,-15.19 14.99,-23.28 39.92,-44.93 68.83,-55.78 21.98,6.17 8.84,18.33 15.73,-8.01 24.59,-6.65 18.89,-0.51 20.37,-23.93l25.73 -25.26c22.41,-30.24 56,-57.13 85.06,-88.93 32.42,-35.48 60.87,-82.57 81.33,-96.44 23.67,-9.61 100.07,-96.39 100.43,-123.85 0.39,-29.18 -9.96,-6.94 -3.56,-45.73l50.58 -124.26c36.98,-97 -13.66,-39.54 70.56,-159.75 171.65,-244.98 99.64,-263.65 159.52,-532.6 21.48,-96.51 -36.91,-42.48 2.45,-180.39 9.16,-32.08 5.45,-61.77 16.07,-95.41 8.13,-25.75 27.73,-58.84 13.23,-98.27l34.57 -141.05c48.74,-22.29 74.28,-28.73 112.43,-60.5 22.71,-18.9 89.34,-39.37 128.4,-53.58 11.71,1.27 5.25,4.89 23.61,-0.05 -2.73,-33.31 -3.41,-20.83 -23.57,-47.84 15.62,-29.58 19.52,-36.23 55.05,-40.47 15.75,3.85 13.47,34.23 19.69,20.82 0.65,-1.42 2.5,3.61 4.24,6.75l39.03 -9.33 191.52 -38.88c25.2,-9.87 26.07,-22.17 36.71,-42.55 18.19,0.41 31.53,4.3 39.35,3.72l191.53 -56.86 198.72 -109.63c43.25,-27.36 167.53,-71.32 263.02,-140.18 42.64,-30.74 74.82,-53.31 123.4,-82.29 28.68,-17.11 35.39,-22.79 59.96,-42.91l56.03 -46.9c1.44,-1.39 11.54,-10.72 12.34,-11.41l94.52 -79.7c15.64,-34 -1.53,0.14 15.67,-24.47 10.2,-14.6 -3.18,10.52 11.24,-18.65l-74.17 9.83c-17.65,2.41 -44.37,25.8 -61.26,42.98l-29.05 34.37c-37.68,50.7 -12.5,-0.89 -100.82,65.29 -24.98,18.71 -46.69,31.16 -68.94,50.13 -30.21,30.54 -77.48,39.59 -115.88,65.5 -84.87,57.25 -26.61,23.14 -118.86,63.47 -63.17,27.61 -175.67,115.02 -247.58,112.25 28.23,-53.96 69.03,-58.16 121.65,-88.61 41.22,-23.86 92.13,-49.35 136.74,-69.46 50.21,-22.64 89.36,-45.87 135.79,-68.76 75.84,-37.38 97.9,-68.1 127.85,-80.37 26.86,-9.97 16.03,2.85 21.7,-21.73 10.67,-21.47 5.48,-16.13 25.52,-25.23 40.84,-7.72 21.18,-24.43 79.04,-62.14 38.55,-25.12 109.84,-103.44 109.84,-127.94 0,-22.99 -66.44,-93.08 -90.91,-131.16 -0.92,-1.43 -2.19,-3.39 -3.11,-4.82 -101.14,-157.97 -106.56,-116 -256.73,11.84 -29.62,25.21 -48.4,39.62 -87.79,54.58 -40.71,15.46 -160.81,64.51 -169.59,109.43z"/>
   <path class="fil1" d="M3119.99 1929.67c20.14,-12.78 41.65,-23.17 70.89,-32.32 12.35,-3.85 33.99,-7.18 50.69,-8.33 12.06,-0.84 19.18,-2.32 31.32,0.73 19.06,4.8 7.72,3.07 18.18,11.97 -7.92,8.21 1.62,7.24 -19.75,13.71l-61.89 7.55c-37.61,6.66 -48.01,10.85 -89.44,6.69zm42.84 -51.91c-35.81,-15.54 -51.52,0.16 -79.2,7.48l-233.43 50.58c-46.96,9.76 -108.24,23.4 -153.37,35.98 -126.37,35.21 -113.82,38.45 -215.23,76.96 -146.13,55.48 -167.18,32.73 -276.75,62.47l-486.29 137.22c-70.18,22.78 -156.33,40.36 -224.15,67.93l-145.18 52.25c-7.11,1.89 -13.16,2.8 -19.18,4.5l-272.25 90.95c-4.77,2.06 -11.32,5.21 -16.43,7.27 -47.36,19.03 -240.96,93.06 -247.38,116.15 2.8,34.1 -0.94,11.9 10.79,28.94l17.03 22.65c13.24,32.07 -6.88,47.97 35.14,48.33 62.81,20.19 64.47,8.17 126.72,0.15 64.55,-8.32 68.38,-17.35 117.25,-39.02 44.79,-4.44 -2.36,-13.14 55.36,-28.85l200.98 -67.51c25.58,-8.84 34.18,-18.58 55.87,-31.1 25.63,-14.78 40.78,-19.74 67.12,-27.67l146.68 -34.79c31.14,-5.2 168.29,-24.82 184.42,-37.49 27.55,-21.64 6.84,-24.87 6.68,-26.43 -3.55,-33.17 -25.83,2.36 42.87,-33.81 93.39,-49.17 33.99,-22.02 140.71,-40.95 29.25,-5.18 44.22,-11.69 70.4,-16.38l581.83 -144.09c46.21,-20.53 21.67,-25.15 100.57,-33.66 28.54,-3.07 17.5,-0.32 39.79,-7.53l228.09 -47.97c36.49,-5.65 267.21,-58.9 284.69,-72.91l20.8 -16.5c4.8,-2.88 7.35,-2.27 16.78,-7.97 -26.15,-8.11 -22.3,-4.94 -35.5,-23.37 17.97,-21.98 23.13,-13.02 43.75,-34.78l-37.85 -7.43c6.49,-30.29 -10.9,-13.62 15.67,-29.51 35.64,-18.43 42.19,-0.76 45.77,-39.92 -22.79,-10.97 -6.41,-8.47 -50.73,3.13 -18.09,4.75 -38.34,8.47 -54.48,12.14 -36.8,8.35 -71,17.5 -108.36,24.56z"/>
   <path class="fil2" d="M1840.73 2976.73c51.94,-3.51 37.41,0.82 87.85,25.15 1.78,0.86 3.61,2.08 5.45,2.89 34.33,14.94 49.85,4.66 85.41,-10.88 55.29,-29.43 70.12,-330.01 388.27,-304.68 33.73,2.69 89.01,28.51 117.74,9.07 31.82,-21.53 15.92,-69.12 -10.57,-92.01 -16.24,-14.02 -21.3,-16.32 -42.99,-28.89l-43.11 -26.7c-48.18,-24.11 -188.96,-18.47 -241.83,-1.02 -75.69,25 -121.22,48.07 -182.18,92.15 -66.46,48.07 -258.5,228.71 -164.04,334.92z"/>
   <path class="fil3" d="M1728.49 4144.51l3.27 19.44c38.38,13.72 115.94,50.13 143.53,74.19l22.56 21.59c11.38,6.66 20,9.13 31.86,15.78 25.31,14.19 39.51,25.01 67.98,34.79l114.31 27.72c19.3,4.84 29.2,2.98 49.19,5.97 27.16,4.05 41.6,10.32 80.38,14.26 27.6,2.8 168.26,52.45 239.56,26.44 14,-5.1 -8.68,-0.24 20.63,-10.99 11.86,17.95 26.07,27.44 43.36,31.89l78.31 0c27.99,-2.99 60.64,-7.03 98.86,-7.79 54.85,-1.08 53.76,-16.89 117.63,-16.37 67.9,0.55 64.07,0 114.26,-15.71 8.82,-7.37 -0.88,-4.17 22.05,-14.96 0.29,-0.14 15.62,-5.1 15.95,-5.2 22.92,-6.68 28.99,-7.63 52.6,-9.23 40.29,10.87 45.5,-3.46 76.84,-12.34 38.71,-10.98 49.55,5.24 76.57,-22.06 43.92,-45.51 174.84,-15.5 179.85,-95.69 -11.61,-8.09 -0.42,-19.73 -56.4,0.83 -90.67,33.29 -63.32,-48.01 -174.55,-9.91 -17.05,1.93 -0.9,-4.16 -22.41,9.78 -11.24,7.29 -17.5,12.6 -28.42,23.22 -27.12,54.69 10.69,-1.88 -3.07,43.14 -14.12,46.22 -99.84,40.94 -134.98,37.85 -1.19,-1.75 -1.96,-4.55 -2.61,-5.8 -0.63,-1.23 -1.83,-4.2 -2.65,-5.67 -22.36,-39.48 -62.25,-27.9 -128.53,-14.91l-23.24 -8.14 -0.37 25.3c36.55,3.08 13.77,-8.55 31.48,15.95 -27.74,6.55 -25.85,7.97 -62.96,7.97 -15.13,-57.45 -51.96,-11.24 -152.34,-28.65l-263.88 -20.1c-20.96,-2.38 -45.2,-13.19 -64.33,-13.7 -37.65,-1.02 -32.14,21.35 -117.6,-9.26 -44.6,-15.98 -15.56,-17.49 -106.71,-43.4 -39.82,-11.31 -194.53,-66.14 -231.65,-53.32 -81.77,-10.81 -35.2,-1.33 -94.48,-35.53 -24.54,11 -23.03,-14.29 -21.03,12.76l11.18 9.86z"/>
   <path class="fil4" d="M3213.19 2609.06c31.01,15.96 26.36,21.69 69.49,18.38 -3.57,-19.68 -7.99,-24.35 -7.72,-50.5l21.62 -5.84c32.54,-5.52 27.03,2.94 56.51,12.71l-29.11 123.04c-4.34,48.88 4.47,102.98 53.26,109.7 42.53,5.85 67.76,-39.17 88.08,-66.67 34.69,-46.96 19.76,-83.46 83.84,-74.28 11.05,65.62 -14.66,46.59 -24.21,81.42 7.13,6.65 47.94,66.81 100.89,11.87 25.23,-26.18 44.21,-54.58 47.8,-101.42 17.07,-222.42 -301.78,-288.99 -402.85,-201.52l-33.76 37.56c-15.09,19.86 -50.82,74.38 -23.84,105.55z"/>
   <path class="fil5" d="M3067.66 3517.67c4.48,13.35 6.09,16.96 11.04,27.56 23.99,17.06 8.98,31.87 41.62,58.34 90.05,37.07 129.13,-3.7 178.25,28.53 -13.57,27.88 15.53,10.11 -28.49,21.31 -9.87,2.52 -33.5,3.28 -44.04,2.81 -33.6,-1.51 -51.96,-11.46 -91.67,-13.3 0.35,67.39 20.37,123.72 42.01,175.76l-19.39 7.25c-42.74,10.44 -35.29,2.16 -44.59,-28.26 -54.05,15.96 -53.25,-4.02 -99.57,17.84 8.6,28.93 18.37,1.11 23.63,28.66l0.33 7.98c0.03,-1.08 -0.52,3.19 0.12,4.56 41.45,10.69 7.71,3.17 29.58,-3.59 6.33,-1.95 29.86,-33.73 48.09,18.21 -5.5,1.61 -21.02,1.53 -30.69,3.73l-28.03 10.21c-1.33,-1.95 -4.41,2.28 -6.47,3.66 114.88,34.2 169.68,-42.27 184.73,-50.22 139.17,-73.54 110.66,-116.96 115.54,-238.85 2.88,-71.93 -28.02,-116.23 -84.92,-150.45l-72.55 -35.79c-0.62,-1.94 -3.03,-1.35 -4.59,-1.92l-111.39 14.78c12.81,1.77 44.32,0.19 50.66,12.04 0.66,1.22 2.43,4.01 3.17,5.47 0.69,1.39 2.02,3.91 2.7,5.36l6.48 19.01c34.9,8.4 44.35,3.86 51.09,37.5l-114.05 -11.46c-10.44,10.43 -8.88,-17.77 -8.6,23.27z"/>
   <path class="fil6" d="M4168.45 1518.97c19.27,16.97 209.23,70.2 322.22,-26.12l48.45 -54.81c9.35,-22.44 12.36,12.22 3.22,-30.7 13.46,-83.97 -25.17,-85.72 -96.71,-74.8l-9.66 -4.95c-25.92,24.95 -35.37,15.5 -98.96,34.58 -33.45,10.04 -68.16,22.67 -96.47,30.56 -35.44,9.88 -62.95,13.21 -101.39,24.8 -15.16,4.57 -30.93,9.08 -47.39,14.02 -39.95,11.98 -30.96,13.24 -37.41,23.63 40.1,45.5 83.75,20.63 114.1,63.79z"/>
   <path class="fil7" d="M809.49 1935.38c55.62,25.36 146.61,83.72 185.36,128.29 35.43,27.82 64.14,80.11 59.2,132.67 -32.61,-3.58 -90.03,-34.13 -115.01,-50.44l-29.97 -28.87c-5.13,-26.22 -79.07,-78.39 -101.7,-101.28l-32.87 -38.65c-1.08,-1.28 -2.57,-3.12 -3.63,-4.4 -22.65,-27.24 -10.97,-25.55 -31.97,-25.87 -19.56,-13.85 -10.59,-2.52 -22.13,-21.25 -12.97,-21.04 -7.06,-12.58 -11.77,-34.62 37.18,3.15 81.29,23.92 104.49,44.42zm118.29 253.46c66.4,36.36 117.54,77.91 155.62,57.24l8.99 -9.48c33.59,-29.02 -1.66,37.02 10.06,-15.76 11.11,-50.07 -32.23,-128.57 -48.72,-167.61 12.42,-23.2 12.53,-3.71 -4.75,-26.81 -19.07,-25.5 -103.6,-74.37 -132.35,-89.48l-225.5 -122.38c-27.7,-13.23 -35.45,-16.5 -78.15,-16.5 -12.29,53.46 13.12,74.21 53.34,145.31l147.45 177.53c8.74,8.5 5.57,4.59 13.22,10.54l30.14 25.27c1.22,1.09 2.92,2.7 4.16,3.77 1.23,1.06 2.98,2.63 4.24,3.67 30.89,25.38 20.47,7.5 38.64,32.62l23.61 -7.93z"/>
   <path class="fil8" d="M2174.93 3115.96l5.3 59.63c16.94,28.88 36.6,5.16 71.09,18.35 21.29,8.15 -2.31,9.68 36.4,9.12 87.41,-28.65 -51.47,-161.68 253.5,-343.81 27.07,-16.16 36.97,-15.1 41.18,-48.47 -65.55,-41.11 -372.36,58.94 -407.47,305.18z"/>
   <path class="fil9" d="M2229.36 3755.26c14.96,20.31 69.9,32.43 94.72,39.15 21.84,5.9 40.85,8.38 58.76,14.48l44.69 22.57c-21.51,20.69 -40.78,26.39 -68.01,39.4 -22.9,10.94 -41.26,21.8 -59.22,35.57 -22.06,16.9 -33.58,30.75 -48.74,46.73 -16.01,16.87 -31.21,23.46 -28.09,56.52 80.25,11.56 161.75,-3.79 224.73,-18.61 96.73,-22.77 116.96,-63.48 109.87,-143.54l164.13 19.37c24.61,0.76 36.71,-0.14 52.11,-11.52 -12.13,-17.06 7.93,-15.28 -67.97,-18.33 -79.52,-3.2 -226.91,-34.48 -307.1,-52.71 -42.3,-9.61 -72.37,-22.8 -117.33,-28.74l0.53 -31.95c-29.83,8.11 -4.08,1.15 -17.65,12.62 -21.97,18.57 9.06,-3.43 -11,11.38 -1.61,1.18 -14.07,5.45 -24.43,7.61z"/>
   <path class="fil10" d="M2509.63 3404.95c50.64,9.5 55.06,75.4 56.34,125.76 -29.65,-14.19 -28.79,-22.09 -42.77,-54.96 -4.1,-9.66 -11.15,-27.56 -14.17,-36.18 -10.89,-31.04 -6.24,-20.42 0.6,-34.62zm-8.67 -55.51c24.66,-64.91 96.79,86.66 99.66,93.99 21.49,54.83 46.51,119 27.02,180.66 -34.08,8.35 -63.07,5.79 -83.72,-32.97 -6.15,-11.56 -8.36,-18.97 -12.53,-34.52 34.84,15.08 19.94,16.1 62.1,17.37 5.67,-63.24 -4.62,-125.99 -34.42,-182.21 -14.77,-27.87 -17.16,-28.69 -40.26,-31l-24.96 7.9c27.64,5.98 14.85,2.51 27.28,16.25 -53.93,6.04 -10.98,-6.85 -34.51,32.8 -9.29,15.68 -1.86,5.6 -16.13,17.04l-10.54 7.11c-0.88,-1.61 -3.75,2.39 -5.41,3.86l-9.2 -39.05c1.24,-24.88 2.91,-26.26 9.97,-45.68 18.23,-6.21 21.77,-11.77 45.65,-11.55zm-46.21 -60.22c-75.84,41.78 -84.94,142.58 -38.78,229.85 30.57,57.78 124.85,148.04 188.37,146.66 154.14,-3.33 -25.89,-444.64 -149.59,-376.51z"/>
   <path class="fil11" d="M1059.48 1646.55c-14.42,31.99 -18.18,34.4 -48.76,42.82 1.64,-37.22 0.94,-44.23 19.37,-66.21 1.04,-1.74 2.18,-6.68 2.59,-5.5l10.62 -21.53c35.99,-71.08 26.43,-68.3 65.49,-69.19 -6.36,77.33 -41.02,103.97 -49.31,119.61zm-131.7 -63.83c30.25,-14.03 20.61,-7.31 36.53,-36.68 15.95,-29.45 74.27,-87.14 105.13,-106.52 26.67,21.57 33.06,6.53 46.75,47.51 -23.55,9.66 -32.88,17.66 -43.56,38.96 -17.61,-2.84 -14.03,-3.31 -20.49,-6.23 -1.55,-0.69 -8.71,-5.73 -12.81,-7.64 -16.47,35.87 -23.12,23.47 -42.66,52.91 -84.96,128.01 -39.66,186.99 -39.37,253.85 -39.34,0.96 -14.69,8.66 -51.29,-12.8 37.36,51.17 98.12,5.56 147.69,-15.95 22.66,5.11 75.75,-25.67 70.86,-55.86 35.85,-75.25 -11.27,-6.55 12.33,-67.72 12.47,-32.28 16.48,-33.96 15.95,-75.45l-31.83 -0.51 0.77 -67.54 30.53 -1.26c-24.56,-36.57 -19.08,-13.3 -19.88,-66.34 50.86,25.28 20.53,9.52 51.38,46.29 17.89,21.33 -18.75,-6.06 19.37,17.19 -1.05,-64.53 -2.35,-40.01 -31.4,-87.67 -0.35,-5.63 2.93,-15.33 -36.61,-27.54 -26.32,-8.12 -25.69,-2.55 -52.37,8.86 -2.33,0.99 -9.01,3.76 -11.31,4.74 -52.77,22.58 -58.51,26.15 -89.74,68.62l-24.28 31.22c-20.71,25.04 -6.13,17.09 -29.69,25.73l0 39.83z"/>
   <path class="fil12" d="M3734.1 3038.31c27.58,-38.84 118.93,-46.87 129.11,-68.39 3.88,-26.92 3.6,-73.57 6.03,-111.29 1.38,-21.42 0.8,-35.07 0.57,-56.01 -0.25,-23.23 -1.16,-34.9 9.19,-53.82 28.66,7.45 56.46,31.27 72.03,57.6 15.59,19.52 21.88,13.66 45.36,12.41 7.85,-129.61 -7.55,-198.97 -132.11,-192.79 -7.61,-26.7 -17.17,-94.08 -40.37,-111.81l-7.42 38.86c5.94,93.18 46.07,194.06 27.43,309.27 -101.42,-55.58 -184.19,131.77 -175.54,192.75 37.56,-0.24 44.56,-10.39 65.72,-16.78z"/>
   <path class="fil13" d="M3130.73 3113.79c65.43,-41.19 252.1,-16.72 323.02,30.83 28.99,19.43 12.92,-5.01 26.46,27.28 -64.64,1.17 -319.08,13.62 -349.48,-58.11zm-66.53 -14.51c-2.17,44.15 -7.29,45.47 24.96,66.55 96.93,63.35 409.03,73.18 495.82,41.15 4.2,-73.51 -149.9,-125.65 -208.34,-141.75 -45.94,-12.66 -121.93,-13.64 -174.5,-10.9 -90.12,4.69 -78.83,9.34 -137.94,44.95z"/>
   <path class="fil12" d="M1762.11 3675.07c-29.87,1.14 -29.02,6.37 -59.28,24.5 -38.22,22.89 -42.58,7.05 -41.25,52.15 104.96,42.27 354.66,81.72 379.52,-8.86 0.08,-20.62 -1.1,-23.64 7.05,-43.82 10.88,-26.95 4.14,16.14 13.74,-32.38 -12.95,-10.24 -6.61,-3.05 -17.08,-10.11l-22.76 -16.39c-14.61,-8.1 -41.53,-12.32 -55.09,-12.95 -43.12,27.94 -1.05,34.34 -91.84,32.21 -46.65,-1.1 -74.41,19.08 -113.01,15.65z"/>
   <path class="fil14" d="M652.37 1455.22c-43.96,20.57 -4.04,20.64 -58.74,31.37l17.42 -26.41c9.02,-17.78 3.21,8.95 9.76,-28.92 -13.58,5.6 -17.89,1.22 -36.43,27.4 -0.95,1.35 -2.09,3.49 -2.91,4.84 -3.73,6.09 -3.39,3.34 -7.47,15.6l-53.79 44c0.12,-29.02 2.74,-33.37 21.94,-51.93l92.03 -130.07c21.19,-25.3 2.73,17.22 18.15,-21.48l23.61 0 0 23.88 39.39 -15.87c-23.32,-7.76 -12.13,13.77 -13.7,-22.64 -2.97,-69.04 -2.11,-21.81 13.66,-41.15 69.14,23.6 11.93,91.93 -16.53,127.62 -19.73,24.75 -0.03,2.16 -17.5,21.91 -20.74,23.44 -20.58,12.83 -28.89,41.85zm0 0c24.27,-0.37 25.32,-1.35 56.54,-38.41l37.57 -49.65c17.88,-30.13 39.55,-73.52 7.66,-110.99 -18.43,-21.66 -50.97,-22.43 -76.52,-15.35l-81.77 45.48c-1.17,1.15 -2.71,2.92 -3.82,4.12 -43.59,46.62 -84.42,110.4 -110.43,167.2 -21.51,46.99 -62.64,108.43 -49.63,165.01 50.82,0 50.56,-2.94 88.93,-29.5l30.53 -24.89c1.21,-1.09 2.94,-2.67 4.16,-3.75l29.95 -25.48c60.14,-54.32 66.24,-43.9 66.83,-83.79z"/>
   <path class="fil2" d="M2793.82 3579.46c2.46,9.79 14.95,-23.55 -1.44,20.38l-11.84 24.29 25.09 7.74c21.63,-4.07 34.24,-1.69 49.52,-9.52 6.36,-3.25 31.51,-27.64 36.92,-33.54 25.39,-27.76 31.75,-57.02 74.05,-51.35 47.08,5.37 59.42,12.89 112.58,7.77 -4.95,-10.6 -6.56,-14.21 -11.04,-27.56 -32.5,-17.51 -19,-6.62 -20.01,-31.36l63.92 -2.46c-1.31,-2.07 -3.1,-4.78 -4.01,-6.17l-20.37 -25.41c-1.01,-0.63 -3.1,-1.79 -4.27,-2.39 -38.95,-19.77 -39.29,2.49 -40.63,-33.07 29.6,-10.14 39.1,2.98 69.93,-12.03 31.32,-15.25 -30.47,-17.36 54.63,-7.22 -40.97,-46.61 -138.82,-36.7 -216.51,-29.96 -28.05,56.2 -47.27,40.49 -79.61,105.32 -11.89,23.86 -21.34,39.26 -36.27,58.25 -15.06,19.13 -30.47,31.89 -40.64,48.29z"/>
   <path class="fil1" d="M4044.22 1734.27c-17.8,33.27 33.46,85.42 75.44,99.14 68.07,22.25 150.38,-8.42 179.02,-40.7 18.9,-21.31 13.16,-14.31 13.16,-50.47l-84.18 -42.29c-17.66,-10.49 -21.65,-13.42 -39.05,-24.44 -43.06,-27.26 -19.08,-22.21 -49.91,-15.07 -45.83,-18.75 -57.07,-47.23 -111.89,-55.92 -8.54,51.05 5.91,78.2 17.41,129.75z"/>
   <path class="fil15" d="M1448.54 2826.68l37.15 -7.07c1.32,-2.48 4.65,0.46 6.95,0.87l-7.42 40.12c-0.36,-1.17 -1.86,4.67 -2.49,7.1 41.93,-15.6 12.18,-31.19 61.56,-12.23 3.92,36.29 -33.3,84.58 -51.76,113.43 -20.85,32.57 -38.56,80.39 -93.56,71.06l15.78 45.94c18.91,-7.35 19.5,-7.2 34.74,-18.31 16.47,-12.02 2.54,1.75 19.86,-19.49 13.16,-16.15 26.13,-32.75 39.13,-49.83 16.03,-16.54 40.82,-57.04 47.73,-78.01 48.75,-148.03 -7.01,-97.7 -25.42,-142.72 40.75,-5.69 73.94,1.2 85.02,37.82 10.55,34.81 -10.15,52.97 -15.44,64.13 -13.24,27.95 -6.26,37.37 -19.17,59.45l-68.84 95.25c-20.95,33.4 -99.34,113.56 -119.58,63.69 -15.69,-11.38 5.24,0.79 -17.67,-11.73 -20.32,-11.1 5.16,-8.15 -11.87,-4.3 3.8,-43.48 17.63,-81.74 15.38,-121.51l-17.11 26.48c-10.08,34.65 -7.91,109.58 -2.19,143.38 94.5,8.06 116.63,-15.55 168.65,-70.04 44.76,-46.87 198.52,-272.35 80.53,-317.01 -55.96,-21.18 -142.53,36.16 -159.96,83.53z"/>
   <path class="fil12" d="M2144.53 3660.5c33.44,21.44 14.3,22.9 22.37,67.29 6.82,2.2 22.33,6.15 26.21,7.97 29.05,13.61 12.76,4.05 25.29,21.04l10.96 -1.54c10.36,-2.16 22.82,-6.43 24.43,-7.61 20.06,-14.81 -10.97,7.19 11,-11.38 13.57,-11.47 -12.18,-4.51 17.65,-12.62 63.11,-3.28 -17.16,-146.87 -28.98,-166.34 -16.07,-26.47 -32.98,-43.11 -51.01,-68.31 -15.12,-21.12 -8.69,-17.86 -28.56,-36.27 -25.55,-23.68 -31.88,-19.35 -37.11,6.31 -5.17,25.36 -11.15,194.27 7.75,201.46z"/>
   <path class="fil5" d="M2934.64 3581.46c-33.25,25.23 -80.51,62.12 -67.54,126.89 4.38,21.88 21.09,55.04 32.45,70.53 17.8,24.27 37.19,38.06 66.5,48.45 -13.21,-28.54 2.61,-10.02 36.68,-25.99 12.98,-61.24 1.05,-11.96 -3.35,-40.75 -4.32,-28.19 -6.43,-17.76 5.23,-32.8 18.39,-49.59 24.45,-46.48 54.29,-73.73 38.07,-34.76 19.22,-69.2 -30.77,-79.64 -37.33,-7.8 -60.17,2.29 -93.49,7.04z"/>
   <path class="fil15" d="M1762.11 3675.07c38.6,3.43 66.36,-16.75 113.01,-15.65 90.79,2.13 48.72,-4.27 91.84,-32.21 -8.44,-11.67 -1.41,-4.63 -12.94,-13.8 -18.12,-14.4 -155.06,-86.65 -220.72,-140.79 1.65,-34.61 14.61,-35.42 0.54,-73.66 -3.04,-8.28 -13.7,-25.01 -18.98,-30.28 -16.99,-17 -14.61,-12.43 -32.97,-20.32 10.08,40.26 44.16,22.97 28.98,116.29 -2.12,1.03 -5.28,-0.2 -6.56,2.57l-36.58 9.21c-102.2,13.01 -113.41,-86.51 -130.13,-111.98 -0.87,-1.33 -2.34,-3.14 -3.26,-4.47l-16.99 -24.63c-21.51,-42.38 0.26,-40.82 0.26,-40.8l26.98 -3.82c1.24,0.09 30.1,7.31 33.45,8.4 24,7.84 46.12,19.29 68.3,24.59 -14.28,-27.68 -3.49,-14.47 -36.46,-32.86 -35.49,-19.8 -96.51,-52.24 -136.36,-45.97 -2.97,40.39 2.21,42.6 12.97,69.85 24.88,63.07 81.38,185.03 156.73,186.32 103.31,1.78 10.38,-43.92 156.51,52.97 38,25.19 124.26,65.22 133.61,86.05 -47.64,19.03 -129.72,-9.55 -171.23,34.99z"/>
   <path class="fil12" d="M3784.51 3230.08c-16.56,38.29 -16.09,32.22 -4.07,47.43 20.28,25.66 15.03,11.15 19.18,48.03 4.09,21 53.49,104.7 95.12,109.8 23.06,-30.27 22.77,-72.05 22.06,-114.28 -0.83,-49.79 -5.8,-75.81 -24.57,-111.17 -18.47,-10.15 -19.74,-12.39 -37.14,-22.99 -29.49,-17.99 -14.07,-1.72 -27.74,-24.54l-31 6.82c-4.43,27.91 -19.47,40.27 -11.84,60.9z"/>
   <path class="fil16" d="M1681.89 3348.36c-6.49,-18.7 -16.18,-23.7 -35.55,-24.64 -22.18,-5.3 -44.3,-16.75 -68.3,-24.59 -3.35,-1.09 -32.21,-8.31 -33.45,-8.4l-26.98 3.82c0,-0.02 -21.77,-1.58 -0.26,40.8l16.99 24.63c0.92,1.33 2.39,3.14 3.26,4.47 16.72,25.47 27.93,124.99 130.13,111.98l36.58 -9.21c1.28,-2.77 4.44,-1.54 6.56,-2.57 15.18,-93.32 -18.9,-76.03 -28.98,-116.29z"/>
   <path class="fil12" d="M3551.47 3493.69l19.8 2.82c-8.04,9.48 -16.09,-5.25 -6.75,17.63 8.01,19.59 -7.24,9.09 23.29,14.26 11.24,-17.01 -5,-20.77 7.45,-35.73 17.37,-20.86 23.04,-10.1 44.38,-5.15 -10.18,33.1 -38.67,101.46 -77.25,105.9l-3.17 -61.24c-35.97,-1.99 -27.8,6.21 -36.97,-25.62l-14.73 2.47c-23.04,12.57 -34.74,42.13 -52.04,68.25 -16.91,25.54 -21.41,69.6 -12.63,106.81 78.13,10.8 198.85,-82.23 203.95,-132.78 -0.56,-34.16 0.48,-42.88 -6.37,-79.18 -29.22,3.09 -71.34,1.4 -88.96,21.56z"/>
   <path class="fil17" d="M1608.84 4022.25l0 21.16c-0.71,0.3 7.3,21.14 -25.26,3.84 -17.53,-9.33 -6.88,-8.21 -9.56,-27.92l34.82 2.92zm0 0c-9.61,-21.76 7.31,-11.36 -21.11,-15.75 -18.87,-2.91 -18.03,1.21 -23.72,7.01 -18.57,18.93 10.22,54.9 49.42,63.97 16.85,3.9 13.66,-2.33 36.84,11.96l11.4 8.49c1.54,1.13 3.74,3.32 5.84,4.65l60.91 10.79c1.57,0.96 3.85,3.23 5.08,4.08 1.24,0.87 3.18,3.02 4.84,4.44 59.28,34.2 12.71,24.72 94.48,35.53 -16.02,-19.34 -6.67,-7.65 -36.85,-18.04l-61.9 -32.44c-1.92,-1.33 -7.45,-5.29 -9.06,-6.77 -12.72,-11.79 -2.04,7.07 -10.24,-13.54 24.5,11.91 68.89,8.18 104.61,21.59l107.76 34.23c-27.34,-37.72 -45.13,-14.67 -95.44,-49.15 42.26,1.27 139.83,36.04 166.59,25.23 -7.29,-26.58 14.7,-6.49 -21.72,-26.98 -8.4,-4.73 -22.18,-8.23 -33.6,-13.21l-180.98 -86.88c8.73,19.67 4.1,16.45 40.74,38.11l57.57 29.21c25.84,11.76 18.49,-6.73 27.6,27.85 -16.71,-8.13 -47.42,-10.8 -69.74,-17.04 -47.84,-13.38 -45.23,4.51 -139.44,-34.17 -32.01,-13.14 -34.19,-22.45 -69.88,-13.17z"/>
   <path class="fil18" d="M3103.92 4118.56c44.09,19.16 48.82,-6.89 98.26,-8.01 -20.48,28.33 -66.34,36.17 -110.18,39.87l11.92 -31.86zm0 0c-24.56,5.62 -43.64,11.98 -62.99,16.99l-65.94 22.85c13.38,11.26 5.35,10.18 29.97,14.77 29.76,5.55 53.85,-16.22 85.43,1.18 30.22,0 92.7,-6.67 111.79,-15.95 -12.29,30.86 4,4.57 -22.82,16.23 -16.14,7.02 0.62,-5.54 -18.16,7.12 -19.78,13.35 3.27,-9.38 -14.11,15.41 111.23,-38.1 83.88,43.2 174.55,9.91 55.98,-20.56 44.79,-8.92 56.4,-0.83 -5.01,80.19 -135.93,50.18 -179.85,95.69 32.02,0 45,-2.47 71.33,-11.55 58.82,-20.29 110.4,-29.08 129.42,-68.18l6.92 -16.91c0.61,-1.26 7.72,-13.36 8.81,-15 -54.77,-14.81 -1.02,-13.85 -70.83,-7.97 -7.26,-27.57 -4.27,-24.53 -31.48,-31.9l-25.3 22.22c7.78,10.12 4.01,6.04 13.73,13.43l19.44 12.2c-43.41,0.98 -23.85,11.26 -58.58,-3.83 -35.68,-15.49 -20.8,-19.74 -51.6,-28.07l0 -15.95c26.45,-2.23 62.1,-13.15 81.62,-28.55 9.16,-7.24 1,1.03 9.21,-8.12 14.23,-15.88 -1.02,9.35 11.48,-18.24l-62.96 29.01c-10.39,-12.94 -6.43,7.2 -15.74,-31.4 -41.61,-5.28 -90.19,13.25 -129.74,25.44z"/>
   <path class="fil19" d="M3697.99 3990.9c-17.26,-1.6 2.16,-5.1 -28.54,2.73 -11.7,2.97 -26.67,10.09 -34.41,13.21 -75.28,30.32 -57.43,1.04 -60.69,31.94 -9.67,13.22 1.86,6.66 -22.88,20.02l-92.82 43.72 18.55 31.95c-16.2,14.61 -13.48,7.27 -17.93,32.66 44.93,-0.89 40.83,-10.52 81.32,-24.64 39.45,13.4 86.57,-12.62 86.57,-87.76 26.1,0 81.69,-4.05 78.73,-31.89 25.71,-34.53 56.22,-26.72 81.63,-87.57 -64.26,8.99 -34.84,36.19 -89.53,55.63z"/>
   <path class="fil20" d="M1169.74 3775.64c-2.48,25.2 -15.76,2.45 37.96,59.25l122.94 130.9c29.94,31.96 0.83,18.27 29.98,21.18 33.71,15.69 27.03,23.64 67.71,32.45 -9.97,-34.95 5.54,-13.34 -22.92,-34.98 -34.47,-26.23 -15.15,5.81 -27.18,-40.74l64.97 15.12c-17.36,-28.7 -23.2,-19.88 -37.62,-47.62 -26.56,-49.87 -71.08,-34.05 -108.78,-63.29 -27.31,-21.17 -7.28,-22.04 -38.49,-18.05 -19.91,-14.93 -38.62,-34.39 -54.12,-54.22 4.51,-21.47 7.28,-5.24 -3.49,-21.92 -17.61,-27.29 -6.74,-9.31 -21.09,-11.94 -19.01,-2.26 -10.4,-3.78 -20.09,2.26l10.22 31.6z"/>
   <path class="fil21" d="M5901.2 1263.8c-21.07,1.81 -21.11,3.75 -38.99,7.97 35.94,-54.37 64.36,-27.97 78.7,-73.95 -29.95,12.27 -52.01,42.99 -127.85,80.37 -46.43,22.89 -85.58,46.12 -135.79,68.76 -44.61,20.11 -95.52,45.6 -136.74,69.46 -52.62,30.45 -93.42,34.65 -121.65,88.61 71.91,2.77 184.41,-84.64 247.58,-112.25 92.25,-40.33 33.99,-6.22 118.86,-63.47 38.4,-25.91 85.67,-34.96 115.88,-65.5z"/>
   <path class="fil22" d="M3130.73 3113.79c30.4,71.73 284.84,59.28 349.48,58.11 -13.54,-32.29 2.53,-7.85 -26.46,-27.28 -70.92,-47.55 -257.59,-72.02 -323.02,-30.83z"/>
   <path class="fil23" d="M927.78 1582.72l-2 8.01 -20.19 67.11c26.72,-9.35 22.54,-14.16 38.99,-22.56 -0.49,40.97 -12.81,67.37 -16.75,118.23 -4.82,-0.04 -21.59,-2.03 -23.76,-1.87 -2.32,0.18 -4.84,0.2 -7.25,0.53 -2.27,0.31 -4.68,0.98 -6.75,1.39 -2.01,0.39 -4.76,1.71 -6.36,2.12 -1.6,0.4 -4.29,1.32 -6.17,2.51 4.72,29.88 4.95,34.08 28.47,47.89 36.6,21.46 11.95,13.76 51.29,12.8 -0.29,-66.86 -45.59,-125.84 39.37,-253.85 19.54,-29.44 26.19,-17.04 42.66,-52.91 4.1,1.91 11.26,6.95 12.81,7.64 6.46,2.92 2.88,3.39 20.49,6.23 10.68,-21.3 20.01,-29.3 43.56,-38.96 -13.69,-40.98 -20.08,-25.94 -46.75,-47.51 -30.86,19.38 -89.18,77.07 -105.13,106.52 -15.92,29.37 -6.28,22.65 -36.53,36.68z"/>
   <path class="fil24" d="M3068.43 3686.72c-7.02,28.77 -45.24,64.72 -68.41,75.42l4.59 -34.35c-11.66,15.04 -9.55,4.61 -5.23,32.8 4.4,28.79 16.33,-20.49 3.35,40.75 -34.07,15.97 -49.89,-2.55 -36.68,25.99l4.05 28.05c29.75,14.26 41.99,26.43 79.29,33.55 2.06,-1.38 5.14,-5.61 6.47,-3.66l28.03 -10.21c9.67,-2.2 25.19,-2.12 30.69,-3.73 -18.23,-51.94 -41.76,-20.16 -48.09,-18.21 -21.87,6.76 11.87,14.28 -29.58,3.59 -0.64,-1.37 -0.09,-5.64 -0.12,-4.56l-0.33 -7.98c-5.26,-27.55 -15.03,0.27 -23.63,-28.66 46.32,-21.86 45.52,-1.88 99.57,-17.84 9.3,30.42 1.85,38.7 44.59,28.26 -27.03,-57.44 -47.8,-26.58 -54.22,-156.97l-20.58 10.29c-1.83,0.93 -11.47,6.18 -13.76,7.47z"/>
   <path class="fil25" d="M1152.31 1521.79l0.53 69.31c0.53,41.49 -3.48,43.17 -15.95,75.45 -23.6,61.17 23.52,-7.53 -12.33,67.72 52.19,-12.54 67.4,-50.17 94.86,-135.15 12.59,-38.98 6.65,-100.72 -12.84,-138.79 -14.85,-29 -10.2,-18.93 -34.8,-29.07 29.05,47.66 30.35,23.14 31.4,87.67 -38.12,-23.25 -1.48,4.14 -19.37,-17.19 -30.85,-36.77 -0.52,-21.01 -51.38,-46.29 0.8,53.04 -4.68,29.77 19.88,66.34z"/>
   <path class="fil25" d="M3818.32 2327.32c-20.87,18.53 -31.15,9.08 -74.98,33.92 -18.59,10.53 -37.65,18.89 -37.48,49.25l38.98 -1.95c1.18,-6.34 0.5,-10.91 16.2,-19.4 14.05,-7.6 20.79,-7.07 39.26,-7.99 10.96,9.32 11.79,11.6 22.42,21.9 42.78,-12.42 54.13,-24.42 74.99,-60.55 9.3,-16.11 11.5,-20.61 27.7,-35.42 15.71,-14.35 22.12,-13.29 22.95,-40.06l-30.02 -17.04 -23.61 33.38 -51.14 0.56c-1.06,21.75 -1.17,49.93 -25.27,43.4z"/>
   <path class="fil12" d="M1378.62 2960.34c2.25,39.77 -11.58,78.03 -15.38,121.51 17.03,-3.85 -8.45,-6.8 11.87,4.3 22.91,12.52 1.98,0.35 17.67,11.73l21.97 -11.98 -15.78 -45.94c6.71,-26.45 26.73,-72.63 38.95,-94.82 8.91,-16.2 41.4,-62.32 44.81,-77.44 0.63,-2.43 2.13,-8.27 2.49,-7.1l7.42 -40.12c-2.3,-0.41 -5.63,-3.35 -6.95,-0.87l-37.15 7.07c-19.98,22.1 -26.87,21.45 -43.74,52.06 -15.23,27.63 -29.42,49.22 -26.18,81.6z"/>
   <path class="fil26" d="M2824.42 4284.77c66.28,-12.99 106.17,-24.57 128.53,14.91 0.82,1.47 2.02,4.44 2.65,5.67 0.65,1.25 1.42,4.05 2.61,5.8 35.14,3.09 120.86,8.37 134.98,-37.85 13.76,-45.02 -24.05,11.55 3.07,-43.14l-20 0c0,54.06 -4.21,67.48 -55.09,71.77 0,-32.4 2.63,-25.67 -7.87,-47.84 -43.15,0.97 -30.82,11.25 -61.66,13.77 -14.64,1.2 -24.46,-5.08 -56.39,-5.8 27,-19.01 39.18,-7.13 47.22,-53.91 -39.04,18.68 -12.64,26.07 -71.58,36.19 -25.94,4.46 -57.17,5.53 -85.82,5.81 -33.81,-37.5 -2.47,-15.04 -94.43,-40.1 10.85,21.39 -1.47,14.03 23.61,20.11 -21.68,15.27 -21.67,13.94 -23.61,31.9 29.94,7.07 76.82,0 125.91,0 4.35,5.28 6.6,19.11 7.87,22.71z"/>
   <path class="fil27" d="M3734.1 3038.31c109.25,-22.54 25.21,-1.63 92.56,-31.31 1.41,68.79 -20.38,101.4 -30.31,162.18l31 -6.82c13.67,22.82 -1.75,6.55 27.74,24.54 17.4,10.6 18.67,12.84 37.14,22.99 -15.6,-32.15 -25.32,-35.18 -55.87,-44.27 4.35,-41.6 15.11,-62.31 21.81,-93.67 23.53,-110.16 18.41,-217.97 28.24,-308.08 22.89,15.2 34.53,30.02 64.62,42.53 -15.57,-26.33 -43.37,-50.15 -72.03,-57.6 -10.35,18.92 -9.44,30.59 -9.19,53.82 0.23,20.94 0.81,34.59 -0.57,56.01 -2.43,37.72 -2.15,84.37 -6.03,111.29 -10.18,21.52 -101.53,29.55 -129.11,68.39z"/>
   <path class="fil28" d="M3507.52 3509.03l14.73 -2.47 29.22 -12.87c17.62,-20.16 59.74,-18.47 88.96,-21.56 6.85,36.3 5.81,45.02 6.37,79.18 30.11,-19.38 11.74,-29.26 16,-91.08 44.58,-31.74 103.13,-147.83 115.46,-160.6l21.36 25.91c-4.15,-36.88 1.1,-22.37 -19.18,-48.03 -12.02,-15.21 -12.49,-9.14 4.07,-47.43 -24.05,14.05 -9.59,2.44 -22.84,20.08l-88.97 149.06c-76.63,108.41 -72.32,30.03 -143.63,85.49 -1.9,1.48 -7.26,6.09 -8.98,7.85 -13.49,13.8 -0.43,-3.21 -12.57,16.47z"/>
   <path class="fil25" d="M1053.7 1790.13c-49.57,21.51 -110.33,67.12 -147.69,15.95 -23.52,-13.81 -23.75,-18.01 -28.47,-47.89 1.88,-1.19 4.57,-2.11 6.17,-2.51 1.6,-0.41 4.35,-1.73 6.36,-2.12 2.07,-0.41 4.48,-1.08 6.75,-1.39 2.41,-0.33 4.93,-0.35 7.25,-0.53 2.17,-0.16 18.94,1.83 23.76,1.87 3.94,-50.86 16.26,-77.26 16.75,-118.23 -16.45,8.4 -12.27,13.21 -38.99,22.56l20.19 -67.11c-2.13,1.06 -5.19,0.53 -6.07,3.77 -0.84,3.13 -4.51,2.88 -5.6,4.04 -19.65,20.99 -81.1,152.95 -40.93,206.97 22.7,30.53 20.29,10.47 30.99,40.4 148.8,0 87.72,-26.69 149.53,-31.9l0 -23.88z"/>
   <path class="fil29" d="M2934.64 3581.46c33.32,-4.75 56.16,-14.84 93.49,-7.04 49.99,10.44 68.84,44.88 30.77,79.64 -29.84,27.25 -35.9,24.14 -54.29,73.73l-4.59 34.35c23.17,-10.7 61.39,-46.65 68.41,-75.42 0,-40.7 32.18,-15.31 61.2,-46.64 2.65,-29.92 9.46,-0.25 -9.31,-36.51 -32.64,-26.47 -17.63,-41.28 -41.62,-58.34 -53.16,5.12 -65.5,-2.4 -112.58,-7.77 20.58,24.15 -16.95,0.07 15.93,16.77 32.53,16.53 6.73,5.44 15.55,-1.82 -73.59,7.84 -56.73,17.48 -62.96,29.05z"/>
   <path class="fil30" d="M3068.43 3686.72c2.29,-1.29 11.93,-6.54 13.76,-7.47l20.58 -10.29c6.42,130.39 27.19,99.53 54.22,156.97l19.39 -7.25c-21.64,-52.04 -41.66,-108.37 -42.01,-175.76 39.71,1.84 58.07,11.79 91.67,13.3 10.54,0.47 34.17,-0.29 44.04,-2.81 44.02,-11.2 14.92,6.57 28.49,-21.31 -49.12,-32.23 -88.2,8.54 -178.25,-28.53 18.77,36.26 11.96,6.59 9.31,36.51 -29.02,31.33 -61.2,5.94 -61.2,46.64z"/>
   <path class="fil31" d="M1482.73 2867.7c-3.41,15.12 -35.9,61.24 -44.81,77.44 -12.22,22.19 -32.24,68.37 -38.95,94.82 55,9.33 72.71,-38.49 93.56,-71.06 18.46,-28.85 55.68,-77.14 51.76,-113.43 -49.38,-18.96 -19.63,-3.37 -61.56,12.23z"/>
   <path class="fil32" d="M3697.99 3990.9c54.69,-19.44 25.27,-46.64 89.53,-55.63 -25.41,60.85 -55.92,53.04 -81.63,87.57 22.49,0 26.7,-4.27 41.52,-14.3l30.77 -24.05c28.89,-24.05 57.57,-74.96 121.49,-124.11 6.27,-4.82 15.12,-10.42 18.54,-13.11 16.62,-13.11 13.82,-17.26 31.61,-23.79 -23.94,-36.22 -33.26,-21.98 -63.08,-0.18 -10.65,7.78 -20.96,15.55 -30.75,24.73l-60.22 50.61c-44.33,27.79 -73.95,61.93 -97.78,68.38l0 23.88z"/>
   <path class="fil10" d="M2019.44 2993.89c-35.56,15.54 -51.08,25.82 -85.41,10.88 -1.84,-0.81 -3.67,-2.03 -5.45,-2.89 -50.44,-24.33 -35.91,-28.66 -87.85,-25.15 17.22,89.22 -33.78,60.04 -25.89,187.59l37.66 3.58c9.53,-214.71 104.23,-101.57 166.94,-174.01z"/>
   <path class="fil33" d="M2500.96 3349.44c22.98,-0.45 9.52,-10.52 17.85,11.32 23.1,2.31 25.49,3.13 40.26,31 29.8,56.22 40.09,118.97 34.42,182.21 -42.16,-1.27 -27.26,-2.29 -62.1,-17.37 4.17,15.55 6.38,22.96 12.53,34.52 20.65,38.76 49.64,41.32 83.72,32.97 19.49,-61.66 -5.53,-125.83 -27.02,-180.66 -2.87,-7.33 -75,-158.9 -99.66,-93.99z"/>
   <path class="fil34" d="M3814 2232.21c-4.11,19.49 -4.02,31.25 -18.26,40.96 -16.96,11.58 -12.7,5.9 -38.32,5.15 -9.65,-10.9 -2.23,-10.19 -6.95,-25.7l-35.97 17.64c-1.36,0.99 -3.46,3.03 -5.19,4.53l22.29 -0.13c-2.51,34.19 -4,16.83 5.74,32.46 41.86,-11.46 7.46,-23.4 68.74,-27.54l-15.62 33.47 -3.43 22.81 31.29 -8.54c24.1,6.53 24.21,-21.65 25.27,-43.4l51.14 -0.56 23.61 -33.38 30.02 17.04 -2.77 -24.72c-37.33,-12.73 -16.77,-17.76 -66.41,-20 -23.66,-1.06 -52.64,-2.1 -65.18,9.91z"/>
   <path class="fil35" d="M675.94 1343.5c-19.85,5.24 -41.35,44.33 -49.82,61.49 -9.68,19.59 -10.48,2.7 -5.31,26.27 -6.55,37.87 -0.74,11.14 -9.76,28.92l-17.42 26.41c54.7,-10.73 14.78,-10.8 58.74,-31.37 8.31,-29.02 8.15,-18.41 28.89,-41.85 17.47,-19.75 -2.23,2.84 17.5,-21.91 28.46,-35.69 85.67,-104.02 16.53,-127.62 -15.77,19.34 -16.63,-27.89 -13.66,41.15 1.57,36.41 -9.62,14.88 13.7,22.64l-39.39 15.87z"/>
   <path class="fil36" d="M1508.48 2998.27c-12.15,48.5 -8.15,23.83 3.88,35.92l68.84 -95.25c12.91,-22.08 5.93,-31.5 19.17,-59.45 5.29,-11.16 25.99,-29.32 15.44,-64.13 -11.08,-36.62 -44.27,-43.51 -85.02,-37.82 18.41,45.02 74.17,-5.31 25.42,142.72 -6.91,20.97 -31.7,61.47 -47.73,78.01z"/>
   <path class="fil37" d="M3624.91 2349.16l16.05 -3.99c-0.69,30.63 -18.39,50.04 7.44,74.84 -6.35,-43.41 -6.31,-31.32 7.82,-71.73l34.77 -20.38 -15.09 52.26 16.67 32.12 -9.46 20.38c35.61,0.57 24.69,4.73 12.72,29.55l22.92 -5.56c25.95,-23.75 15.76,-13.65 26.09,-48.11l-38.98 1.95c-0.17,-30.36 18.89,-38.72 37.48,-49.25 43.83,-24.84 54.11,-15.39 74.98,-33.92l-31.29 8.54 3.43 -22.81 -76.73 38.05c-1.39,-1.89 -2.8,-4.55 -3.61,-6.03l-6.48 -11.69c-0.84,-1.75 -1.76,-3.92 -2.53,-5.71 -6.89,-16.1 -9.27,-20.84 -3.16,-41.9 -2.11,1.2 -5.12,0.7 -6.17,3.87l-34.88 24.55c-20.78,14.74 -21.99,13.03 -31.99,34.97z"/>
   <path class="fil38" d="M1998.08 4142.49c0.48,1.16 3.3,18.34 7.87,23.88 66.29,1.5 68.85,24.53 140.13,5.95 22.84,-5.96 41.07,-4.52 70.48,3.87 37.87,10.8 22.03,14.1 80.54,14.1 -26.55,-29.49 25,7.98 -17.19,-15.05 -1.7,-0.93 -14.57,-5.02 -20.11,-6.27l-167.48 -38.82c-50.31,-4.72 -43.22,-1.31 -55.65,10.27l-38.59 2.07z"/>
   <path class="fil39" d="M856.95 2687.42c5.9,10.53 1.24,11.65 7.87,19.69l62.96 15.95c-35.85,0.81 -39.67,9.51 -64.7,14.19 -39.97,7.48 -41.24,-3.23 -61.22,26.65 72.25,-22.28 275.54,-54.57 301.69,-88.68 -13,0 -10.5,3.73 -10.5,-7.98l7.87 -18.69c-48.87,21.67 -52.7,30.7 -117.25,39.02 -62.25,8.02 -63.91,20.04 -126.72,-0.15z"/>
   <path class="fil40" d="M3067.66 3517.67c-0.28,-41.04 -1.84,-12.84 8.6,-23.27l114.05 11.46c-6.74,-33.64 -16.19,-29.1 -51.09,-37.5l-6.48 -19.01c-0.68,-1.45 -2.01,-3.97 -2.7,-5.36 -0.74,-1.46 -2.51,-4.25 -3.17,-5.47 -6.34,-11.85 -37.85,-10.27 -50.66,-12.04l111.39 -14.78c-8.38,-19.49 5.93,-12.88 -20.75,-14.14 -85.1,-10.14 -23.31,-8.03 -54.63,7.22 -30.83,15.01 -40.33,1.89 -69.93,12.03 1.34,35.56 1.68,13.3 40.63,33.07 1.17,0.6 3.26,1.76 4.27,2.39l20.37 25.41c0.91,1.39 2.7,4.1 4.01,6.17l-63.92 2.46c1.01,24.74 -12.49,13.85 20.01,31.36z"/>
   <path class="fil17" d="M4168.45 1518.97c-30.35,-43.16 -74,-18.29 -114.1,-63.79 6.45,-10.39 -2.54,-11.65 37.41,-23.63 16.46,-4.94 32.23,-9.45 47.39,-14.02 38.44,-11.59 65.95,-14.92 101.39,-24.8 28.31,-7.89 63.02,-20.52 96.47,-30.56 63.59,-19.08 73.04,-9.63 98.96,-34.58 -66.79,0 -170.2,44.72 -212.38,54.11 -94.45,21.03 -156.16,46.49 -202.94,57.53l0 23.92 147.8 55.82z"/>
   <path class="fil41" d="M1308.29 3689.19c48.08,13.41 18.81,-2.5 32.26,22.66 -0.93,0.5 -6.37,34.61 -29.59,-12.14 -1.42,-2.85 -0.92,-7.37 -2.67,-10.52zm126.58 102.44l-18.98 -55.91 -65.46 -53.77c-67.37,-46.96 -15.8,-19.91 -99.99,-39.98 10.88,22.77 -3.14,4.43 11.34,17.88 22.25,20.66 19.88,-3.76 35.99,35.96 8.98,22.16 6.23,42.44 54.98,31.98 4.82,20.98 7.15,23.44 15.74,39.87 21.25,-1.78 21.41,-3.73 39.35,-7.97 1.68,19.89 -4.78,13.58 6.13,25.78 12.88,14.41 3.4,7.63 20.9,6.16z"/>
   <path class="fil42" d="M4193.83 2412.07c30.15,-12.79 12.93,-3.17 15.16,-88.45 1.47,-55.98 14.29,-31.09 47.76,-23.19 0,60.89 7.95,88.9 7.87,151.51 -0.07,66.78 -7.87,99.88 -7.87,164.5 1.76,-1.56 4.38,-6.33 4.98,-5.02 0.56,1.26 3.7,-3.63 4.38,-5.09 21.45,-45.94 13.24,-286.88 0.6,-309.08 -17.03,-14.44 -31.39,-20.98 -62.18,-16.63 -13.64,40.44 -10.61,88.59 -10.7,131.45z"/>
   <path class="fil43" d="M927.78 2188.84c0,45.81 3.1,15.12 14.34,25.46l81.99 44.36c2.3,0.98 9.35,3.27 11.68,4.24 35.36,14.74 33.01,23.44 61.04,1.84 55.45,-42.72 -6.28,-153.9 -19.52,-211.51l-23.58 0c16.49,39.04 59.83,117.54 48.72,167.61 -11.72,52.78 23.53,-13.26 -10.06,15.76l-8.99 9.48c-38.08,20.67 -89.22,-20.88 -155.62,-57.24z"/>
   <path class="fil44" d="M1014.35 3640.12c12.61,31.4 33.51,52.63 70.83,55.78 5.42,-20.72 -2.92,-8.89 15.74,-15.95 42.28,63.99 46.39,58.36 47.21,95.69l21.61 0 -10.22 -31.6c9.69,-6.04 1.08,-4.52 20.09,-2.26 0,-28.81 -31.17,-52.23 -49.47,-67.52 -68.76,-57.41 -5.16,-38.15 -59.17,-58.1 21.28,15.02 15.68,4.2 19.32,31.89 -12.51,5.5 -4.91,12.85 -28.66,0.77 -1.95,-0.99 -15.31,-14.18 -17.35,-15.84 14.57,35.66 4.26,28.23 1.55,33.65 -14.38,-15.88 -9.46,-12.02 -31.48,-26.51z"/>
   <path class="fil28" d="M2061.89 3666.66c-9.6,48.52 -2.86,5.43 -13.74,32.38 -8.15,20.18 -6.97,23.2 -7.05,43.82 31.66,-13.16 0.04,7.86 14.34,-10.85 5.02,-6.58 1.34,-2.2 6.88,-11.35 1.12,-1.85 2.44,-4.87 3.33,-6.47 0.92,-1.65 1.89,-4.68 3.26,-6.77 60.48,14.2 86.6,41.65 149.49,49.38 -12.53,-16.99 3.76,-7.43 -25.29,-21.04 -3.88,-1.82 -19.39,-5.77 -26.21,-7.97 -8.07,-44.39 11.07,-45.85 -22.37,-67.29l5.57 36.63c-44.23,-8.1 -55.32,-24.12 -88.21,-30.47z"/>
   <path class="fil45" d="M3690.74 3879.3c48.92,2.98 24.1,10.89 70.21,0 -11.79,-56.36 -0.9,-24.55 11.24,-59.67 16.03,-46.41 -20.09,-0.1 6.54,-33.76l29.44 -32.84c-46.68,18.71 -80.02,52.8 -110.24,78.54l-7.19 47.73z"/>
   <path class="fil46" d="M4547.98 2077.16c38.92,-16.52 8.2,-14.81 44.85,-114 12.37,-33.48 -1.78,-21.14 32.94,-30.42l37.78 -17.53c1.97,-1.29 7.77,-4.81 9.64,-6.18 87.28,-64.2 -0.31,-12.65 94.25,-48.05 22.04,-8.25 17.81,-12.52 48.07,-15.07 4.96,-6.01 6.39,-19.41 7.87,-23.88 -39.06,14.21 -105.69,34.68 -128.4,53.58 -38.15,31.77 -63.69,38.21 -112.43,60.5l-34.57 141.05z"/>
   <path class="fil47" d="M3522.25 3506.56c9.17,31.83 1,23.63 36.97,25.62l3.17 61.24c38.58,-4.44 67.07,-72.8 77.25,-105.9 -21.34,-4.95 -27.01,-15.71 -44.38,5.15 -12.45,14.96 3.79,18.72 -7.45,35.73 -30.53,-5.17 -15.28,5.33 -23.29,-14.26 -9.34,-22.88 -1.29,-8.15 6.75,-17.63l-19.8 -2.82 -29.22 12.87z"/>
   <path class="fil25" d="M3624.91 2349.16l-26.6 33.69c-8.28,10.85 -1.51,-0.77 -9.19,13.27 25.51,38.05 2.31,39.89 77.39,80.94l29.32 -14.85c11.97,-24.82 22.89,-28.98 -12.72,-29.55l-30.01 1.89 -4.7 -14.54c-25.83,-24.8 -8.13,-44.21 -7.44,-74.84l-16.05 3.99z"/>
   <path class="fil48" d="M2287.72 3203.06c-38.71,0.56 -15.11,-0.97 -36.4,-9.12 -34.49,-13.19 -54.15,10.53 -71.09,-18.35l-5.3 -59.63c-8.44,22.16 -10.26,32.92 -4.34,60.83 4.17,19.61 11.03,29.5 19.81,44.14 19.82,33.07 -0.07,57.54 26.84,91.04l4.17 -70.68c35.44,-22.59 36.56,-0.14 66.31,-38.23z"/>
   <path class="fil18" d="M3540.59 4142.49c-40.49,14.12 -36.39,23.75 -81.32,24.64 4.45,-25.39 1.73,-18.05 17.93,-32.66l-18.55 -31.95 92.82 -43.72c24.74,-13.36 13.21,-6.8 22.88,-20.02 -37.25,2.81 -98.57,38.36 -129.23,62.76 -19.11,15.2 -20.08,10.46 -22.58,40.91 54.05,14.62 -4.43,23.02 41.9,37.56 15.93,5 41.53,-11.38 68.28,-13.64 4.96,-6.01 6.38,-19.41 7.87,-23.88z"/>
   <path class="fil49" d="M1619.03 3927.15c-10.76,-45.16 -0.46,-7.36 -2.81,-44.66 -39.29,-30.14 -37,-33.38 -97.5,-39.18 -35.2,-3.38 -58.56,-34.21 -83.85,-51.68 4.84,24.45 -6.26,10.14 19.15,33.2 31.69,28.77 50.03,38.52 95.48,38.52 2.88,35.08 -0.07,20.84 24.88,38.49 20.85,14.75 13.96,17.5 44.65,25.31z"/>
   <path class="fil50" d="M990.74 3616.2c26.21,4.85 13.95,-2.44 23.61,15.9l15.74 -31.89c-24.78,-0.07 -19.52,-9.42 -23.58,-31.9 0,0 11.32,-8.68 -18.3,-28.93 -11.45,-7.82 -25.86,-13.04 -36.82,-18.91 -1.32,16.03 -17.51,51.4 17.5,86.49 25.01,25.08 3.24,8.77 21.85,9.24z"/>
   <path class="fil17" d="M3841.65 3735.77c23.85,-4.23 16.36,-2.88 37.35,-7.98 -47.26,99.79 53.59,44.38 55.08,-23.92 -19.22,-8.04 -6.35,-5.39 -31.47,0 4.95,-6.01 6.38,-19.4 7.87,-23.88 -28.91,10.85 -53.84,32.5 -68.83,55.78z"/>
   <path class="fil46" d="M3306.98 1997.41c39.08,0 59.83,-9.24 76.21,-31.89 -16.75,-23.16 1.1,-15.03 -39.35,-15.95 20.84,-28.82 2.7,-2.71 21.95,-17.63l17.4 -22.24c-103.46,-50.3 3.18,24.46 -52.56,-31.85 -26.57,15.89 -9.18,-0.78 -15.67,29.51l37.85 7.43c-20.62,21.76 -25.78,12.8 -43.75,34.78 13.2,18.43 9.35,15.26 35.5,23.37 -9.43,5.7 -11.98,5.09 -16.78,7.97l-20.8 16.5z"/>
   <path class="fil45" d="M3162.83 1877.76c37.36,-7.06 71.56,-16.21 108.36,-24.56 16.14,-3.67 36.39,-7.39 54.48,-12.14 44.32,-11.6 27.94,-14.1 50.73,-3.13 -3.58,39.16 -10.13,21.49 -45.77,39.92 14.1,8.47 60.36,7.93 84.04,7.93l0 -31.9 -23.61 0 0 -31.9 -201.77 34.18c-42.54,14.8 -10.74,-2.42 -26.46,21.6z"/>
   <path class="fil51" d="M909.07 2117.03l29.97 28.87c24.98,16.31 82.4,46.86 115.01,50.44 4.94,-52.56 -23.77,-104.85 -59.2,-132.67 -4.58,22.43 -2.99,15.09 4.03,29.21l46.95 71.99c-29.1,13.64 -56.11,-11.55 -78.6,-24.02l-58.16 -23.82z"/>
   <path class="fil52" d="M2950.38 4214.22l31.38 0c-5.89,10.74 -4.24,8.81 -7.81,23.92 72.96,0 53.05,-22.64 110.18,-23.92 -17.31,-26.19 -9.31,-5.05 -15.74,-36.82 -25.85,3.17 -36.48,7.4 -61.51,12.26 -4.42,0.85 -32.96,6.22 -33.2,6.32 -33.69,13.07 -9.07,-1.54 -23.3,18.24z"/>
   <path class="fil25" d="M3697.95 2285.77c-6.11,21.06 -3.73,25.8 3.16,41.9 0.77,1.79 1.69,3.96 2.53,5.71l6.48 11.69c0.81,1.48 2.22,4.14 3.61,6.03l76.73 -38.05 15.62 -33.47c-61.28,4.14 -26.88,16.08 -68.74,27.54 -9.74,-15.63 -8.25,1.73 -5.74,-32.46l-22.29 0.13 -11.36 10.98z"/>
   <path class="fil53" d="M4044.22 1734.27c-11.5,-51.55 -25.95,-78.7 -17.41,-129.75 54.82,8.69 66.06,37.17 111.89,55.92 -13.27,-29.72 -5.98,-21.11 -57.67,-51.14 -28.22,-16.4 -35.58,-33.6 -76.12,-34.51l14.72 128.11c12.75,42.54 7.93,20.18 24.59,31.37z"/>
   <path class="fil52" d="M1911.51 2388.15c47.87,23.27 137.65,-14.29 157.4,-15.95l0 -23.92c-38.2,0 -139.89,15.66 -157.4,39.87z"/>
   <path class="fil54" d="M990.74 3616.2c15.15,36.68 -4.55,31.82 23.61,23.92 22.02,14.49 17.1,10.63 31.48,26.51 2.71,-5.42 13.02,2.01 -1.55,-33.65 2.04,1.66 15.4,14.85 17.35,15.84 23.75,12.08 16.15,4.73 28.66,-0.77 -3.64,-27.69 1.96,-16.87 -19.32,-31.89l-24.67 -23.88c-12.2,-8.65 -4.15,-3.98 -13.73,-10.18 -21.43,-13.88 -0.48,-3.23 -26.06,-13.79 4.06,22.48 -1.2,31.83 23.58,31.9l-15.74 31.89c-9.66,-18.34 2.6,-11.05 -23.61,-15.9z"/>
   <path class="fil55" d="M1360.62 3986.97c16.92,33.87 50.43,51.6 86.57,43.84 -4.11,-49.97 -19.6,-18.72 -31.48,-63.79 26.54,12.91 26.57,6.04 47.22,-7.98 -20.85,-31.54 -30.72,-41.52 -57.35,-47.84 14.42,27.74 20.26,18.92 37.62,47.62l-64.97 -15.12c12.03,46.55 -7.29,14.51 27.18,40.74 28.46,21.64 12.95,0.03 22.92,34.98 -40.68,-8.81 -34,-16.76 -67.71,-32.45z"/>
   <path class="fil56" d="M2518.81 3360.76c-8.33,-21.84 5.13,-11.77 -17.85,-11.32 -23.88,-0.22 -27.42,5.34 -45.65,11.55 -7.06,19.42 -8.73,20.8 -9.97,45.68l9.2 39.05c1.66,-1.47 4.53,-5.47 5.41,-3.86l10.54 -7.11c14.27,-11.44 6.84,-1.36 16.13,-17.04 23.53,-39.65 -19.42,-26.76 34.51,-32.8 -12.43,-13.74 0.36,-10.27 -27.28,-16.25l24.96 -7.9z"/>
   <path class="fil57" d="M2565.97 3530.71c-1.28,-50.36 -5.7,-116.26 -56.34,-125.76 -6.84,14.2 -11.49,3.58 -0.6,34.62 3.02,8.62 10.07,26.52 14.17,36.18 13.98,32.87 13.12,40.77 42.77,54.96z"/>
   <path class="fil39" d="M3119.99 1929.67c41.43,4.16 51.83,-0.03 89.44,-6.69l61.89 -7.55c21.37,-6.47 11.83,-5.5 19.75,-13.71 -10.46,-8.9 0.88,-7.17 -18.18,-11.97 -12.14,-3.05 -19.26,-1.57 -31.32,-0.73 -16.7,1.15 -38.34,4.48 -50.69,8.33 -29.24,9.15 -50.75,19.54 -70.89,32.32z"/>
   <path class="fil15" d="M3744.84 2408.54c-10.33,34.46 -0.14,24.36 -26.09,48.11 19.62,-5.65 39.07,-11.06 60.26,-18.92 33.36,-12.38 33.21,-4.01 43.71,-34.68 -10.63,-10.3 -11.46,-12.58 -22.42,-21.9 -18.47,0.92 -25.21,0.39 -39.26,7.99 -15.7,8.49 -15.02,13.06 -16.2,19.4z"/>
   <path class="fil58" d="M994.85 2063.67c-38.75,-44.57 -129.74,-102.93 -185.36,-128.29l0.24 38.11c46.34,10.95 19,3.71 62.96,0 3.36,6.45 12.58,27.88 15.81,31.83 23.41,28.66 14.61,-7.59 68.27,42.51 24.79,23.13 9.45,18.36 38.08,15.84z"/>
   <path class="fil26" d="M1875.29 4238.14c-27.59,-24.06 -105.15,-60.47 -143.53,-74.19l-3.27 -19.44 -21.59 -7.29c19.04,95.57 11.27,58.62 41.53,74.77 10.5,5.6 7.58,4.94 13.56,10.2 17.39,-12.24 9.78,-1.31 15.74,-23.92l97.56 39.87z"/>
   <path class="fil59" d="M1414.75 3085.9l-21.97 11.98c20.24,49.87 98.63,-30.29 119.58,-63.69 -12.03,-12.09 -16.03,12.58 -3.88,-35.92 -13,17.08 -25.97,33.68 -39.13,49.83 -17.32,21.24 -3.39,7.47 -19.86,19.49 -15.24,11.11 -15.83,10.96 -34.74,18.31z"/>
   <path class="fil42" d="M3972.31 3622.79l40.47 1.6c0.8,-36.69 1.16,-30.32 21.42,-50.32 32.92,-32.49 94.76,-92.12 104.5,-136.65 -20.46,13.87 -48.91,60.96 -81.33,96.44 -29.06,31.8 -62.65,58.69 -85.06,88.93z"/>
   <path class="fil36" d="M3648.4 2420.01l4.7 14.54 30.01 -1.89 9.46 -20.38 -16.67 -32.12 15.09 -52.26 -34.77 20.38c-14.13,40.41 -14.17,28.32 -7.82,71.73z"/>
   <path class="fil60" d="M2805.63 3631.87l-25.09 -7.74 11.84 -24.29c16.39,-43.93 3.9,-10.59 1.44,-20.38 -24.92,19.48 -53.81,51.87 -57.93,85.98 11.66,-0.8 36.54,-0.96 46.29,-4.79 20.15,-7.89 16.94,-11.85 23.45,-28.78z"/>
   <path class="fil17" d="M935.65 3440.73c-0.95,-42.82 -46.13,-96.98 -70.83,-103.66 -6.86,15 -9.64,16.61 -0.14,31.25l22.51 25.81c14.96,25.47 -1.66,19.73 48.46,46.6z"/>
   <path class="fil17" d="M809.69 3097.84c-16.87,-41.2 -15.37,-49.66 -45.67,-72.71l-0.32 -70.39 -24.8 -14.34c7.81,21.14 -11.12,6.59 15.74,21.88 -12.14,25.63 -15.74,40.6 -15.74,79.75 80.19,1.8 6.16,33.78 70.79,55.81z"/>
   <path class="fil61" d="M738.9 1946.83c7.99,-27.22 -18.73,-20.05 31.48,-21.18l0 15.95 39.11 -6.22c-23.2,-20.5 -67.31,-41.27 -104.49,-44.42 4.71,22.04 -1.2,13.58 11.77,34.62 11.54,18.73 2.57,7.4 22.13,21.25z"/>
   <path class="fil62" d="M2954.18 4365.72l27.64 0c23.12,15.68 15.66,15.95 55.09,15.95l7.87 -45.34c-23.61,1.6 -29.68,2.55 -52.6,9.23 -0.33,0.1 -15.66,5.06 -15.95,5.2 -22.93,10.79 -13.23,7.59 -22.05,14.96z"/>
   <path class="fil63" d="M964.98 2935.1c4.15,32.29 20.5,52.75 51.32,60.83l0.72 -67.31 -52.04 6.48z"/>
   <path class="fil26" d="M6161.27 1071.03l74.17 -9.83c-14.42,29.17 -1.04,4.05 -11.24,18.65 -17.2,24.61 -0.03,-9.53 -15.67,24.47 39.89,-16.46 47.77,-20.23 55.05,-47.85 -25.56,-12.42 -30.09,-8.45 -69.7,-5.51 -47.92,3.56 -22.52,5.94 -32.61,20.07z"/>
   <path class="fil49" d="M3564.2 2140.14l38.49 -12.85c-7.46,-23.83 20.44,-9.11 -64.95,-40.01 29.97,0.18 11.29,-5.58 17.84,-18.1 -22.12,0 -46.03,4.37 -34.47,27.47 10.09,20.15 23.43,12.4 50.96,12.4 -3.52,13.45 -3.56,17.56 -7.87,31.09z"/>
   <path class="fil55" d="M4445.63 1332.54c71.54,-10.92 110.17,-9.17 96.71,74.8 23.24,-11.5 6.4,5.93 12.77,-16.71 4.37,-15.55 2.88,-44.76 -10.76,-59.4 -11.25,-12.06 -71.21,-38.5 -94.8,-4.94 -0.83,1.18 -2.49,4.25 -3.92,6.25z"/>
   <path class="fil46" d="M4823.42 1774.14c2.55,-1.05 6.21,-5.41 7.54,-3.39 1.25,1.93 5.33,-2.5 7,-3.47l32.64 -17.06c6.76,28.58 6.17,23.92 62.96,23.92 4.07,-4.93 6.66,-18.89 7.87,-22.23l-39.03 9.33c-1.74,-3.14 -3.59,-8.17 -4.24,-6.75 -6.22,13.41 -3.94,-16.97 -19.69,-20.82 -35.53,4.24 -39.43,10.89 -55.05,40.47z"/>
   <polygon class="fil47" points="1152.84,1591.1 1152.31,1521.79 1121.78,1523.05 1121.01,1590.59 "/>
   <path class="fil30" d="M3213.19 2609.06c5.9,39.9 57.08,35.08 87.35,23.85 -0.6,-20.91 -4.38,-18.54 -12.56,-37.44l8.6 -24.37 -21.62 5.84c-0.27,26.15 4.15,30.82 7.72,50.5 -43.13,3.31 -38.48,-2.42 -69.49,-18.38z"/>
   <path class="fil25" d="M3750.47 2252.62c4.72,15.51 -2.7,14.8 6.95,25.7 25.62,0.75 21.36,6.43 38.32,-5.15 14.24,-9.71 14.15,-21.47 18.26,-40.96l-63.53 20.41z"/>
   <path class="fil64" d="M1059.48 1646.55c-2.03,-1.36 -5.13,-5.75 -6.13,-4.03 -2.32,4.03 -8.47,-5.73 -11.07,-7.85 -11.61,-9.5 -8.54,-8.18 -12.19,-11.51 -18.43,21.98 -17.73,28.99 -19.37,66.21 30.58,-8.42 34.34,-10.83 48.76,-42.82z"/>
   <path class="fil65" d="M1079.61 3085.51l2.84 0.66 29.25 5.47 -21.31 -53.88 -32.88 1.16c11.04,40.83 5.29,10.93 22.1,46.59z"/>
   <path class="fil66" d="M1667.51 4102.58c-2.92,18.49 -16.51,-0.81 10.15,21.38 2.8,2.32 14.37,8.42 14.86,8.66 14.73,6.95 0.87,1.25 14.38,4.6l21.59 7.29 -11.18 -9.86c-2,-27.05 -3.51,-1.76 21.03,-12.76 -1.66,-1.42 -3.6,-3.57 -4.84,-4.44 -1.23,-0.85 -3.51,-3.12 -5.08,-4.08l-60.91 -10.79z"/>
   <path class="fil52" d="M5492.33 1079.4c25.17,-18.26 19.11,-18.69 39.3,-39.03 22.72,-22.88 20.16,-8.37 37.25,-39.72 -42.12,15.78 -61.65,35.37 -76.55,78.75z"/>
   <path class="fil44" d="M1082.45 3086.17c13.35,22.18 15.14,22.39 40.48,26.3 1.46,-32.36 -6.93,-61.38 -32.54,-74.71l21.31 53.88 -29.25 -5.47z"/>
   <path class="fil45" d="M5237.96 1574.79c4.86,9.45 -4.78,22.77 23.62,16.47 35.52,-7.87 14.76,-4.28 24.42,-31.37 -33.36,3.28 -22.55,-2.53 -48.04,14.9z"/>
   <path class="fil67" d="M574 1479.1l-23.98 0c-11.18,13.56 1.49,9.18 -7.87,-7.93 -19.2,18.56 -21.82,22.91 -21.94,51.93l53.79 -44z"/>
   <path class="fil3" d="M1608.84 4022.25l-34.82 -2.92c2.68,19.71 -7.97,18.59 9.56,27.92 32.56,17.3 24.55,-3.54 25.26,-3.84l0 -21.16z"/>
   <path class="fil68" d="M2423.06 4246.11c27.75,6.55 25.86,7.98 62.96,7.98 -14.11,-19.52 1.6,-12 -28.33,-20.34 -17.78,-4.95 -31.69,-5.06 -34.63,12.36z"/>
   <path class="fil69" d="M1079.61 3085.51c-16.81,-35.66 -11.06,-5.76 -22.1,-46.59l32.88 -1.16c-19.13,-17.44 -15.35,-12.59 -43.36,-9.35 -1.08,30.3 7.79,43.92 32.58,57.1z"/>
   <path class="fil45" d="M3583.92 3951.07c44.9,-9.78 10.77,-13.01 51.11,-23.92l0 -20.84c-15.4,6.63 -22.34,11.47 -32.06,20.3 -20.53,18.63 -7.14,1.28 -19.05,24.46z"/>
   <path class="fil18" d="M1258.31 3829.86l0 -22.32c-54.59,-14.77 10.06,-19.77 -54.12,-31.9 15.5,19.83 34.21,39.29 54.12,54.22z"/>
   <path class="fil70" d="M1308.29 3689.19c1.75,3.15 1.25,7.67 2.67,10.52 23.22,46.75 28.66,12.64 29.59,12.14 -13.45,-25.16 15.82,-9.25 -32.26,-22.66z"/>
   <path class="fil17" d="M5962.61 1176.09c25.85,-6.25 19.12,1.01 25.52,-25.23 -20.04,9.1 -14.85,3.76 -25.52,25.23z"/>
   <path class="fil46" d="M3946.58 3648.05c27.02,-6.08 20.79,2.28 25.73,-25.26l-25.73 25.26z"/>
  </g>
  <path class="fil71 str0" d="M6350.08 2780.46c0,8.36 -7.49,23.42 -22.47,45.15 -34.95,47.66 -81.98,93.86 -141.07,138.59 -59.09,44.75 -124,67.11 -194.74,67.11 -74.9,0 -136.07,-21.53 -183.5,-64.6 -47.44,-43.05 -71.17,-106.82 -71.17,-191.27 0,-57.69 9.99,-122.91 29.97,-195.67 19.97,-72.74 43.27,-135.87 69.91,-189.38 27.46,-54.36 59.3,-99.52 95.5,-135.47 36.2,-35.95 72.61,-53.93 109.23,-53.93 35.78,0 63.45,12.96 83.01,38.88 19.56,25.92 29.34,58.12 29.34,96.57 0,14.22 -2.71,28.65 -8.11,43.28 -5.41,14.63 -11.45,26.97 -18.11,37 -6.66,10.04 -11.65,15.06 -14.98,15.06 -6.66,0 -9.98,-3.77 -9.98,-11.29 0,-2.51 1.45,-8.16 4.36,-16.94 2.92,-8.78 4.37,-16.09 4.37,-21.94 0,-20.91 -2.49,-40.56 -7.49,-58.96 -4.16,-15.88 -12.48,-29.06 -24.96,-39.5 -12.48,-10.46 -26.22,-15.69 -41.2,-15.69 -59.92,0 -116.1,58.12 -168.53,174.35 -20.8,46.83 -38.29,99.5 -52.43,158.03 -14.15,58.54 -21.22,114.98 -21.22,169.33 0,37.63 7.7,71.91 23.09,102.85 15.4,30.94 37.45,55.6 66.17,74 28.71,18.4 62.21,27.6 100.49,27.6 60.75,0 115.89,-14.64 165.41,-43.9 49.51,-29.27 98.41,-66.9 146.68,-112.89 1.66,-1.67 7.49,-11.08 17.48,-28.22 9.99,-17.14 17.48,-25.71 22.47,-25.71 4.99,0 8.32,1.25 9.98,3.76 1.67,2.51 2.5,7.1 2.5,13.8zm463.14 -35.12c0,32.61 -12.06,70.24 -36.2,112.88 -24.13,42.65 -58.26,79.23 -102.37,109.75 -44.1,30.52 -94.45,45.78 -151.04,45.78 -55.77,0 -96.96,-15.47 -123.6,-46.4 -26.62,-30.95 -39.94,-69.41 -39.94,-115.4 0,-40.14 7.28,-89.88 21.85,-149.25 14.56,-59.37 35.16,-112.47 61.79,-159.3 1.66,-3.34 8.53,-15.67 20.6,-36.99 12.06,-21.34 25.59,-37.64 40.57,-48.93 14.98,-11.29 30.79,-16.93 47.44,-16.93 7.49,0 14.36,1.88 20.6,5.64 6.24,3.77 9.36,8.57 9.36,14.43 0,1.68 -2.29,5.64 -6.86,11.91 -4.59,6.27 -8.12,11.09 -10.62,14.43 -28.29,34.29 -51.18,68.15 -68.66,101.59 -23.3,42.66 -41.4,84.88 -54.3,126.69 -12.91,41.81 -19.36,87.38 -19.36,136.71 0,66.06 39.96,99.09 119.85,99.09 37.45,0 72.19,-10.88 104.24,-32.61 32.04,-21.74 57.63,-48.29 76.78,-79.65 19.13,-31.35 28.71,-60 28.71,-85.92 0,-29.26 -9.58,-54.77 -28.71,-76.5 -19.15,-21.75 -45.36,-44.74 -78.66,-68.99 -21.63,-15.89 -37.45,-28.85 -47.43,-38.89 -9.99,-10.03 -14.98,-18.39 -14.98,-25.08 0,-10.03 7.07,-18.18 21.22,-24.45 14.15,-6.27 30.8,-9.41 49.93,-9.41 10.83,0 17.9,0.63 21.22,1.88 3.34,1.26 5,3.55 5,6.9 0,1.67 -1.45,4.39 -4.37,8.15 -2.91,3.77 -4.37,6.9 -4.37,9.41 0,2.5 8.33,10.87 24.97,25.08 33.29,27.59 61.17,55.61 83.64,84.04 22.47,28.43 33.7,61.87 33.7,100.34zm667.88 104.1c0,20.91 -14.99,44.95 -44.95,72.12 -29.96,27.18 -69.28,50.59 -117.97,70.24 -48.68,19.65 -98.83,29.48 -150.43,29.48 -38.27,0 -75.52,-4.19 -111.72,-12.55 -36.21,-8.35 -65.54,-19.44 -88.02,-33.24 -22.46,-13.79 -33.7,-28.21 -33.7,-43.26 0,-20.07 7.91,-43.7 23.72,-70.87 15.82,-27.18 41.2,-66.27 76.16,-117.28 -21.65,0 -47.03,-3.34 -76.16,-10.03 -14.98,-4.18 -22.47,-13.37 -22.47,-27.59 0,-5.86 7.49,-8.78 22.47,-8.78l113.6 -1.26c19.15,-35.96 36.42,-74.2 51.81,-114.76 15.39,-40.56 23.09,-67.94 23.09,-82.16 0,-6.69 -2.9,-10.03 -8.74,-10.03 -9.15,0 -23.29,4.59 -42.44,13.8 -19.14,9.2 -32.03,15.47 -38.7,18.81 -50.77,24.25 -101.95,36.37 -153.55,36.37 -10.81,0 -16.23,-3.76 -16.23,-11.29 0,-5.85 12.08,-12.54 36.21,-20.06 33.29,-10.87 76.98,-31.36 131.08,-61.46 61.58,-34.29 104.03,-51.42 127.33,-51.42 13.32,0 23.71,2.92 31.2,8.78 7.49,5.85 11.24,13.37 11.24,22.57 0,20.9 -33.71,103.27 -101.11,247.09 19.14,-0.84 50.35,-6.69 93.62,-17.56 14.15,-4.18 23.31,-6.27 27.47,-6.27 2.5,0 4.57,1.26 6.24,3.76 1.66,2.51 2.5,5.02 2.5,7.53 0,13.37 -6.66,22.99 -19.97,28.85 -34.13,15.88 -81.98,27.59 -143.57,35.11l-26.21 42.65c-23.31,36.79 -41.2,66.89 -53.68,90.3 -12.48,23.42 -18.73,40.56 -18.73,51.43 0,10.87 20.39,19.44 61.17,25.71 40.78,6.27 81.14,9.41 121.09,9.41 57.43,0 109.44,-8.78 156.05,-26.34 46.6,-17.55 84.88,-42.64 114.84,-75.26 4.16,-7.52 8.33,-22.99 12.48,-46.4 0.84,-7.53 2.09,-14.42 3.75,-20.69 1.67,-6.28 4.16,-9.42 7.49,-9.42 4.99,0 8.54,6.06 10.61,18.2 2.08,12.12 3.13,27.38 3.13,45.77zm176.02 -629.64c0,12.54 -13.73,18.82 -41.2,18.82 -14.14,0 -28.5,-5.85 -43.06,-17.56 -14.57,-11.71 -21.85,-21.32 -21.85,-28.85 0,-9.2 4.37,-17.98 13.11,-26.34 8.74,-8.37 17.68,-12.54 26.83,-12.54 0,0 3.13,1.04 9.37,3.13 6.24,2.09 13.52,7.74 21.84,16.94 6.66,6.68 14.15,15.46 22.48,26.34 8.32,10.86 12.48,17.55 12.48,20.06zm31.21 788.93c0,8.36 -3.54,14.84 -10.62,19.45 -7.07,4.6 -15.19,6.47 -24.33,5.64 -11.66,-0.83 -20.19,-19.65 -25.6,-56.44 -5.41,-36.79 -11.02,-106.62 -16.86,-209.46 -3.32,-67.73 -6.24,-134.01 -8.73,-198.8 -2.5,-64.81 -4.16,-114.77 -5,-149.89 0,-9.2 1.46,-16.1 4.38,-20.7 2.91,-4.59 8.53,-6.89 16.84,-6.89 19.15,0 31.22,7.94 36.21,23.83 5,15.88 7.49,46.41 7.49,91.56l-1.24 148.01c0,84.45 2.49,152.18 7.49,203.18 0,2.51 3.74,29.27 11.23,80.28 5.82,35.12 8.74,58.53 8.74,70.23zm586.72 5.02c0,10.04 -4.16,18.6 -12.48,25.72 -8.32,7.1 -18.3,10.65 -29.96,10.65 -8.33,0 -15.4,-1.87 -21.22,-5.64 -5.83,-3.76 -8.74,-8.99 -8.74,-15.68 0,-34.28 2.5,-87.38 7.49,-159.29 5,-76.93 7.49,-140.9 7.49,-191.9 0,-49.33 -1.46,-89.68 -4.37,-121.04 -2.91,-31.35 -9.78,-47.03 -20.59,-47.03 -28.31,0 -59.3,35.33 -93.01,105.98 -33.7,70.66 -72.2,163.68 -115.47,279.08l-18.73 50.17c-3.33,8.36 -8.94,15.05 -16.85,20.07 -7.91,5.01 -16.02,7.52 -24.34,7.52 -9.99,0 -16.65,-0.83 -19.98,-2.51 -3.33,-1.67 -5.41,-6.69 -6.24,-15.05l-9.99 -102.85 -18.73 -180.61c-5.82,-71.91 -12.89,-134.63 -21.22,-188.14 -2.49,-12.54 -3.74,-22.16 -3.74,-28.85 0,-12.54 5.41,-22.79 16.23,-30.73 10.82,-7.95 23.3,-11.91 37.45,-11.91 8.32,0 14.36,20.07 18.1,60.2 3.75,40.14 7.7,104.94 11.86,194.41l5 66.48c6.65,84.45 10.39,137.96 11.23,160.55 2.5,-5.02 4.79,-10.67 6.86,-16.94 2.09,-6.27 4.79,-13.17 8.12,-20.7 44.94,-117.06 87.17,-214.68 126.71,-292.86 39.53,-78.19 77.61,-117.28 114.23,-117.28 25.79,0 43.48,21.95 53.04,65.85 9.58,43.9 15.61,100.13 18.11,168.7 2.5,76.09 3.74,187.3 3.74,333.63zm690.34 8.78c0,10.03 -3.33,18.6 -9.99,25.72 -6.65,7.1 -15.39,10.65 -26.21,10.65 -8.32,0 -15.39,-1.87 -21.22,-5.64 -5.82,-3.76 -8.74,-8.99 -8.74,-15.68l2.5 -86.54c4.16,-102.86 6.24,-186.89 6.24,-252.11 0,-95.33 -6.65,-162.01 -19.98,-200.06 -13.31,-38.04 -28.71,-57.06 -46.18,-57.06 -39.12,0 -88.22,60.82 -147.31,182.49 -59.09,121.66 -116.1,254.41 -171.02,398.23 -4.17,11.71 -9.79,23 -16.86,33.86 -7.07,10.88 -14.35,16.31 -21.84,16.31 -18.31,0 -27.47,-5.85 -27.47,-17.56 0,-51 -2.08,-146.54 -6.24,-286.59 -4.16,-140.06 -7.49,-232.25 -9.99,-276.57 -7.49,-149.68 -14.56,-242.08 -21.22,-277.19 -6.65,-35.12 -9.99,-53.94 -9.99,-56.44 0,-8.37 4.59,-14.64 13.73,-18.82 9.16,-4.18 20.82,-6.27 34.96,-6.27 11.65,0 20.18,26.54 25.59,79.64 5.41,53.1 9.37,121.04 11.87,203.82l1.24 35.12c1.66,25.92 2.91,100.13 3.75,222.63 0.83,122.5 1.25,212.61 1.25,270.3 38.27,-96.16 74.27,-181.87 107.98,-257.12 33.7,-75.27 72.61,-145.71 116.71,-211.36 44.11,-65.64 84.9,-98.45 122.35,-98.45 31.62,0 58.26,26.54 79.89,79.64 21.64,53.1 32.45,132.33 32.45,237.69 0,46.83 0.84,112.05 2.5,195.67l1.25 131.69zm670.37 -97.83c0.84,5.85 4.17,11.91 9.99,18.18 5.83,6.27 8.74,11.5 8.74,15.69 0,10.03 -4.16,21.53 -12.49,34.48 -8.32,12.97 -16.63,19.45 -24.96,19.45 -14.14,0 -24.97,-8.78 -32.46,-26.34 -7.49,-17.56 -11.23,-38.05 -11.23,-61.46 0,-20.07 1.24,-80.28 3.74,-180.62l1.25 -47.66c0,-19.23 -4.99,-33.03 -14.98,-41.38 -37.45,63.54 -72.4,118.72 -104.86,165.55 -32.46,46.83 -73.66,90.94 -123.59,132.33 -49.93,41.39 -102.36,62.09 -157.3,62.09 -26.62,0 -47.22,-8.36 -61.78,-25.09 -14.57,-16.72 -21.85,-38.47 -21.85,-65.22 0,-33.45 14.98,-79.22 44.93,-137.34 29.96,-58.11 68.25,-117.06 114.86,-176.85 46.61,-59.79 93.21,-108.92 139.81,-147.38 30.8,-25.08 55.34,-42.02 73.66,-50.8 18.31,-8.78 34.53,-13.16 48.68,-13.16 13.32,0 27.05,4.17 41.2,12.54 14.15,8.36 26.21,20.07 36.2,35.12 9.99,15.05 14.98,32.18 14.98,51.42 0,25.92 -7.07,50.59 -21.22,74l21.22 -6.27c9.16,0 14.57,11.28 16.23,33.86 0.84,13.39 1.87,40.56 3.12,81.53 1.25,40.97 2.29,74.84 3.12,101.6 0.84,27.59 1.67,54.35 2.5,80.27 0.83,25.92 1.66,46.41 2.49,61.46zm-440.66 22.58c44.94,0 88.21,-16.73 129.82,-50.17 41.62,-33.45 78.86,-73.38 111.73,-119.78 32.88,-46.42 69.29,-103.48 109.23,-171.22 9.99,-25.08 14.98,-52.25 14.98,-81.52 0,-17.56 -5.2,-32.82 -15.61,-45.79 -10.39,-12.95 -24.33,-19.43 -41.81,-19.43 -20.81,0 -47.43,14.22 -79.9,42.64 -37.45,31.78 -76.98,74.21 -118.59,127.31 -41.61,53.1 -76.15,105.56 -103.61,157.41 -27.47,51.84 -41.2,92.82 -41.2,122.92 0,25.09 11.65,37.63 34.96,37.63zm1389.42 -800.22c0,16.71 -0.83,49.53 -2.5,98.45 -1.67,48.92 -2.5,98.05 -2.5,147.38 0,95.32 2.08,192.53 6.25,291.61 4.16,99.1 7.48,164.11 9.98,195.05 0,5.02 0.42,10.45 1.25,16.31 0.83,5.84 1.67,11.28 2.5,16.3 3.32,23.41 4.99,37.63 4.99,42.64 0,8.36 -6.03,16.31 -18.1,23.83 -12.07,7.53 -21.43,11.29 -28.09,11.29 -9.16,0 -15.19,-3.55 -18.1,-10.66 -2.91,-7.11 -4.37,-16.93 -4.37,-29.47 0,-46 1.25,-94.08 3.75,-144.25l1.25 -70.23c0,-23.42 -0.42,-54.15 -1.25,-92.19 -0.83,-38.05 -2.08,-70.03 -3.75,-95.96 -42.44,137.13 -90.5,250.65 -144.18,340.54 -53.68,89.89 -111.73,134.83 -174.15,134.83 -28.3,0 -52.23,-13.37 -71.78,-40.13 -19.56,-26.76 -29.34,-65.22 -29.34,-115.4 0,-66.05 22.26,-137.97 66.79,-215.73 44.52,-77.77 95.29,-144.66 152.3,-200.68 57.01,-56.03 99.24,-84.04 126.71,-84.04 26.63,0 39.95,8.78 39.95,26.34 0,11.7 -3.96,25.29 -11.87,40.76 -7.9,15.47 -16.64,29.48 -26.21,42.02 -9.57,12.54 -15.19,18.82 -16.86,18.82 -1.66,0 -3.53,-0.64 -5.61,-1.89 -2.08,-1.25 -3.13,-2.71 -3.13,-4.39 0,-4.18 2.09,-11.28 6.25,-21.32 4.16,-10.03 6.25,-16.72 6.25,-20.06 0,-4.19 -0.42,-7.12 -1.25,-8.78 -0.84,-1.68 -3.34,-2.51 -7.5,-2.51 -17.48,0 -48.89,24.04 -94.24,72.12 -45.36,48.07 -85.94,105.14 -121.72,171.21 -35.79,66.05 -53.69,127.51 -53.69,184.37 0,20.07 4.17,38.89 12.49,56.45 8.33,17.55 22.06,26.33 41.2,26.33 60.75,0 117.13,-51.63 169.15,-154.9 52.01,-103.26 97.16,-220.54 135.45,-351.82l-2.5 -105.36c-2.49,-92.82 -3.74,-142.15 -3.74,-148 0,-50.17 2.08,-86.13 6.24,-107.87 1.67,-8.36 3.53,-14.21 5.61,-17.56 2.09,-3.34 6.45,-5.02 13.11,-5.02 8.32,0 16.65,2.72 24.97,8.16 8.32,5.43 12.48,12.75 12.48,21.94l-2.49 61.47zm617.93 538.08c5.82,0 8.74,6.27 8.74,18.81 0,15.05 -11.03,48.08 -33.08,99.08 -22.06,51.01 -55.34,98.25 -99.87,141.74 -44.52,43.48 -99.25,65.22 -164.16,65.22 -53.27,0 -97.79,-16.73 -133.58,-50.17 -35.78,-33.45 -53.68,-84.88 -53.68,-154.28 0,-65.22 14.98,-129.81 44.94,-193.78 29.97,-63.96 69.08,-116.23 117.35,-156.79 48.27,-40.55 98.21,-60.82 149.8,-60.82 30.8,0 56.8,6.89 78.03,20.69 21.22,13.79 31.83,33.65 31.83,59.58 0,29.27 -16.44,57.69 -49.31,85.29 -32.88,27.59 -75.53,51.84 -127.96,72.75 -52.43,20.9 -106.52,35.95 -162.28,45.15 -9.98,38.46 -14.98,76.09 -14.98,112.88 0,48.5 11.44,86.13 34.33,112.89 22.89,26.75 55.55,40.14 97.99,40.14 64.09,0 116.11,-23 156.05,-69 39.95,-45.98 73.23,-97.83 99.87,-155.52 1.66,-3.34 4.57,-9.82 8.74,-19.44 4.16,-9.62 7.9,-14.42 11.23,-14.42zm-109.85 -196.93c0,-13.37 -6.87,-23.83 -20.6,-31.35 -13.73,-7.53 -29.75,-11.29 -48.07,-11.29 -31.62,0 -61.99,10.45 -91.12,31.36 -29.14,20.9 -53.47,45.98 -73.04,75.25 -19.55,29.27 -32.24,55.19 -38.06,77.77 38.27,-4.18 78.64,-15.06 121.08,-32.62 42.44,-17.56 78.03,-36.78 106.74,-57.69 28.71,-20.9 43.07,-38.05 43.07,-51.43zm1240.86 507.98c0,10.04 -16.23,15.05 -48.69,15.05 -5.83,0 -44.74,-44.94 -116.72,-134.83 -71.99,-89.89 -131.29,-166.61 -177.89,-230.15 -6.66,-9.2 -27.88,-39.73 -63.67,-91.57 -52.43,-76.93 -84.89,-123.34 -97.37,-139.22l-2.5 96.58 -1.24 94.06c0,59.37 -0.63,123.76 -1.88,193.16 -1.25,69.4 -2.7,124.59 -4.37,165.57 -0.82,10.03 -5.2,19.23 -13.11,27.59 -7.9,8.36 -16.02,12.54 -24.33,12.54 -9.16,0 -15.61,-2.72 -19.36,-8.16 -3.74,-5.42 -5.61,-16.09 -5.61,-31.97 0,-10.04 1.66,-40.98 4.99,-92.82 7.49,-96.16 11.24,-176.85 11.24,-242.07 0,-51.84 0.83,-100.97 2.49,-147.38 1.66,-46.41 2.5,-75.05 2.5,-85.91l1.25 -36.39 0 -3.76c0,-9.19 1.46,-16.5 4.36,-21.94 2.92,-5.44 8.95,-8.16 18.11,-8.16l6.24 0c9.16,0 27.25,16.52 54.31,49.55 27.04,33.03 61.37,77.97 102.98,134.83 9.15,11.71 17.89,23.21 26.22,34.5 8.32,11.28 16.23,21.94 23.72,31.97 47.44,61.05 72.4,93.24 74.9,96.59 118.18,151.35 182.67,237.47 193.5,258.38 -1.67,-6.7 -4.59,-22.17 -8.74,-46.41 -4.17,-24.25 -8.12,-56.03 -11.87,-95.33 -3.74,-39.3 -5.61,-79.86 -5.61,-121.66 0,-74.42 -7.08,-172.67 -21.22,-294.76 -4.16,-40.13 -6.24,-64.8 -6.24,-74 0,-31.77 17.88,-47.66 53.68,-47.66 8.31,0 14.56,8.57 18.72,25.72 4.15,17.14 7.07,53.3 8.74,108.49 1.67,55.19 2.5,143.41 2.5,264.65 0,38.46 1.45,76.09 4.36,112.88 2.92,36.8 5.62,69.41 8.12,97.83 4.16,39.3 6.24,68.99 6.24,89.06l1.25 45.15zm716.55 -12.54c0,13.38 -3.75,23.83 -11.24,31.36 -7.49,7.52 -17.88,11.28 -31.2,11.28 -16.65,0 -31.83,-17.56 -45.57,-52.67 -13.73,-35.12 -22.26,-71.49 -25.59,-109.13 -3.32,-35.95 -5.82,-108.7 -7.49,-218.23 -0.83,-17.56 -1.25,-35.33 -1.25,-53.31 0,-17.98 -0.42,-33.24 -1.24,-45.79 -24.14,57.7 -57.02,123.34 -98.63,196.92 -41.61,73.59 -83.43,136.72 -125.46,189.4 -42.02,52.68 -76.36,79.02 -102.98,79.02 -27.47,0 -45.57,-14.63 -54.31,-43.9 -8.74,-29.27 -13.11,-75.67 -13.11,-139.23 0,-59.37 7.7,-126.67 23.1,-201.94 15.4,-75.25 33.07,-132.52 53.06,-171.82 8.31,-17.56 15.39,-29.48 21.22,-35.75 5.82,-6.28 12.48,-9.41 19.97,-9.41 20.8,0 31.21,4.18 31.21,12.55 0,4.17 -4.17,13.79 -12.48,28.84 -22.47,41.81 -42.04,91.98 -58.68,150.51 -16.64,58.54 -24.97,137.14 -24.97,235.8 0,66.06 9.16,99.09 27.47,99.09 21.63,0 50.97,-24.04 88,-72.12 37.04,-48.08 73.87,-105.56 110.48,-172.46 36.62,-66.89 64.5,-125.01 83.65,-174.34 6.65,-16.73 14.14,-42.65 22.47,-77.77 2.5,-14.21 4.99,-24.46 7.49,-30.73 2.5,-6.27 5.41,-9.4 8.74,-9.4 9.15,0 19.14,3.76 29.96,11.29 10.81,7.52 16.22,15.46 16.22,23.83 0,40.13 1.46,108.9 4.38,206.32 2.9,97.42 6.44,164.94 10.6,202.56 3.33,32.61 9.37,58.12 18.11,76.52 8.74,18.39 17.27,32.82 25.58,43.26 8.33,10.46 12.49,16.94 12.49,19.45zm655.38 -497.94c0,14.21 -6.03,25.08 -18.1,32.61 -12.06,7.52 -33.91,13.37 -65.54,17.56 -76.56,13.38 -119.42,20.91 -128.57,22.57l-81.15 13.8c0,43.48 0.63,89.06 1.87,136.72 1.25,47.66 3.12,89.47 5.62,125.42 3.33,48.5 9.15,85.71 17.47,111.63 8.33,25.92 12.91,40.56 13.73,43.9 0,8.36 -5.19,16.1 -15.59,23.21 -10.41,7.1 -20.19,10.66 -29.34,10.66 -5,0 -9.15,-1.47 -12.49,-4.39 -3.32,-2.93 -6.24,-7.74 -8.74,-14.43 -4.99,-11.71 -9.77,-33.44 -14.35,-65.22 -4.58,-31.77 -8.11,-66.89 -10.61,-105.36 -2.5,-34.28 -4.37,-74.21 -5.61,-119.78 -1.25,-45.58 -1.88,-89.69 -1.88,-132.33 -46.61,7.53 -94.46,16.73 -143.57,27.59 -44.1,9.2 -70.31,13.8 -78.64,13.8 -9.99,0 -19.34,-2.92 -28.08,-8.78 -8.74,-5.85 -13.11,-13.8 -13.11,-23.83 0,-10.87 3.74,-17.97 11.23,-21.32 7.49,-3.34 19.97,-5.02 37.45,-5.02 12.48,0 30.8,-2.3 54.92,-6.89 24.14,-4.61 39.54,-7.74 46.2,-9.41 55.76,-10.87 93.63,-17.98 113.6,-21.32 0,-17.56 -0.83,-40.56 -2.5,-68.99 -1.67,-38.47 -2.49,-67.72 -2.49,-87.8 0,-32.61 1.03,-57.91 3.12,-75.88 2.08,-17.98 6.03,-34.07 11.86,-48.29 6.66,-16.72 19.14,-25.08 37.44,-25.08 7.49,0 12.49,1.25 14.98,3.76 2.5,2.51 3.75,7.1 3.75,13.8 0,5.01 -2.08,19.64 -6.24,43.89 -4.16,24.26 -6.24,56.44 -6.24,96.59 0,30.93 0.83,65.63 2.49,104.1l1.25 33.86c37.45,-5.85 111.52,-21.32 222.21,-46.4 6.66,-1.68 12.27,-7.53 16.86,-17.56 4.57,-10.04 9.35,-15.05 14.35,-15.05 9.16,0 18.52,5.22 28.09,15.67 9.57,10.45 14.35,21.12 14.35,31.99zm491.85 -8.78c0,7.52 -5.2,16.09 -15.6,25.7 -10.4,9.63 -19.35,14.43 -26.84,14.43 -5.83,0 -11.44,-2.51 -16.86,-7.52 -5.4,-5.02 -11.44,-12.12 -18.09,-21.33 -5.83,-8.35 -13.53,-15.47 -23.1,-21.32 -9.57,-5.85 -19.35,-8.78 -29.34,-8.78 -24.13,0 -56.58,31.98 -97.37,95.96 -40.77,63.96 -80.73,144.44 -119.84,241.44 0.83,19.23 2.29,43.48 4.37,72.74 2.08,29.27 3.53,51.01 4.37,65.23l3.75 50.17c0,11.71 -2.5,21.95 -7.49,30.73 -5,8.78 -14.15,13.17 -27.48,13.17 -14.14,0 -23.29,-19.03 -27.46,-57.07 -4.15,-38.04 -6.65,-93.45 -7.49,-166.19 -0.83,-18.39 -1.45,-44.73 -1.87,-79.02 -0.42,-34.28 -1.45,-75.25 -3.12,-122.92 -2.5,-71.91 -3.75,-123.34 -3.75,-154.27 0,-19.23 11.66,-28.85 34.96,-28.85 14.15,0 22.68,6.06 25.59,18.18 2.92,12.13 4.38,35.33 4.38,69.62l0 199.43c24.96,-64.39 52.01,-119.99 81.14,-166.82 29.13,-46.83 57.63,-82.57 85.51,-107.24 27.88,-24.67 52.64,-37 74.28,-37 18.3,0 35.78,4.18 52.43,12.55 16.64,8.35 29.96,19.02 39.94,31.97 9.99,12.97 14.98,25.3 14.98,37.01zm171.03 -257.13c0,12.54 -13.73,18.82 -41.2,18.82 -14.14,0 -28.5,-5.85 -43.06,-17.56 -14.57,-11.71 -21.85,-21.32 -21.85,-28.85 0,-9.2 4.37,-17.98 13.11,-26.34 8.74,-8.37 17.68,-12.54 26.83,-12.54 0,0 3.13,1.04 9.37,3.13 6.24,2.09 13.52,7.74 21.84,16.94 6.66,6.68 14.15,15.46 22.48,26.34 8.32,10.86 12.48,17.55 12.48,20.06zm31.21 788.93c0,8.36 -3.54,14.84 -10.62,19.45 -7.07,4.6 -15.18,6.47 -24.33,5.64 -11.66,-0.83 -20.19,-19.65 -25.6,-56.44 -5.41,-36.79 -11.02,-106.62 -16.86,-209.46 -3.32,-67.73 -6.24,-134.01 -8.73,-198.8 -2.5,-64.81 -4.16,-114.77 -5,-149.89 0,-9.2 1.46,-16.1 4.38,-20.7 2.91,-4.59 8.53,-6.89 16.84,-6.89 19.15,0 31.22,7.94 36.22,23.83 4.99,15.88 7.49,46.41 7.49,91.56l-1.25 148.01c0,84.45 2.49,152.18 7.49,203.18 0,2.51 3.74,29.27 11.23,80.28 5.82,35.12 8.74,58.53 8.74,70.23z"/>
 </g>
</svg>
